<svg width="325" height="264" viewBox="0 0 325 264" fill="none" xmlns="http://www.w3.org/2000/svg">
<path d="M169.647 257.824C108.712 282.914 48.6686 215.646 22.5388 157.136C-3.59103 98.6258 24.6191 30.8511 85.5581 5.76078C146.497 -19.3295 294.716 54.0629 320.851 112.573C346.985 171.083 230.586 232.733 169.647 257.824Z" fill="url(#paint0_linear_298_441)"/>
<g clip-path="url(#clip0_298_441)">
<path d="M211.655 66.0821H210.307V29.2046C210.307 26.4017 209.754 23.6263 208.679 21.0367C207.605 18.4472 206.03 16.0943 204.045 14.1124C202.06 12.1304 199.703 10.5583 197.109 9.48563C194.515 8.41301 191.735 7.86093 188.928 7.86093H110.667C104.997 7.86093 99.5591 10.1096 95.5497 14.1123C91.5403 18.115 89.2879 23.5439 89.2878 29.2046V231.517C89.2878 237.178 91.5403 242.607 95.5497 246.609C99.5591 250.612 104.997 252.861 110.667 252.861H188.927C194.598 252.861 200.036 250.612 204.045 246.61C208.054 242.607 210.307 237.178 210.307 231.517V92.3321H211.655V66.0821Z" fill="#D7D7D7"/>
<path d="M205.757 29.3537V231.371C205.757 231.666 205.75 231.957 205.731 232.249C205.507 236.318 203.73 240.148 200.764 242.949C197.799 245.75 193.871 247.31 189.789 247.308H111.153C107.061 247.31 103.125 245.741 100.158 242.928C97.191 240.114 95.4201 236.27 95.2112 232.19C95.1964 231.921 95.189 231.647 95.189 231.371V29.3537C95.1885 25.1263 96.8702 21.0718 99.8641 18.0822C102.858 15.0926 106.919 13.4128 111.153 13.4122H120.696C120.226 14.562 120.046 15.8095 120.173 17.0448C120.3 18.2801 120.729 19.4654 121.423 20.4962C122.116 21.527 123.053 22.3717 124.151 22.956C125.248 23.5403 126.473 23.8462 127.717 23.8467H172.553C173.796 23.8461 175.021 23.5401 176.118 22.9558C177.216 22.3715 178.153 21.5268 178.846 20.496C179.54 19.4652 179.969 18.28 180.096 17.0447C180.222 15.8095 180.043 14.562 179.573 13.4122H189.789C194.024 13.4126 198.085 15.0923 201.08 18.0818C204.074 21.0714 205.757 25.1259 205.757 29.3537Z" fill="white"/>
<path d="M204.305 181.708H96.6386C96.2604 181.708 95.8978 181.557 95.6303 181.29C95.3628 181.023 95.2124 180.661 95.2119 180.284V48.4136C95.2124 48.0361 95.3628 47.6741 95.6303 47.4071C95.8978 47.1401 96.2604 46.99 96.6386 46.9896H204.305C204.683 46.99 205.046 47.1401 205.313 47.4071C205.58 47.6741 205.731 48.0361 205.731 48.4136V180.284C205.731 180.661 205.58 181.023 205.313 181.29C205.046 181.557 204.683 181.708 204.305 181.708Z" fill="#F0F0F0"/>
<path d="M196.403 56.1911H104.761C104.382 56.1914 104.02 56.3416 103.752 56.6087C103.484 56.8758 103.334 57.2381 103.334 57.6159V152.9C103.335 153.277 103.486 153.638 103.753 153.905C104.021 154.171 104.383 154.321 104.761 154.321H196.403C196.781 154.321 197.143 154.171 197.411 153.905C197.678 153.638 197.829 153.277 197.83 152.9V57.6159C197.83 57.2381 197.679 56.8758 197.412 56.6087C197.144 56.3415 196.781 56.1914 196.403 56.1911Z" fill="white"/>
<path d="M103.171 42.1874C105.213 42.1874 106.868 40.5349 106.868 38.4964C106.868 36.4579 105.213 34.8054 103.171 34.8054C101.129 34.8054 99.4739 36.4579 99.4739 38.4964C99.4739 40.5349 101.129 42.1874 103.171 42.1874Z" fill="#1877F2"/>
<path d="M120.757 159.019C114.444 148.868 116.619 135.899 117.682 123.998C119.269 106.142 117.837 88.1468 113.445 70.7652C118.676 76.5972 122.128 83.8009 123.393 91.5269C124.435 97.9692 123.92 104.597 125.101 111.016C127.632 124.779 137.827 137.192 136.249 151.096C135.9 154.169 134.727 157.475 131.994 158.931C128.909 160.575 125.143 159.268 121.907 157.944" fill="#F0F0F0"/>
<path d="M110.102 163.232C109.411 162.539 108.472 162.148 107.492 162.145C106.511 162.143 105.57 162.529 104.876 163.219C104.181 163.91 103.789 164.847 103.787 165.826C103.784 166.804 104.171 167.744 104.863 168.437L104.875 168.45L110.102 173.667L115.329 168.45C116.019 167.757 116.406 166.82 116.405 165.843C116.403 164.866 116.014 163.93 115.322 163.239C114.63 162.548 113.692 162.16 112.713 162.158C111.735 162.157 110.796 162.543 110.102 163.232V163.232Z" fill="#1877F2"/>
<path d="M126.37 163.232C125.679 162.539 124.74 162.148 123.759 162.145C122.779 162.143 121.838 162.529 121.143 163.219C120.449 163.91 120.057 164.847 120.054 165.826C120.052 166.804 120.439 167.744 121.13 168.437L121.143 168.45L126.37 173.667L131.597 168.45C132.287 167.757 132.674 166.82 132.672 165.843C132.671 164.866 132.282 163.93 131.59 163.239C130.898 162.548 129.96 162.16 128.981 162.158C128.003 162.157 127.064 162.543 126.37 163.232V163.232Z" fill="#1877F2"/>
<path d="M142.638 163.232C141.946 162.539 141.007 162.148 140.027 162.145C139.047 162.143 138.106 162.529 137.411 163.219C136.716 163.91 136.324 164.847 136.322 165.826C136.32 166.804 136.707 167.744 137.398 168.437L137.411 168.45L142.638 173.667L147.865 168.45C148.555 167.757 148.941 166.82 148.94 165.843C148.939 164.866 148.549 163.93 147.857 163.239C147.165 162.548 146.227 162.16 145.249 162.158C144.27 162.157 143.331 162.543 142.638 163.232V163.232Z" fill="#1877F2"/>
<path d="M171.372 41.391H119.237C118.862 41.3915 118.49 41.3181 118.144 41.1752C117.797 41.0322 117.482 40.8225 117.217 40.558C116.952 40.2935 116.741 39.9793 116.598 39.6336C116.454 39.2878 116.38 38.9172 116.38 38.5429C116.38 38.1686 116.454 37.798 116.598 37.4522C116.741 37.1064 116.952 36.7923 117.217 36.5278C117.482 36.2633 117.797 36.0536 118.144 35.9106C118.49 35.7677 118.862 35.6943 119.237 35.6947H171.372C171.747 35.6943 172.119 35.7677 172.465 35.9106C172.812 36.0536 173.126 36.2633 173.392 36.5278C173.657 36.7923 173.867 37.1064 174.011 37.4522C174.155 37.798 174.228 38.1686 174.228 38.5429C174.228 38.9172 174.155 39.2878 174.011 39.6336C173.867 39.9793 173.657 40.2935 173.392 40.558C173.126 40.8225 172.812 41.0322 172.465 41.1752C172.119 41.3181 171.747 41.3915 171.372 41.391Z" fill="#1877F2"/>
<path d="M204.304 206.441H96.6382C96.2598 206.442 95.897 206.592 95.6294 206.859C95.3618 207.126 95.2114 207.488 95.2112 207.866V232.19C95.4201 236.27 97.191 240.114 100.158 242.928C103.125 245.741 107.061 247.31 111.153 247.308H189.789C193.871 247.31 197.799 245.75 200.764 242.949C203.73 240.148 205.507 236.318 205.731 232.249V207.866C205.731 207.488 205.58 207.126 205.313 206.859C205.045 206.592 204.682 206.442 204.304 206.441Z" fill="#F0F0F0"/>
<path d="M196.403 215.643H104.761C104.382 215.643 104.02 215.794 103.752 216.061C103.484 216.328 103.334 216.69 103.334 217.068V245.267C105.72 246.61 108.414 247.313 111.153 247.308H189.789C192.614 247.312 195.39 246.565 197.83 245.142V217.068C197.83 216.69 197.679 216.328 197.412 216.061C197.144 215.794 196.781 215.643 196.403 215.643Z" fill="white"/>
<path d="M103.171 201.639C105.213 201.639 106.868 199.987 106.868 197.948C106.868 195.91 105.213 194.257 103.171 194.257C101.129 194.257 99.4739 195.91 99.4739 197.948C99.4739 199.987 101.129 201.639 103.171 201.639Z" fill="#E4E4E4"/>
<path d="M171.372 200.843H119.237C118.862 200.843 118.49 200.77 118.144 200.627C117.797 200.484 117.482 200.275 117.217 200.01C116.952 199.746 116.741 199.431 116.598 199.086C116.454 198.74 116.38 198.369 116.38 197.995C116.38 197.621 116.454 197.25 116.598 196.904C116.741 196.558 116.952 196.244 117.217 195.98C117.482 195.715 117.797 195.506 118.144 195.363C118.49 195.22 118.862 195.146 119.237 195.147H171.372C171.747 195.146 172.119 195.22 172.465 195.363C172.812 195.506 173.126 195.715 173.392 195.98C173.657 196.244 173.867 196.558 174.011 196.904C174.155 197.25 174.228 197.621 174.228 197.995C174.228 198.369 174.155 198.74 174.011 199.086C173.867 199.431 173.657 199.746 173.392 200.01C173.126 200.275 172.812 200.484 172.465 200.627C172.119 200.77 171.747 200.843 171.372 200.843Z" fill="#E4E4E4"/>
<path d="M141.903 247.308H114.813C117.572 241.89 122.663 237.476 128.663 237.243C129.567 237.209 130.473 237.276 131.362 237.442C131.735 237.509 132.101 237.597 132.468 237.693C134.769 238.284 136.865 239.493 138.528 241.187C140.191 242.882 141.358 244.999 141.903 247.308Z" fill="#F2F2F2"/>
<path d="M185.23 247.308H148.447C149.012 245.623 149.492 243.911 149.885 242.178C151.538 235.051 153.22 227.048 159.316 222.996C162.711 220.737 166.84 220.368 170.756 221.364C170.874 221.394 170.996 221.427 171.114 221.464C175.732 222.743 179.696 225.715 182.213 229.787C185.33 235.006 186.025 241.215 185.23 247.308Z" fill="#F2F2F2"/>
<path d="M132.848 242.957C132.831 244.415 132.701 245.87 132.46 247.308H131.403C131.959 244.042 131.945 240.704 131.362 237.442C131.735 237.509 132.101 237.597 132.468 237.693C132.748 239.433 132.875 241.195 132.848 242.957Z" fill="white"/>
<path d="M171.251 221.803C171.255 222.601 171.251 223.402 171.229 224.203C171.066 230.861 170.072 237.474 168.271 243.887C167.953 245.031 167.609 246.172 167.24 247.308H166.153C166.818 245.286 167.399 243.237 167.901 241.185C169.457 234.886 170.231 228.42 170.208 221.933C170.209 221.786 170.266 221.645 170.368 221.539C170.47 221.434 170.609 221.371 170.755 221.364C170.883 221.35 171.012 221.386 171.114 221.464C171.162 221.506 171.199 221.559 171.223 221.617C171.247 221.676 171.256 221.74 171.251 221.803Z" fill="white"/>
<path d="M190.777 228.608C192.002 228.608 192.995 227.617 192.995 226.393C192.995 225.17 192.002 224.179 190.777 224.179C189.552 224.179 188.559 225.17 188.559 226.393C188.559 227.617 189.552 228.608 190.777 228.608Z" fill="#F2F2F2"/>
<path d="M137.605 66.9902C138.83 66.9902 139.823 65.9987 139.823 64.7756C139.823 63.5525 138.83 62.561 137.605 62.561C136.379 62.561 135.386 63.5525 135.386 64.7756C135.386 65.9987 136.379 66.9902 137.605 66.9902Z" fill="#1877F2"/>
<path d="M178.643 79.9088C179.868 79.9088 180.862 78.9173 180.862 77.6942C180.862 76.4711 179.868 75.4796 178.643 75.4796C177.418 75.4796 176.425 76.4711 176.425 77.6942C176.425 78.9173 177.418 79.9088 178.643 79.9088Z" fill="#E4E4E4"/>
<path d="M177.534 124.939C178.759 124.939 179.753 123.948 179.753 122.725C179.753 121.502 178.759 120.51 177.534 120.51C176.309 120.51 175.316 121.502 175.316 122.725C175.316 123.948 176.309 124.939 177.534 124.939Z" fill="#E4E4E4"/>
<path d="M167.717 146.045L166.215 141.247C165.957 140.13 165.63 139.031 165.236 137.955C163.542 132.846 159.823 122.545 155.442 111.782L150.288 106.636L148.861 105.706L147.511 104.831L146.931 105.367L141.396 110.468L141.356 110.803L137.74 141.483C137.74 141.483 137.729 141.568 137.71 141.734C137.669 142.092 137.584 142.823 137.474 143.868C137.263 145.831 136.923 149.26 136.586 153.582H170.072L167.717 146.045Z" fill="#9F0013"/>
<path opacity="0.2" d="M143.987 124.225L142.582 132.978L152.092 136.894L143.987 124.225Z" fill="black"/>
<path d="M161.013 85.0586C159.285 83.1744 157.027 81.8555 154.535 81.2749C152.043 80.6942 149.433 80.8789 147.048 81.8047C144.663 82.7305 142.614 84.3542 141.169 86.4629C139.724 88.5717 138.952 91.067 138.952 93.6218V103.082C138.953 103.534 139.133 103.968 139.453 104.287C139.773 104.607 140.207 104.787 140.66 104.787H162.648C163.1 104.786 163.533 104.606 163.853 104.286C164.173 103.967 164.352 103.533 164.352 103.082V93.6218C164.353 90.4506 163.162 87.3945 161.013 85.0586Z" fill="#EAC48C"/>
<path d="M154.081 104.216C159.223 104.216 163.391 100.054 163.391 94.9204C163.391 89.7869 159.223 85.6253 154.081 85.6253C148.939 85.6253 144.77 89.7869 144.77 94.9204C144.77 100.054 148.939 104.216 154.081 104.216Z" fill="#FBC1C1"/>
<path d="M161.014 85.0586C159.837 84.5891 158.58 84.3485 157.313 84.3499H155.416C153.819 84.3501 152.245 84.731 150.825 85.461C149.405 86.1909 148.18 87.2488 147.253 88.5466C147.19 88.6278 147.134 88.7127 147.079 88.7939C145.963 90.443 145.368 92.3883 145.371 94.3784V94.5667H149.375L150.743 90.7465L151.016 94.5667H153.087L153.775 92.64L153.911 94.5667C158.241 96.1641 162.733 96.0618 167.358 94.5667V94.3784C167.356 92.3696 166.75 90.4076 165.619 88.7461C164.488 87.0846 162.884 85.8001 161.014 85.0586Z" fill="#EAC48C"/>
<path d="M155.342 104.13C155.334 104.109 155.324 104.088 155.313 104.067C154.059 101.683 152.488 98.0325 152.399 94.5667C152.347 92.496 152.828 90.4881 154.225 88.8604L154.492 88.5466H143.655V104.791L146.931 105.367L148.861 105.706L153.501 106.526C153.601 106.543 153.702 106.552 153.804 106.551C154.073 106.551 154.337 106.487 154.576 106.366C154.815 106.244 155.022 106.067 155.179 105.85C155.407 105.544 155.522 105.168 155.505 104.787C155.498 104.559 155.442 104.335 155.342 104.13Z" fill="#EAC48C"/>
<path opacity="0.2" d="M137.966 141.056C140.444 143.921 143.805 145.882 147.521 146.632C151.237 147.382 155.097 146.878 158.495 145.199L160.522 144.198L137.966 141.056Z" fill="black"/>
<path d="M242.967 169.045C242.997 168.407 243.167 167.783 243.465 167.217C243.763 166.652 244.181 166.159 244.691 165.772C245.2 165.386 245.789 165.115 246.414 164.98C247.04 164.845 247.687 164.849 248.311 164.991L254.099 156.847L259.914 159.152L251.578 170.538C251.27 171.568 250.594 172.45 249.678 173.016C248.762 173.583 247.67 173.794 246.608 173.61C245.547 173.426 244.59 172.859 243.919 172.018C243.248 171.177 242.909 170.119 242.967 169.045H242.967Z" fill="#A0616A"/>
<path d="M249.317 162.041L259.608 144.761L255.415 133.599L261.126 118.396L261.336 118.486C261.474 118.545 264.719 119.99 265.2 125.167L271.763 145.758L254.248 168.441L249.317 162.041Z" fill="#3F3D56"/>
<path d="M193.423 98.5152C194.058 98.5947 194.668 98.8122 195.21 99.1524C195.751 99.4926 196.212 99.9472 196.558 100.484C196.905 101.021 197.129 101.628 197.216 102.26C197.302 102.893 197.249 103.538 197.059 104.148L204.744 110.539L201.993 116.149L191.267 106.971C190.261 106.585 189.433 105.843 188.938 104.888C188.443 103.933 188.317 102.829 188.583 101.787C188.849 100.745 189.488 99.8358 190.38 99.2328C191.273 98.6298 192.355 98.3745 193.423 98.5153L193.423 98.5152Z" fill="#FFB6B6"/>
<path d="M199.927 105.377L216.388 116.956L227.86 113.646L242.601 120.505L242.495 120.708C242.425 120.841 240.731 123.959 235.524 124.037L214.453 128.977L193.154 109.791L199.927 105.377Z" fill="#3F3D56"/>
<path d="M230.048 246.189L224.325 246.189L221.602 224.152L230.049 224.152L230.048 246.189Z" fill="#FFB6B6"/>
<path d="M218.508 244.556H231.274V251.494H213.288V249.768C213.288 248.386 213.838 247.06 214.817 246.083C215.796 245.105 217.124 244.556 218.508 244.556Z" fill="#2F2E41"/>
<path d="M252.92 246.189L247.197 246.189L244.475 224.152L252.921 224.152L252.92 246.189Z" fill="#FFB6B6"/>
<path d="M241.381 244.556H254.146V251.494H236.161V249.768C236.161 248.386 236.711 247.06 237.69 246.083C238.669 245.105 239.997 244.556 241.381 244.556Z" fill="#2F2E41"/>
<path d="M254.955 165.753L254.489 198.374L254.022 241.247L243.753 240.315L238.618 181.131L232.083 240.315H221.481L220.413 180.666L224.147 167.617L254.955 165.753Z" fill="#2F2E41"/>
<path d="M223.124 167.816L221.56 167.749L228.826 127.784L225.851 115.705C225.696 115.077 225.778 114.413 226.08 113.841C226.383 113.269 226.885 112.827 227.492 112.599L232.845 110.595L234.737 105.403L249.659 107.008L250.026 111.066C251.643 111.584 264.958 116.011 264.04 121.056C263.133 126.035 257.779 141.7 257.507 142.494L256.569 164.959L256.454 165.017C256.315 165.086 246.03 170.135 234.856 170.134C230.921 170.134 226.874 169.507 223.124 167.816Z" fill="#3F3D56"/>
<path d="M251.04 97.2521C253.886 92.0542 251.973 85.5371 246.766 82.6957C241.56 79.8543 235.032 81.7646 232.186 86.9625C229.339 92.1603 231.253 98.6774 236.459 101.519C241.666 104.36 248.194 102.45 251.04 97.2521Z" fill="#FFB6B6"/>
<path d="M250.315 102.49C248.268 104.668 244.465 103.499 244.199 100.524C244.178 100.293 244.179 100.061 244.203 99.8302C244.341 98.5125 245.103 97.3162 244.921 95.925C244.879 95.5787 244.75 95.2488 244.545 94.9663C242.914 92.7851 239.084 95.9419 237.544 93.9673C236.6 92.7565 237.709 90.8502 236.985 89.497C236.029 87.7109 233.196 88.592 231.42 87.6138C229.443 86.5255 229.561 83.4982 230.862 81.6569C232.449 79.4113 235.231 78.2131 237.978 78.0404C240.725 77.8677 243.453 78.6091 246.018 79.6069C248.932 80.7406 251.822 82.3075 253.615 84.8656C255.796 87.9764 256.006 92.1587 254.915 95.7963C254.252 98.0091 251.987 100.712 250.315 102.49Z" fill="#2F2E41"/>
<path d="M314.71 252.206H0.449064C0.351009 252.206 0.256969 252.168 0.187633 252.098C0.118298 252.029 0.0793457 251.935 0.0793457 251.837C0.0793457 251.739 0.118298 251.646 0.187633 251.576C0.256969 251.507 0.351009 251.468 0.449064 251.468H314.71C314.808 251.468 314.902 251.507 314.971 251.576C315.04 251.646 315.079 251.739 315.079 251.837C315.079 251.935 315.04 252.029 314.971 252.098C314.902 252.168 314.808 252.206 314.71 252.206Z" fill="#002231"/>
<path d="M172.371 145.182H166.613C166.428 145.183 166.25 145.114 166.113 144.99C165.976 144.866 165.891 144.696 165.873 144.512L164.721 132.719H174.263L173.11 144.512C173.093 144.696 173.007 144.866 172.871 144.99C172.734 145.114 172.555 145.183 172.371 145.182Z" fill="#1877F2"/>
<path d="M174.247 134.203H164.736C164.539 134.202 164.35 134.124 164.211 133.985C164.071 133.846 163.993 133.657 163.993 133.461V131.68C163.993 131.484 164.071 131.295 164.211 131.156C164.35 131.017 164.539 130.939 164.736 130.938H174.247C174.444 130.939 174.633 131.017 174.772 131.156C174.912 131.295 174.99 131.484 174.99 131.68V133.461C174.99 133.657 174.912 133.846 174.772 133.985C174.633 134.124 174.444 134.202 174.247 134.203Z" fill="#3F3D56"/>
<path d="M170.364 138.917C169.949 138.451 169.437 138.082 168.863 137.835C168.289 137.588 167.668 137.47 167.044 137.489C166.419 137.508 165.807 137.663 165.249 137.944C164.691 138.225 164.202 138.624 163.816 139.114L154.415 136.479L151.418 141.792L164.746 145.327C165.613 145.92 166.669 146.175 167.712 146.044C168.756 145.912 169.714 145.403 170.407 144.613C171.1 143.823 171.478 142.807 171.47 141.757C171.462 140.707 171.069 139.696 170.364 138.917Z" fill="#FBC1C1"/>
<path d="M155.08 136.035L150.617 133.197L149.345 132.599L143.596 129.893C143.766 129.31 144.254 127.568 144.716 125.361C145.796 120.197 146.717 112.487 143.001 111.136C142.474 110.937 141.918 110.825 141.356 110.803C140.603 110.776 139.855 110.947 139.189 111.298C136.405 112.749 135.3 116.831 135.259 116.982L131.817 126.413C131.499 126.848 128.227 131.374 128.756 134.725C128.822 135.206 128.988 135.669 129.242 136.083C129.497 136.497 129.835 136.854 130.235 137.132C132.617 138.836 135.115 140.374 137.71 141.734C138.313 142.044 138.902 142.331 139.478 142.594C142.701 144.063 145.544 144.813 147.933 144.813C148.714 144.819 149.492 144.728 150.251 144.543L159.527 144.333L159.586 144.067L159.609 143.964L160.84 138.279L161.187 136.67L155.08 136.035Z" fill="#9F0013"/>
</g>
<defs>
<linearGradient id="paint0_linear_298_441" x1="70.705" y1="230.949" x2="295.726" y2="-61.7035" gradientUnits="userSpaceOnUse">
<stop stop-color="#002231"/>
<stop offset="1" stop-color="#1877F2"/>
</linearGradient>
<clipPath id="clip0_298_441">
<rect width="315" height="245" fill="white" transform="translate(0.0793457 7.86093)"/>
</clipPath>
</defs>
</svg>
