<svg width="475" height="238" viewBox="0 0 475 238" fill="none" xmlns="http://www.w3.org/2000/svg">
<path d="M228.962 105.645H252.232C254.508 105.638 256.69 104.732 258.299 103.125C259.909 101.518 260.816 99.3402 260.824 97.0674C260.82 94.7923 259.914 92.6112 258.304 91.0012C256.694 89.3912 254.511 88.4833 252.232 88.4761H228.962C226.685 88.4833 224.504 89.3893 222.894 90.9964C221.284 92.6035 220.377 94.7811 220.37 97.0539C220.373 99.329 221.279 101.51 222.889 103.12C224.499 104.73 226.683 105.638 228.962 105.645Z" fill="url(#paint0_linear_298_442)"/>
<path d="M319.542 196.079H379.057C381.333 196.071 383.514 195.165 385.124 193.558C386.734 191.951 387.641 189.774 387.648 187.501C387.641 185.228 386.734 183.05 385.124 181.443C383.514 179.836 381.333 178.93 379.057 178.923H319.542C317.265 178.93 315.084 179.836 313.475 181.443C311.865 183.05 310.957 185.228 310.95 187.501C310.957 189.774 311.865 191.951 313.475 193.558C315.084 195.165 317.265 196.071 319.542 196.079Z" fill="url(#paint1_linear_298_442)"/>
<path d="M262.264 174.182H265.992C268.269 174.175 270.45 173.269 272.06 171.662C273.669 170.055 274.577 167.877 274.584 165.605C274.577 163.332 273.669 161.154 272.06 159.547C270.45 157.94 268.269 157.034 265.992 157.027H262.264C259.988 157.034 257.806 157.94 256.197 159.547C254.587 161.154 253.68 163.332 253.672 165.605C253.68 167.877 254.587 170.055 256.197 171.662C257.806 173.269 259.988 174.175 262.264 174.182Z" fill="url(#paint2_linear_298_442)"/>
<path d="M308.296 33.2132L390.211 33.247C390.948 33.2497 391.654 33.5432 392.175 34.0636C392.697 34.584 392.991 35.2891 392.993 36.025C392.991 36.761 392.697 37.466 392.175 37.9864C391.654 38.5068 390.948 38.8004 390.211 38.803L308.296 38.7692C307.559 38.7665 306.853 38.473 306.332 37.9526C305.811 37.4322 305.517 36.7271 305.514 35.9912C305.517 35.2552 305.811 34.5502 306.332 34.0298C306.853 33.5094 307.559 33.2158 308.296 33.2132Z" fill="url(#paint3_linear_298_442)"/>
<path d="M321.775 23.0383L368.679 23.0721C369.416 23.0748 370.122 23.3684 370.644 23.8888C371.165 24.4092 371.459 25.1142 371.461 25.8502C371.459 26.5862 371.165 27.2912 370.644 27.8116C370.122 28.332 369.416 28.6255 368.679 28.6282L321.775 28.5944C321.038 28.5917 320.332 28.2981 319.811 27.7777C319.29 27.2573 318.996 26.5523 318.993 25.8163C318.996 25.0804 319.29 24.3753 319.811 23.8549C320.332 23.3345 321.038 23.041 321.775 23.0383Z" fill="url(#paint4_linear_298_442)"/>
<path d="M446.201 137.396C449.571 134.032 449.571 128.577 446.201 125.213C442.832 121.849 437.368 121.849 433.998 125.213C430.628 128.577 430.628 134.032 433.998 137.396C437.368 140.761 442.832 140.761 446.201 137.396Z" fill="url(#paint5_linear_298_442)"/>
<path d="M228.962 105.645H252.232C254.508 105.638 256.69 104.732 258.299 103.125C259.909 101.518 260.816 99.3402 260.824 97.0674C260.82 94.7923 259.914 92.6112 258.304 91.0012C256.694 89.3912 254.511 88.4833 252.232 88.4761H228.962C226.685 88.4833 224.504 89.3893 222.894 90.9964C221.284 92.6035 220.377 94.7811 220.37 97.0539C220.373 99.329 221.279 101.51 222.889 103.12C224.499 104.73 226.683 105.638 228.962 105.645Z" fill="url(#paint6_linear_298_442)"/>
<path d="M319.542 196.079H379.057C381.333 196.071 383.514 195.165 385.124 193.558C386.734 191.951 387.641 189.774 387.648 187.501C387.641 185.228 386.734 183.05 385.124 181.443C383.514 179.836 381.333 178.93 379.057 178.923H319.542C317.265 178.93 315.084 179.836 313.475 181.443C311.865 183.05 310.957 185.228 310.95 187.501C310.957 189.774 311.865 191.951 313.475 193.558C315.084 195.165 317.265 196.071 319.542 196.079Z" fill="url(#paint7_linear_298_442)"/>
<path d="M262.264 174.182H265.992C268.269 174.175 270.45 173.269 272.06 171.662C273.669 170.055 274.577 167.877 274.584 165.605C274.577 163.332 273.669 161.154 272.06 159.547C270.45 157.94 268.269 157.034 265.992 157.027H262.264C259.988 157.034 257.806 157.94 256.197 159.547C254.587 161.154 253.68 163.332 253.672 165.605C253.68 167.877 254.587 170.055 256.197 171.662C257.806 173.269 259.988 174.175 262.264 174.182Z" fill="url(#paint8_linear_298_442)"/>
<path d="M440.449 174.247C442.726 174.24 444.907 173.334 446.516 171.727C448.126 170.119 449.034 167.942 449.041 165.669C449.034 163.396 448.126 161.219 446.516 159.612C444.907 158.004 442.726 157.098 440.449 157.091H402.829C400.552 157.084 398.371 156.178 396.761 154.571C395.152 152.964 394.244 150.786 394.237 148.514C394.244 146.241 395.152 144.063 396.761 142.456C398.371 140.849 400.552 139.943 402.829 139.936H419.331V139.909C421.561 139.837 423.677 138.904 425.232 137.306C426.787 135.707 427.661 133.569 427.668 131.341C427.661 129.144 426.812 127.033 425.295 125.442C423.778 123.851 421.708 122.9 419.51 122.784H396.464C394.275 122.777 392.171 121.938 390.58 120.437C388.988 118.937 388.028 116.888 387.896 114.707H288.334C288.201 116.888 287.242 118.937 285.65 120.437C284.059 121.938 281.955 122.777 279.766 122.784H258.536C256.29 122.835 254.154 123.759 252.581 125.36C251.009 126.961 250.124 129.112 250.117 131.355C250.124 133.627 251.032 135.805 252.641 137.412C254.251 139.019 256.432 139.925 258.709 139.932H293.323C295.599 139.939 297.78 140.843 299.39 142.449C301 144.055 301.909 146.231 301.918 148.503C301.911 150.776 301.003 152.954 299.394 154.561C297.784 156.168 295.603 157.074 293.326 157.081H288.022C285.746 157.088 283.565 157.994 281.955 159.601C280.345 161.208 279.438 163.386 279.43 165.659C279.438 167.932 280.345 170.109 281.955 171.716C283.565 173.323 285.746 174.229 288.022 174.237L440.449 174.247Z" fill="url(#paint9_linear_298_442)"/>
<path d="M31.9561 131.429H8.68225C3.9372 131.429 0.0905762 135.27 0.0905762 140.007V140.01C0.0905762 144.748 3.9372 148.588 8.68225 148.588H31.9561C36.7011 148.588 40.5477 144.748 40.5477 140.01V140.007C40.5477 135.27 36.7011 131.429 31.9561 131.429Z" fill="url(#paint10_linear_298_442)"/>
<path d="M158.777 221.879H99.2762C94.5312 221.879 90.6846 225.72 90.6846 230.457V230.461C90.6846 235.198 94.5312 239.038 99.2762 239.038H158.777C163.523 239.038 167.369 235.198 167.369 230.461V230.457C167.369 225.72 163.523 221.879 158.777 221.879Z" fill="url(#paint11_linear_298_442)"/>
<path d="M45.7231 199.966H41.9712C37.2262 199.966 33.3795 203.807 33.3795 208.544V208.548C33.3795 213.285 37.2262 217.125 41.9712 217.125H45.7231C50.4681 217.125 54.3148 213.285 54.3148 208.548V208.544C54.3148 203.807 50.4681 199.966 45.7231 199.966Z" fill="url(#paint12_linear_298_442)"/>
<path d="M88.0172 76.1594L169.931 76.1932C170.669 76.1959 171.375 76.4894 171.896 77.0098C172.417 77.5303 172.711 78.2353 172.714 78.9713C172.711 79.7072 172.417 80.4123 171.896 80.9327C171.375 81.4531 170.669 81.7466 169.931 81.7493L88.0172 81.7155C87.2801 81.7128 86.5739 81.4192 86.0526 80.8988C85.5314 80.3784 85.2373 79.6734 85.2347 78.9374C85.2373 78.2015 85.5314 77.4964 86.0526 76.976C86.5739 76.4556 87.2801 76.162 88.0172 76.1594Z" fill="url(#paint13_linear_298_442)"/>
<path d="M225.924 180.341C229.294 176.977 229.294 171.522 225.924 168.158C222.554 164.794 217.091 164.794 213.721 168.158C210.351 171.522 210.351 176.977 213.721 180.341C217.091 183.706 222.554 183.706 225.924 180.341Z" fill="url(#paint14_linear_298_442)"/>
<path d="M88.0172 76.1594L169.931 76.1932C170.669 76.1959 171.375 76.4894 171.896 77.0098C172.417 77.5303 172.711 78.2353 172.714 78.9713C172.711 79.7072 172.417 80.4123 171.896 80.9327C171.375 81.4531 170.669 81.7466 169.931 81.7493L88.0172 81.7155C87.2801 81.7128 86.5739 81.4192 86.0526 80.8988C85.5314 80.3784 85.2373 79.6734 85.2347 78.9374C85.2373 78.2015 85.5314 77.4964 86.0526 76.976C86.5739 76.4556 87.2801 76.162 88.0172 76.1594Z" fill="url(#paint15_linear_298_442)"/>
<path d="M225.924 180.341C229.294 176.977 229.294 171.522 225.924 168.158C222.554 164.794 217.091 164.794 213.721 168.158C210.351 171.522 210.351 176.977 213.721 180.341C217.091 183.706 222.554 183.706 225.924 180.341Z" fill="url(#paint16_linear_298_442)"/>
<path d="M363.334 159.284H174.188C165.387 159.284 156.947 162.774 150.724 168.987C144.501 175.201 141.004 183.627 141.004 192.414C141.004 201.201 144.501 209.627 150.724 215.84C156.947 222.054 165.387 225.544 174.188 225.544H363.334C372.135 225.544 380.576 222.054 386.799 215.84C393.022 209.627 396.518 201.201 396.518 192.414C396.518 183.627 393.022 175.201 386.799 168.987C380.576 162.774 372.135 159.284 363.334 159.284Z" fill="url(#paint17_linear_298_442)"/>
<path d="M122.499 174.937H96.192C90.5448 174.937 85.1289 177.177 81.1357 181.163C77.1426 185.15 74.8992 190.557 74.8992 196.195C74.8992 201.833 77.1426 207.24 81.1357 211.227C85.1289 215.214 90.5448 217.454 96.192 217.454H122.482C128.129 217.454 133.545 215.214 137.539 211.227C141.532 207.24 143.775 201.833 143.775 196.195C143.775 190.557 141.532 185.15 137.539 181.163C133.545 177.177 128.129 174.937 122.482 174.937H122.499Z" fill="url(#paint18_linear_298_442)"/>
<path d="M158.516 67.0504L99.3915 66.8C93.7443 66.8 88.3283 69.0397 84.3352 73.0264C80.342 77.0131 78.0986 82.4202 78.0986 88.0583C78.0986 93.6963 80.342 99.1034 84.3352 103.09C88.3283 107.077 93.7443 109.316 99.3915 109.316L158.516 109.567C164.164 109.567 169.58 107.327 173.573 103.34C177.566 99.3538 179.809 93.9467 179.809 88.3086C179.809 82.6706 177.566 77.2635 173.573 73.2768C169.58 69.2901 164.164 67.0504 158.516 67.0504Z" fill="url(#paint19_linear_298_442)"/>
<path d="M279.766 105.615C282.043 105.621 284.225 106.527 285.836 108.134C287.446 109.741 288.354 111.919 288.361 114.192C288.354 116.465 287.446 118.643 285.837 120.25C284.227 121.857 282.046 122.763 279.769 122.77H258.536C256.29 122.821 254.154 123.746 252.581 125.347C251.009 126.948 250.124 129.099 250.117 131.341C250.124 133.614 251.032 135.792 252.641 137.399C254.251 139.006 256.432 139.912 258.709 139.919H293.323C295.601 139.925 297.784 140.832 299.395 142.44C301.005 144.049 301.913 146.229 301.918 148.503C301.911 150.776 301.003 152.954 299.394 154.561C297.784 156.168 295.603 157.074 293.326 157.081H288.022C285.746 157.088 283.565 157.994 281.955 159.601C280.345 161.208 279.438 163.386 279.43 165.659C279.438 167.932 280.345 170.109 281.955 171.716C283.565 173.323 285.746 174.229 288.022 174.237L440.446 174.237C442.722 174.229 444.903 173.323 446.513 171.716C448.123 170.109 449.03 167.932 449.037 165.659C449.03 163.386 448.123 161.208 446.513 159.601C444.903 157.994 442.722 157.088 440.446 157.081H402.825C400.549 157.074 398.368 156.168 396.758 154.561C395.148 152.954 394.241 150.776 394.234 148.503C394.241 146.231 395.148 144.053 396.758 142.446C398.368 140.839 400.549 139.933 402.825 139.926H419.328V139.909C421.558 139.837 423.674 138.904 425.229 137.306C426.784 135.707 427.657 133.569 427.665 131.341C427.658 129.144 426.808 127.033 425.291 125.442C423.774 123.851 421.705 122.9 419.507 122.784H396.46C394.184 122.777 392.003 121.871 390.393 120.263C388.783 118.656 387.876 116.479 387.869 114.206C387.876 111.933 388.783 109.756 390.393 108.148C392.003 106.541 394.184 105.635 396.46 105.628H465.492C467.772 105.623 469.957 104.716 471.569 103.106C473.18 101.495 474.087 99.3132 474.091 97.0369C474.083 94.7642 473.176 92.5866 471.566 90.9795C469.957 89.3724 467.775 88.4663 465.499 88.4592H408.262C405.985 88.452 403.804 87.546 402.194 85.9389C400.585 84.3319 399.677 82.1542 399.67 79.8815C399.677 77.6087 400.585 75.4311 402.194 73.824C403.804 72.2169 405.985 71.3109 408.262 71.3037H413.562C415.839 71.2966 418.02 70.3906 419.63 68.7835C421.24 67.1764 422.147 64.9988 422.154 62.726C422.147 60.4544 421.24 58.2778 419.632 56.6709C418.024 55.0639 415.844 54.1572 413.569 54.1483H393.417C392.679 54.1483 391.971 53.8556 391.449 53.3346C390.927 52.8136 390.634 52.107 390.634 51.3702C390.634 50.6334 390.927 49.9268 391.449 49.4058C391.971 48.8849 392.679 48.5922 393.417 48.5922H400.768C401.506 48.5922 402.214 48.2995 402.736 47.7785C403.257 47.2575 403.551 46.5509 403.551 45.8141C403.551 45.0774 403.257 44.3707 402.736 43.8498C402.214 43.3288 401.506 43.0361 400.768 43.0361H292.354C291.616 43.0388 290.91 43.3323 290.389 43.8527C289.868 44.3731 289.574 45.0782 289.571 45.8141C289.573 46.5209 289.844 47.2004 290.329 47.715C290.815 48.2296 291.478 48.5407 292.184 48.5854H301.43C302.168 48.5854 302.876 48.8781 303.397 49.3991C303.919 49.92 304.212 50.6266 304.212 51.3634C304.212 52.1002 303.919 52.8068 303.397 53.3278C302.876 53.8488 302.168 54.1415 301.43 54.1415H261.129C258.852 54.1486 256.671 55.0546 255.061 56.6617C253.452 58.2688 252.544 60.4465 252.537 62.7192C252.544 64.992 253.452 67.1696 255.061 68.7767C256.671 70.3838 258.852 71.2898 261.129 71.2969H277.99C280.267 71.3041 282.448 72.2101 284.057 73.8172C285.667 75.4243 286.575 77.6019 286.582 79.8747C286.575 82.1474 285.667 84.3251 284.057 85.9322C282.448 87.5393 280.267 88.4453 277.99 88.4524H275.089V88.4727C272.858 88.5438 270.742 89.4767 269.187 91.075C267.631 92.6733 266.758 94.812 266.751 97.0403C266.759 99.3125 267.666 101.49 269.275 103.097C270.883 104.704 273.064 105.61 275.34 105.618L279.766 105.615Z" fill="url(#paint20_linear_298_442)"/>
<path d="M308.296 33.2132L390.211 33.247C390.948 33.2497 391.654 33.5432 392.175 34.0636C392.697 34.584 392.991 35.2891 392.993 36.025C392.991 36.761 392.697 37.466 392.175 37.9864C391.654 38.5068 390.948 38.8004 390.211 38.803L308.296 38.7692C307.559 38.7665 306.853 38.473 306.332 37.9526C305.811 37.4322 305.517 36.7271 305.514 35.9912C305.517 35.2552 305.811 34.5502 306.332 34.0298C306.853 33.5094 307.559 33.2158 308.296 33.2132Z" fill="url(#paint21_linear_298_442)"/>
<path d="M321.775 23.0383L368.679 23.0721C369.416 23.0748 370.122 23.3684 370.644 23.8888C371.165 24.4092 371.459 25.1142 371.461 25.8502C371.459 26.5862 371.165 27.2912 370.644 27.8116C370.122 28.332 369.416 28.6255 368.679 28.6282L321.775 28.5944C321.038 28.5917 320.332 28.2981 319.811 27.7777C319.29 27.2573 318.996 26.5523 318.993 25.8163C318.996 25.0804 319.29 24.3753 319.811 23.8549C320.332 23.3345 321.038 23.041 321.775 23.0383Z" fill="url(#paint22_linear_298_442)"/>
<path d="M446.201 137.396C449.571 134.032 449.571 128.577 446.201 125.213C442.832 121.849 437.368 121.849 433.998 125.213C430.628 128.577 430.628 134.032 433.998 137.396C437.368 140.761 442.832 140.761 446.201 137.396Z" fill="url(#paint23_linear_298_442)"/>
<path d="M59.4867 148.561C61.7632 148.568 63.9444 149.474 65.5541 151.081C67.1638 152.688 68.0713 154.866 68.0784 157.139C68.0713 159.411 67.1638 161.589 65.5541 163.196C63.9444 164.803 61.7632 165.709 59.4867 165.716H38.2363C35.9908 165.768 33.8542 166.692 32.2816 168.293C30.709 169.894 29.8248 172.045 29.8175 174.287C29.8201 176.565 30.727 178.748 32.3394 180.359C33.9518 181.97 36.1381 182.878 38.4193 182.882H73.0335C75.3099 182.889 77.4911 183.795 79.1008 185.402C80.7105 187.009 81.618 189.187 81.6252 191.46C81.618 193.733 80.7105 195.91 79.1008 197.517C77.4911 199.124 75.3099 200.03 73.0335 200.037H67.7497C65.4755 200.044 63.296 200.947 61.6861 202.551C60.0761 204.154 59.1662 206.328 59.1546 208.598C59.1617 210.871 60.0692 213.049 61.6789 214.656C63.2886 216.263 65.4698 217.169 67.7463 217.176H220.17C222.446 217.169 224.628 216.263 226.237 214.656C227.847 213.049 228.754 210.871 228.762 208.598C228.754 206.326 227.847 204.148 226.237 202.541C224.628 200.934 222.446 200.028 220.17 200.021H182.549C180.273 200.013 178.092 199.107 176.482 197.5C174.872 195.893 173.965 193.716 173.958 191.443C173.969 189.172 174.88 186.998 176.49 185.394C178.101 183.79 180.282 182.887 182.556 182.882H199.058V182.862C201.289 182.791 203.405 181.858 204.961 180.259C206.516 178.661 207.389 176.522 207.396 174.294C207.392 172.093 206.542 169.977 205.022 168.382C203.502 166.787 201.427 165.836 199.224 165.723H176.178C173.901 165.716 171.72 164.81 170.11 163.203C168.501 161.596 167.593 159.418 167.586 157.145C167.591 154.871 168.498 152.692 170.108 151.084C171.718 149.475 173.9 148.568 176.178 148.561H245.209C247.486 148.554 249.667 147.648 251.277 146.041C252.887 144.434 253.794 142.256 253.801 139.983C253.794 137.71 252.887 135.533 251.277 133.926C249.667 132.319 247.486 131.413 245.209 131.405H187.982C185.706 131.398 183.525 130.492 181.915 128.885C180.305 127.278 179.398 125.1 179.391 122.828C179.398 120.555 180.305 118.377 181.915 116.77C183.525 115.163 185.706 114.257 187.982 114.25H193.283C195.56 114.243 197.741 113.337 199.35 111.73C200.96 110.123 201.868 107.945 201.875 105.672C201.868 103.401 200.961 101.224 199.353 99.6171C197.745 98.0102 195.565 97.1034 193.29 97.0945H173.127C172.389 97.0945 171.682 96.8018 171.16 96.2808C170.638 95.7598 170.345 95.0532 170.345 94.3164C170.345 93.5797 170.638 92.8731 171.16 92.3521C171.682 91.8311 172.389 91.5384 173.127 91.5384H180.479C181.217 91.5384 181.924 91.2457 182.446 90.7247C182.968 90.2038 183.261 89.4971 183.261 88.7604C183.261 88.0236 182.968 87.317 182.446 86.796C181.924 86.275 181.217 85.9823 180.479 85.9823H72.0641C71.327 85.985 70.6208 86.2785 70.0995 86.7989C69.5783 87.3193 69.2843 88.0244 69.2816 88.7604C69.2836 89.4671 69.5547 90.1466 70.0399 90.6612C70.5252 91.1758 71.1882 91.487 71.8947 91.5316H81.1405C81.8785 91.5316 82.5862 91.8243 83.108 92.3453C83.6299 92.8663 83.923 93.5729 83.923 94.3097C83.923 95.0464 83.6299 95.753 83.108 96.274C82.5862 96.795 81.8785 97.0877 81.1405 97.0877H40.846C38.5695 97.0948 36.3884 98.0009 34.7787 99.608C33.1689 101.215 32.2615 103.393 32.2543 105.665C32.2615 107.938 33.1689 110.116 34.7787 111.723C36.3884 113.33 38.5695 114.236 40.846 114.243H57.7074C59.9838 114.25 62.165 115.156 63.7747 116.763C65.3844 118.371 66.2919 120.548 66.2991 122.821C66.2919 125.094 65.3844 127.271 63.7747 128.878C62.165 130.486 59.9838 131.392 57.7074 131.399H54.8062V131.419C52.5756 131.491 50.46 132.424 48.9048 134.022C47.3497 135.62 46.4763 137.758 46.4687 139.987C46.4758 142.259 47.3829 144.436 48.9919 146.043C50.6008 147.65 52.7811 148.556 55.057 148.564L59.4867 148.561Z" fill="url(#paint24_linear_298_442)"/>
<path d="M31.9561 131.429H8.68225C3.9372 131.429 0.0905762 135.27 0.0905762 140.007V140.01C0.0905762 144.748 3.9372 148.588 8.68225 148.588H31.9561C36.7011 148.588 40.5477 144.748 40.5477 140.01V140.007C40.5477 135.27 36.7011 131.429 31.9561 131.429Z" fill="url(#paint25_linear_298_442)"/>
<path d="M158.777 221.879H99.2762C94.5312 221.879 90.6846 225.72 90.6846 230.457V230.461C90.6846 235.198 94.5312 239.038 99.2762 239.038H158.777C163.523 239.038 167.369 235.198 167.369 230.461V230.457C167.369 225.72 163.523 221.879 158.777 221.879Z" fill="url(#paint26_linear_298_442)"/>
<path d="M45.7231 199.966H41.9712C37.2262 199.966 33.3795 203.807 33.3795 208.544V208.548C33.3795 213.285 37.2262 217.125 41.9712 217.125H45.7231C50.4681 217.125 54.3148 213.285 54.3148 208.548V208.544C54.3148 203.807 50.4681 199.966 45.7231 199.966Z" fill="url(#paint27_linear_298_442)"/>
<path d="M220.17 217.19C222.446 217.182 224.628 216.276 226.237 214.669C227.847 213.062 228.754 210.885 228.762 208.612C228.754 206.339 227.847 204.161 226.237 202.554C224.628 200.947 222.446 200.041 220.17 200.034H182.549C180.273 200.027 178.092 199.121 176.482 197.514C174.872 195.907 173.965 193.729 173.958 191.456C173.966 189.183 174.875 187.005 176.486 185.399C178.097 183.792 180.279 182.887 182.556 182.882H199.058V182.862C201.289 182.791 203.405 181.858 204.961 180.259C206.516 178.661 207.389 176.522 207.396 174.294C207.392 172.093 206.542 169.977 205.022 168.382C203.502 166.787 201.427 165.836 199.224 165.723H176.178C173.989 165.716 171.885 164.877 170.293 163.377C168.702 161.876 167.742 159.827 167.61 157.646H68.0615C67.9288 159.827 66.9692 161.876 65.3778 163.377C63.7863 164.877 61.6823 165.716 59.4935 165.723H38.2363C35.9908 165.774 33.8542 166.699 32.2816 168.3C30.709 169.901 29.8248 172.052 29.8175 174.294C29.8219 176.57 30.7296 178.752 32.3418 180.362C33.954 181.971 36.1393 182.878 38.4193 182.882H73.0335C75.3099 182.889 77.4911 183.795 79.1008 185.402C80.7105 187.009 81.618 189.187 81.6252 191.46C81.618 193.733 80.7105 195.91 79.1008 197.517C77.4911 199.124 75.3099 200.03 73.0335 200.037H67.7497C65.4755 200.044 63.296 200.947 61.6861 202.551C60.0761 204.154 59.1662 206.328 59.1546 208.598C59.1617 210.871 60.0692 213.049 61.6789 214.656C63.2886 216.263 65.4698 217.169 67.7463 217.176L220.17 217.19Z" fill="url(#paint28_linear_298_442)"/>
<path d="M377.399 66.8H225.599C221.589 66.8 217.618 67.5886 213.913 69.1208C210.208 70.6531 206.841 72.8989 204.005 75.73C201.17 78.5612 198.92 81.9223 197.385 85.6214C195.851 89.3205 195.061 93.2852 195.061 97.2891C195.061 101.293 195.851 105.258 197.385 108.957C198.92 112.656 201.17 116.017 204.005 118.848C206.841 121.679 210.208 123.925 213.913 125.457C217.618 126.989 221.589 127.778 225.599 127.778H377.399C385.499 127.778 393.266 124.566 398.993 118.848C404.721 113.13 407.938 105.375 407.938 97.2891C407.938 89.2029 404.721 81.4479 398.993 75.73C393.266 70.0122 385.499 66.8 377.399 66.8Z" fill="url(#paint29_linear_298_442)"/>
<path d="M283.07 35.69H174.954C166.689 35.69 158.762 38.968 152.918 44.8029C147.074 50.6378 143.79 58.5516 143.79 66.8034C143.79 75.0551 147.074 82.969 152.918 88.8038C158.762 94.6387 166.689 97.9167 174.954 97.9167H283.07C291.336 97.9167 299.262 94.6387 305.107 88.8038C310.951 82.969 314.234 75.0551 314.234 66.8034C314.234 58.5516 310.951 50.6378 305.107 44.8029C299.262 38.968 291.336 35.69 283.07 35.69Z" fill="url(#paint30_linear_298_442)"/>
<path d="M289.378 78.6633H145.383C109.82 78.6633 80.988 107.449 80.988 142.954C80.988 178.459 109.82 207.245 145.383 207.245H289.378C324.941 207.245 353.773 178.459 353.773 142.954C353.773 107.449 324.944 78.6633 289.378 78.6633Z" fill="url(#paint31_linear_298_442)"/>
<g clip-path="url(#clip0_298_442)">
<path d="M167.241 134.823L166.113 127.93L162.93 127.135C162.93 127.135 160.404 126.357 159.813 131.443C159.223 136.529 159.681 146.024 159.681 146.024L152.692 168.143C152.155 168.398 151.703 168.802 151.391 169.307C151.078 169.812 150.917 170.396 150.928 170.99C150.939 171.584 151.121 172.162 151.452 172.655C151.783 173.148 152.249 173.535 152.794 173.77C153.34 174.006 153.942 174.079 154.528 173.981C155.114 173.883 155.659 173.619 156.099 173.219C156.538 172.819 156.853 172.302 157.006 171.728C157.159 171.154 157.143 170.548 156.96 169.983L166.047 149.206L167.241 134.823Z" fill="#FFB7B7"/>
<path d="M188.026 128.912L184.832 122.701L186.918 120.169C186.918 120.169 188.487 118.042 191.987 121.78C195.487 125.518 200.768 133.423 200.768 133.423L219.545 147.051C220.128 146.937 220.731 146.993 221.283 147.213C221.835 147.433 222.312 147.807 222.656 148.291C223.001 148.775 223.198 149.348 223.226 149.941C223.253 150.534 223.108 151.123 222.81 151.636C222.511 152.149 222.07 152.566 221.541 152.835C221.012 153.105 220.416 153.217 219.825 153.157C219.234 153.097 218.672 152.868 218.208 152.497C217.744 152.127 217.397 151.63 217.207 151.067L197.541 139.766L188.026 128.912Z" fill="#FFB7B7"/>
<path d="M199.661 230.931L203.452 230.931L205.256 216.318L199.66 216.318L199.661 230.931Z" fill="#FFB7B7"/>
<path d="M198.694 229.694L206.16 229.694H206.16C207.422 229.694 208.632 230.195 209.524 231.087C210.416 231.979 210.917 233.188 210.918 234.449V234.604L198.694 234.604L198.694 229.694Z" fill="#DEDFEE"/>
<path d="M152.043 230.931L155.834 230.931L157.637 216.318L152.042 216.318L152.043 230.931Z" fill="#FFB7B7"/>
<path d="M151.076 229.694L158.541 229.694H158.542C159.804 229.694 161.014 230.195 161.906 231.087C162.798 231.979 163.299 233.188 163.299 234.449V234.604L151.076 234.604L151.076 229.694Z" fill="#DEDFEE"/>
<path d="M175.293 116.41C180.955 116.41 185.546 111.823 185.546 106.163C185.546 100.504 180.955 95.916 175.293 95.916C169.63 95.916 165.04 100.504 165.04 106.163C165.04 111.823 169.63 116.41 175.293 116.41Z" fill="#E5E5E5"/>
<path d="M183.253 112.781C185.558 108.566 184.008 103.282 179.792 100.979C175.575 98.6747 170.288 100.224 167.983 104.438C165.678 108.652 167.227 113.937 171.444 116.24C175.661 118.544 180.948 116.995 183.253 112.781Z" fill="#FFB7B7"/>
<path d="M166.474 103.139C168.463 104.509 170.823 105.238 173.238 105.228C172.376 105.825 171.396 106.229 170.363 106.41C173.574 107.099 176.893 107.117 180.111 106.465C180.827 106.35 181.517 106.113 182.152 105.765C182.468 105.588 182.744 105.347 182.961 105.057C183.178 104.767 183.331 104.434 183.411 104.081C183.625 102.86 182.673 101.751 181.684 101.003C180.169 99.8756 178.422 99.099 176.571 98.7291C174.719 98.3593 172.808 98.4055 170.976 98.8643C169.78 99.1733 168.581 99.6955 167.804 100.656C167.027 101.616 166.797 103.096 167.538 104.084L166.474 103.139Z" fill="#E5E5E5"/>
<path d="M171.257 119.919L162.644 126.948L170.169 144.881L170.313 147.75C170.313 147.75 162.501 154.949 157.668 175.058C152.834 195.167 143.072 221.887 143.072 221.887L162.602 226.662L176.181 181.173L193.49 216.86L195.953 227.416L211.049 223.227L205.223 194.901L190.933 150.931L192.106 138.784C192.106 138.784 194.721 132.721 190.178 126.302L188.753 120.271L181.377 119.014L171.257 119.919Z" fill="#DEDFEE"/>
<path d="M369.42 150.738H270.816C270.028 150.737 269.273 150.424 268.717 149.867C268.16 149.311 267.847 148.556 267.846 147.769V114.524C267.847 113.737 268.16 112.983 268.717 112.426C269.273 111.87 270.028 111.557 270.816 111.556H369.42C370.207 111.557 370.962 111.87 371.519 112.426C372.076 112.983 372.389 113.737 372.39 114.524V147.769C372.389 148.556 372.076 149.311 371.519 149.867C370.962 150.424 370.207 150.737 369.42 150.738Z" fill="#E5E5E5"/>
<path d="M309.426 120.461H283.29V123.429H309.426V120.461Z" fill="white"/>
<path d="M343.878 124.023C344.862 124.023 345.66 123.225 345.66 122.242C345.66 121.258 344.862 120.461 343.878 120.461C342.894 120.461 342.096 121.258 342.096 122.242C342.096 123.225 342.894 124.023 343.878 124.023Z" fill="#1877F2"/>
<path d="M349.818 124.023C350.802 124.023 351.6 123.225 351.6 122.242C351.6 121.258 350.802 120.461 349.818 120.461C348.833 120.461 348.036 121.258 348.036 122.242C348.036 123.225 348.833 124.023 349.818 124.023Z" fill="#1877F2"/>
<path d="M355.758 124.023C356.742 124.023 357.54 123.225 357.54 122.242C357.54 121.258 356.742 120.461 355.758 120.461C354.773 120.461 353.976 121.258 353.976 122.242C353.976 123.225 354.773 124.023 355.758 124.023Z" fill="#1877F2"/>
<path d="M369.42 108.588H270.816C270.028 108.587 269.273 108.274 268.717 107.717C268.16 107.161 267.847 106.406 267.846 105.619V72.3739C267.847 71.5869 268.16 70.8324 268.717 70.276C269.273 69.7195 270.028 69.4064 270.816 69.4055H369.42C370.207 69.4064 370.962 69.7195 371.519 70.2759C372.076 70.8324 372.389 71.5869 372.39 72.3739V105.619C372.389 106.406 372.076 107.161 371.519 107.717C370.962 108.274 370.207 108.587 369.42 108.588Z" fill="#E5E5E5"/>
<path d="M309.426 78.3105H283.29V81.2788H309.426V78.3105Z" fill="white"/>
<path d="M343.878 81.8725C344.862 81.8725 345.66 81.0751 345.66 80.0915C345.66 79.1079 344.862 78.3105 343.878 78.3105C342.894 78.3105 342.096 79.1079 342.096 80.0915C342.096 81.0751 342.894 81.8725 343.878 81.8725Z" fill="#1877F2"/>
<path d="M349.818 81.8725C350.802 81.8725 351.6 81.0751 351.6 80.0915C351.6 79.1079 350.802 78.3105 349.818 78.3105C348.833 78.3105 348.036 79.1079 348.036 80.0915C348.036 81.0751 348.833 81.8725 349.818 81.8725Z" fill="#1877F2"/>
<path d="M355.758 81.8725C356.742 81.8725 357.54 81.0751 357.54 80.0915C357.54 79.1079 356.742 78.3105 355.758 78.3105C354.773 78.3105 353.976 79.1079 353.976 80.0915C353.976 81.0751 354.773 81.8725 355.758 81.8725Z" fill="#1877F2"/>
<path d="M369.42 66.4374H270.816C270.028 66.4365 269.273 66.1234 268.717 65.567C268.16 65.0105 267.847 64.256 267.846 63.469V30.2237C267.847 29.4367 268.16 28.6823 268.717 28.1258C269.273 27.5693 270.028 27.2563 270.816 27.2554H369.42C370.207 27.2563 370.962 27.5693 371.519 28.1258C372.076 28.6823 372.389 29.4367 372.39 30.2237V63.469C372.389 64.256 372.076 65.0105 371.519 65.567C370.962 66.1234 370.207 66.4365 369.42 66.4374Z" fill="#E5E5E5"/>
<path d="M309.426 36.1603H283.29V39.1287H309.426V36.1603Z" fill="white"/>
<path d="M343.878 39.7223C344.862 39.7223 345.66 38.9249 345.66 37.9413C345.66 36.9577 344.862 36.1603 343.878 36.1603C342.894 36.1603 342.096 36.9577 342.096 37.9413C342.096 38.9249 342.894 39.7223 343.878 39.7223Z" fill="#1877F2"/>
<path d="M349.818 39.7223C350.802 39.7223 351.6 38.9249 351.6 37.9413C351.6 36.9577 350.802 36.1603 349.818 36.1603C348.833 36.1603 348.036 36.9577 348.036 37.9413C348.036 38.9249 348.833 39.7223 349.818 39.7223Z" fill="#1877F2"/>
<path d="M355.758 39.7223C356.742 39.7223 357.54 38.9249 357.54 37.9413C357.54 36.9577 356.742 36.1603 355.758 36.1603C354.773 36.1603 353.976 36.9577 353.976 37.9413C353.976 38.9249 354.773 39.7223 355.758 39.7223Z" fill="#1877F2"/>
<path d="M369.42 192.888H270.816C270.028 192.887 269.273 192.574 268.717 192.018C268.16 191.461 267.847 190.707 267.846 189.92V156.674C267.847 155.887 268.16 155.133 268.717 154.576C269.273 154.02 270.028 153.707 270.816 153.706H369.42C370.207 153.707 370.962 154.02 371.519 154.576C372.076 155.133 372.389 155.887 372.39 156.674V189.92C372.389 190.707 372.076 191.461 371.519 192.018C370.962 192.574 370.207 192.887 369.42 192.888Z" fill="#E5E5E5"/>
<path d="M309.426 162.611H283.29V165.579H309.426V162.611Z" fill="white"/>
<path d="M343.878 166.173C344.862 166.173 345.66 165.376 345.66 164.392C345.66 163.408 344.862 162.611 343.878 162.611C342.894 162.611 342.096 163.408 342.096 164.392C342.096 165.376 342.894 166.173 343.878 166.173Z" fill="#1877F2"/>
<path d="M349.818 166.173C350.802 166.173 351.6 165.376 351.6 164.392C351.6 163.408 350.802 162.611 349.818 162.611C348.833 162.611 348.036 163.408 348.036 164.392C348.036 165.376 348.833 166.173 349.818 166.173Z" fill="#1877F2"/>
<path d="M355.758 166.173C356.742 166.173 357.54 165.376 357.54 164.392C357.54 163.408 356.742 162.611 355.758 162.611C354.773 162.611 353.976 163.408 353.976 164.392C353.976 165.376 354.773 166.173 355.758 166.173Z" fill="#1877F2"/>
<path d="M369.42 235.038H270.816C270.028 235.037 269.273 234.724 268.717 234.168C268.16 233.611 267.847 232.857 267.846 232.07V198.825C267.847 198.038 268.16 197.283 268.717 196.727C269.273 196.17 270.028 195.857 270.816 195.856H369.42C370.207 195.857 370.962 196.17 371.519 196.727C372.076 197.283 372.389 198.038 372.39 198.825V232.07C372.389 232.857 372.076 233.611 371.519 234.168C370.962 234.724 370.207 235.037 369.42 235.038Z" fill="#E5E5E5"/>
<path d="M309.426 204.761H283.29V207.73H309.426V204.761Z" fill="white"/>
<path d="M343.878 208.323C344.862 208.323 345.66 207.526 345.66 206.542C345.66 205.559 344.862 204.761 343.878 204.761C342.894 204.761 342.096 205.559 342.096 206.542C342.096 207.526 342.894 208.323 343.878 208.323Z" fill="#1877F2"/>
<path d="M349.818 208.323C350.802 208.323 351.6 207.526 351.6 206.542C351.6 205.559 350.802 204.761 349.818 204.761C348.833 204.761 348.036 205.559 348.036 206.542C348.036 207.526 348.833 208.323 349.818 208.323Z" fill="#1877F2"/>
<path d="M355.758 208.323C356.742 208.323 357.54 207.526 357.54 206.542C357.54 205.559 356.742 204.761 355.758 204.761C354.773 204.761 353.976 205.559 353.976 206.542C353.976 207.526 354.773 208.323 355.758 208.323Z" fill="#1877F2"/>
<path d="M251.095 163.355C249.217 163.348 247.347 163.107 245.53 162.635L245.171 162.536L244.839 162.37C232.823 156.348 222.685 148.395 214.708 138.73C208.105 130.683 202.956 121.547 199.495 111.731C195.355 99.9797 193.363 87.58 193.615 75.1241C193.62 74.8626 193.624 74.6607 193.624 74.5217C193.624 68.4667 196.987 63.154 202.191 60.9867C206.175 59.328 242.34 44.4818 244.953 43.4091C249.874 40.9448 255.124 43.0017 255.964 43.3614C257.848 44.1314 291.281 57.798 298.506 61.2363C305.951 64.78 307.938 71.146 307.938 74.3488C307.938 88.8491 305.425 102.401 300.47 114.627C296.467 124.524 290.795 133.66 283.7 141.639C270.01 157.036 256.316 162.494 256.184 162.543C254.548 163.105 252.826 163.38 251.095 163.355ZM247.875 155.382C249.062 155.648 251.796 156.047 253.577 155.398C255.84 154.573 267.301 148.633 278.012 136.587C292.809 119.944 300.318 99.0219 300.329 74.4023C300.302 73.9036 299.948 70.3461 295.234 68.1028C288.149 64.731 253.399 50.5297 253.049 50.3865L252.953 50.3459C252.225 50.0408 249.907 49.3984 248.31 50.2351L247.99 50.3842C247.602 50.5432 209.212 66.3018 205.118 68.0068C202.254 69.1995 201.234 72.1542 201.234 74.5217C201.234 74.6947 201.229 74.9464 201.223 75.2716C200.896 92.1173 204.796 133.569 247.875 155.382Z" fill="#3F3D56"/>
<path d="M246.544 46.8667C246.544 46.8667 207.806 62.7683 203.655 64.4968C199.504 66.2252 197.429 70.3734 197.429 74.5217C197.429 78.6699 194.316 132.799 246.544 158.97C246.544 158.97 251.284 160.281 254.881 158.97C258.477 157.659 304.133 135.535 304.133 74.3488C304.133 74.3488 304.133 68.1265 296.87 64.6696C289.606 61.2127 254.489 46.8667 254.489 46.8667C254.489 46.8667 250.176 44.9654 246.544 46.8667Z" fill="#1877F2"/>
<path opacity="0.2" d="M250.695 59.3114V144.141C250.695 144.141 289.779 125.338 289.434 75.9044L250.695 59.3114Z" fill="black"/>
<path d="M419.656 235.038H61.5252C61.4099 235.038 61.2994 234.993 61.2179 234.911C61.1364 234.83 61.0906 234.719 61.0906 234.604C61.0906 234.489 61.1364 234.378 61.2179 234.297C61.2994 234.215 61.4099 234.17 61.5252 234.17H419.656C419.771 234.17 419.882 234.215 419.963 234.297C420.045 234.378 420.091 234.489 420.091 234.604C420.091 234.719 420.045 234.83 419.963 234.911C419.882 234.993 419.771 235.038 419.656 235.038Z" fill="#002231"/>
</g>
<defs>
<linearGradient id="paint0_linear_298_442" x1="26.0141" y1="107.284" x2="322.639" y2="-81.9952" gradientUnits="userSpaceOnUse">
<stop stop-color="#002231"/>
<stop offset="0.783898" stop-color="#1877F2"/>
</linearGradient>
<linearGradient id="paint1_linear_298_442" x1="26.0141" y1="107.284" x2="322.639" y2="-81.9952" gradientUnits="userSpaceOnUse">
<stop stop-color="#002231"/>
<stop offset="0.783898" stop-color="#1877F2"/>
</linearGradient>
<linearGradient id="paint2_linear_298_442" x1="26.0141" y1="107.284" x2="322.639" y2="-81.9952" gradientUnits="userSpaceOnUse">
<stop stop-color="#002231"/>
<stop offset="0.783898" stop-color="#1877F2"/>
</linearGradient>
<linearGradient id="paint3_linear_298_442" x1="26.0141" y1="107.284" x2="322.639" y2="-81.9952" gradientUnits="userSpaceOnUse">
<stop stop-color="#002231"/>
<stop offset="0.783898" stop-color="#1877F2"/>
</linearGradient>
<linearGradient id="paint4_linear_298_442" x1="26.0141" y1="107.284" x2="322.639" y2="-81.9952" gradientUnits="userSpaceOnUse">
<stop stop-color="#002231"/>
<stop offset="0.783898" stop-color="#1877F2"/>
</linearGradient>
<linearGradient id="paint5_linear_298_442" x1="26.0141" y1="107.284" x2="322.639" y2="-81.9952" gradientUnits="userSpaceOnUse">
<stop stop-color="#002231"/>
<stop offset="0.783898" stop-color="#1877F2"/>
</linearGradient>
<linearGradient id="paint6_linear_298_442" x1="26.0141" y1="107.284" x2="322.639" y2="-81.9952" gradientUnits="userSpaceOnUse">
<stop stop-color="#002231"/>
<stop offset="0.783898" stop-color="#1877F2"/>
</linearGradient>
<linearGradient id="paint7_linear_298_442" x1="26.0141" y1="107.284" x2="322.639" y2="-81.9952" gradientUnits="userSpaceOnUse">
<stop stop-color="#002231"/>
<stop offset="0.783898" stop-color="#1877F2"/>
</linearGradient>
<linearGradient id="paint8_linear_298_442" x1="26.0141" y1="107.284" x2="322.639" y2="-81.9952" gradientUnits="userSpaceOnUse">
<stop stop-color="#002231"/>
<stop offset="0.783898" stop-color="#1877F2"/>
</linearGradient>
<linearGradient id="paint9_linear_298_442" x1="26.0141" y1="107.284" x2="322.639" y2="-81.9952" gradientUnits="userSpaceOnUse">
<stop stop-color="#002231"/>
<stop offset="0.783898" stop-color="#1877F2"/>
</linearGradient>
<linearGradient id="paint10_linear_298_442" x1="26.0141" y1="107.284" x2="322.639" y2="-81.9952" gradientUnits="userSpaceOnUse">
<stop stop-color="#002231"/>
<stop offset="0.783898" stop-color="#1877F2"/>
</linearGradient>
<linearGradient id="paint11_linear_298_442" x1="26.0141" y1="107.284" x2="322.639" y2="-81.9952" gradientUnits="userSpaceOnUse">
<stop stop-color="#002231"/>
<stop offset="0.783898" stop-color="#1877F2"/>
</linearGradient>
<linearGradient id="paint12_linear_298_442" x1="26.0141" y1="107.284" x2="322.639" y2="-81.9952" gradientUnits="userSpaceOnUse">
<stop stop-color="#002231"/>
<stop offset="0.783898" stop-color="#1877F2"/>
</linearGradient>
<linearGradient id="paint13_linear_298_442" x1="26.0141" y1="107.284" x2="322.639" y2="-81.9952" gradientUnits="userSpaceOnUse">
<stop stop-color="#002231"/>
<stop offset="0.783898" stop-color="#1877F2"/>
</linearGradient>
<linearGradient id="paint14_linear_298_442" x1="26.0141" y1="107.284" x2="322.639" y2="-81.9952" gradientUnits="userSpaceOnUse">
<stop stop-color="#002231"/>
<stop offset="0.783898" stop-color="#1877F2"/>
</linearGradient>
<linearGradient id="paint15_linear_298_442" x1="26.0141" y1="107.284" x2="322.639" y2="-81.9952" gradientUnits="userSpaceOnUse">
<stop stop-color="#002231"/>
<stop offset="0.783898" stop-color="#1877F2"/>
</linearGradient>
<linearGradient id="paint16_linear_298_442" x1="26.0141" y1="107.284" x2="322.639" y2="-81.9952" gradientUnits="userSpaceOnUse">
<stop stop-color="#002231"/>
<stop offset="0.783898" stop-color="#1877F2"/>
</linearGradient>
<linearGradient id="paint17_linear_298_442" x1="26.0141" y1="107.284" x2="322.639" y2="-81.9952" gradientUnits="userSpaceOnUse">
<stop stop-color="#002231"/>
<stop offset="0.783898" stop-color="#1877F2"/>
</linearGradient>
<linearGradient id="paint18_linear_298_442" x1="26.0141" y1="107.284" x2="322.639" y2="-81.9952" gradientUnits="userSpaceOnUse">
<stop stop-color="#002231"/>
<stop offset="0.783898" stop-color="#1877F2"/>
</linearGradient>
<linearGradient id="paint19_linear_298_442" x1="26.0141" y1="107.284" x2="322.639" y2="-81.9952" gradientUnits="userSpaceOnUse">
<stop stop-color="#002231"/>
<stop offset="0.783898" stop-color="#1877F2"/>
</linearGradient>
<linearGradient id="paint20_linear_298_442" x1="26.0141" y1="107.284" x2="322.639" y2="-81.9952" gradientUnits="userSpaceOnUse">
<stop stop-color="#002231"/>
<stop offset="0.783898" stop-color="#1877F2"/>
</linearGradient>
<linearGradient id="paint21_linear_298_442" x1="26.0141" y1="107.284" x2="322.639" y2="-81.9952" gradientUnits="userSpaceOnUse">
<stop stop-color="#002231"/>
<stop offset="0.783898" stop-color="#1877F2"/>
</linearGradient>
<linearGradient id="paint22_linear_298_442" x1="26.0141" y1="107.284" x2="322.639" y2="-81.9952" gradientUnits="userSpaceOnUse">
<stop stop-color="#002231"/>
<stop offset="0.783898" stop-color="#1877F2"/>
</linearGradient>
<linearGradient id="paint23_linear_298_442" x1="26.0141" y1="107.284" x2="322.639" y2="-81.9952" gradientUnits="userSpaceOnUse">
<stop stop-color="#002231"/>
<stop offset="0.783898" stop-color="#1877F2"/>
</linearGradient>
<linearGradient id="paint24_linear_298_442" x1="26.0141" y1="107.284" x2="322.639" y2="-81.9952" gradientUnits="userSpaceOnUse">
<stop stop-color="#002231"/>
<stop offset="0.783898" stop-color="#1877F2"/>
</linearGradient>
<linearGradient id="paint25_linear_298_442" x1="26.0141" y1="107.284" x2="322.639" y2="-81.9952" gradientUnits="userSpaceOnUse">
<stop stop-color="#002231"/>
<stop offset="0.783898" stop-color="#1877F2"/>
</linearGradient>
<linearGradient id="paint26_linear_298_442" x1="26.0141" y1="107.284" x2="322.639" y2="-81.9952" gradientUnits="userSpaceOnUse">
<stop stop-color="#002231"/>
<stop offset="0.783898" stop-color="#1877F2"/>
</linearGradient>
<linearGradient id="paint27_linear_298_442" x1="26.0141" y1="107.284" x2="322.639" y2="-81.9952" gradientUnits="userSpaceOnUse">
<stop stop-color="#002231"/>
<stop offset="0.783898" stop-color="#1877F2"/>
</linearGradient>
<linearGradient id="paint28_linear_298_442" x1="26.0141" y1="107.284" x2="322.639" y2="-81.9952" gradientUnits="userSpaceOnUse">
<stop stop-color="#002231"/>
<stop offset="0.783898" stop-color="#1877F2"/>
</linearGradient>
<linearGradient id="paint29_linear_298_442" x1="26.0141" y1="107.284" x2="322.639" y2="-81.9952" gradientUnits="userSpaceOnUse">
<stop stop-color="#002231"/>
<stop offset="0.783898" stop-color="#1877F2"/>
</linearGradient>
<linearGradient id="paint30_linear_298_442" x1="26.0141" y1="107.284" x2="322.639" y2="-81.9952" gradientUnits="userSpaceOnUse">
<stop stop-color="#002231"/>
<stop offset="0.783898" stop-color="#1877F2"/>
</linearGradient>
<linearGradient id="paint31_linear_298_442" x1="26.0141" y1="107.284" x2="322.639" y2="-81.9952" gradientUnits="userSpaceOnUse">
<stop stop-color="#002231"/>
<stop offset="0.783898" stop-color="#1877F2"/>
</linearGradient>
<clipPath id="clip0_298_442">
<rect width="359" height="235" fill="white" transform="translate(61.0906 0.0382996)"/>
</clipPath>
</defs>
</svg>
