<svg width="777" height="584" viewBox="0 0 777 584" fill="none" xmlns="http://www.w3.org/2000/svg">
<path d="M339.116 26.5152C382.645 37.7276 505.736 55.967 582.638 90.5377C659.54 125.108 785.147 198.363 736.443 326.265C687.738 454.166 454.474 546.348 328.868 577.082C203.261 607.816 157.124 533.115 117.394 400.812C77.6645 268.51 -21.2333 197.42 4.60277 104.612C32.8109 3.53647 135.334 -25.9871 339.116 26.5152Z" fill="url(#paint0_linear_294_440)"/>
<g clip-path="url(#clip0_294_440)">
<rect x="57.2085" y="64.957" width="602.138" height="453.174" rx="43" fill="white"/>
<path d="M659.373 100.578H58.0266C58.876 95.7623 60.5347 91.206 62.853 87.0793C70.2576 73.8899 84.3772 64.957 100.555 64.957H616.845C633.013 64.957 647.142 73.8899 654.537 87.0793C656.855 91.206 658.524 95.7623 659.373 100.578Z" fill="#F2F2F2"/>
<path d="M776.357 518.294C776.357 518.953 775.828 519.483 775.168 519.483H528.06C527.401 519.483 526.871 518.953 526.871 518.294C526.871 517.974 526.991 517.694 527.191 517.484H616.845C618.753 517.484 620.622 517.354 622.461 517.104H775.168C775.828 517.104 776.357 517.634 776.357 518.294V518.294Z" fill="#002231"/>
<path d="M536.565 275.928H180.828C177.521 275.928 174.832 273.239 174.832 269.933C174.832 266.627 177.521 263.938 180.828 263.938H536.565C539.872 263.938 542.561 266.627 542.561 269.933C542.561 273.239 539.872 275.928 536.565 275.928Z" fill="#E6E6E6"/>
<path d="M659.373 100.578C658.524 95.7623 656.855 91.206 654.537 87.0793C647.142 73.8899 633.013 64.957 616.845 64.957H100.555C84.3773 64.957 70.2577 73.8899 62.8531 87.0793C60.5348 91.206 58.8761 95.7623 58.0267 100.578C57.587 103.036 57.3572 105.564 57.3572 108.152V476.287C57.3572 500.108 76.7329 519.483 100.555 519.483H616.845C621.781 519.483 626.538 518.643 630.964 517.105C647.872 511.249 660.043 495.162 660.043 476.287V108.152C660.043 105.574 659.813 103.036 659.373 100.578ZM658.044 476.287C658.044 497.131 642.556 514.367 622.461 517.105C620.622 517.354 618.753 517.484 616.845 517.484H161.92C105.272 517.484 59.3557 471.561 59.3557 414.916V108.152C59.3557 105.564 59.5955 103.036 60.0552 100.578C60.9546 95.7223 62.7033 91.176 65.1514 87.0793C72.3361 75.029 85.5065 66.9554 100.555 66.9554H616.845C631.894 66.9554 645.064 75.029 652.249 87.0793C654.697 91.176 656.446 95.7223 657.345 100.578C657.805 103.036 658.044 105.564 658.044 108.152V476.287Z" fill="#002231"/>
<path d="M632.859 280.863L629.478 268.466L644.694 262.83L646.385 274.101L632.859 280.863Z" fill="#FFB6B6"/>
<path opacity="0.1" d="M632.859 280.863L629.478 268.466L638.439 264.686L635.655 279.302L632.859 280.863Z" fill="black"/>
<path d="M588.315 387.116C585.409 385.387 585.255 380.283 587.973 375.716C589.162 373.717 590.705 372.152 592.307 371.17L593.903 368.563L614.09 332.376C614.09 332.376 622.926 298.247 626.524 294.12C630.122 289.994 635.323 290.966 635.323 290.966L639.937 295.064L623.47 343.403L603.149 372.018L600.426 376C600.327 377.877 599.687 379.979 598.498 381.978C595.78 386.545 591.222 388.845 588.315 387.116V387.116Z" fill="#FFB6B6"/>
<path d="M632.027 277.322C632.027 277.322 638.448 277.074 642.499 282.061C646.55 287.049 625.327 343.261 625.327 343.261L608.04 342.649L632.027 277.322V277.322Z" fill="#FF6363"/>
<path d="M633.105 269.495C641.715 270.845 649.786 264.959 651.133 256.35C652.48 247.74 646.593 239.667 637.982 238.318C629.372 236.968 621.301 242.854 619.954 251.463C618.607 260.073 624.494 268.146 633.105 269.495Z" fill="#FFB6B6"/>
<path d="M596.791 483.735L586.083 510.221L579.884 504.022L577.629 492.188L586.646 480.917L596.791 483.735Z" fill="#FFB6B6"/>
<path d="M697.106 474.155L707.814 486.553L702.742 496.696L691.47 495.006L685.834 479.227L697.106 474.155Z" fill="#FFB6B6"/>
<path d="M625.814 326.228L624.406 349.051L659.347 342.852L657.092 328.764L625.814 326.228Z" fill="#FFB6B6"/>
<path d="M624.124 349.333L659.347 337.78C659.347 337.78 672.309 363.703 658.22 380.045C644.13 396.387 597.354 489.37 597.354 489.37L583.265 482.608L603.553 423.437L626.096 368.774L624.124 349.333V349.333Z" fill="#2F2E41"/>
<path d="M658.22 370.465L671.745 429.636L699.924 475.282L685.271 483.735L645.821 429.636L632.859 387.935L658.22 370.465Z" fill="#2F2E41"/>
<path d="M572.557 489.934H562.797C562.797 489.934 551.408 485.426 548.739 489.934C546.07 494.442 560.648 507.228 560.648 507.228C560.648 507.228 581.011 518.674 583.829 518.11C586.646 517.547 587.774 510.785 587.774 510.785L591.155 502.895L586.083 504.586C586.083 504.586 579.32 500.641 581.011 493.879L572.557 489.934V489.934Z" fill="#2F2E41"/>
<path d="M705.559 488.243V482.608L712.112 488.243C712.112 488.243 723.03 492.188 714.577 500.641C706.123 509.094 695.415 518.11 695.415 518.11C695.415 518.11 678.508 522.619 677.381 517.547C676.254 512.475 677.381 510.423 677.381 510.423L683.58 507.403L689.216 492.751L698.233 493.879L705.559 488.243Z" fill="#2F2E41"/>
<path d="M639.797 257.71L634.873 256.368L627.123 245.742C627.123 245.742 618.075 248.888 618.597 245.547C621.036 229.958 630.415 231.998 638.384 232.106C646.353 232.214 645.561 231.805 647.414 236.373C648.261 238.462 652.224 240.264 652.224 240.264C652.224 240.264 661.674 230.908 663.568 244.324C665.462 257.74 654.266 296.483 657.641 300.435C661.016 304.386 640.594 304.603 644.796 291.86C648.998 279.116 656.031 259.684 654.501 254.881C652.97 250.078 652.239 251.104 652.239 251.104C655.176 250.41 653.874 270.54 643.315 269.881L644.547 260.166C644.547 260.166 643.66 254.893 639.797 257.71L639.797 257.71Z" fill="#2F2E41"/>
<path d="M631.45 277.2L648.357 270.438L670.9 338.062L624.518 336.373L620.342 316.189C620.342 316.189 616.264 305.684 619.646 299.485C623.027 293.287 631.45 277.2 631.45 277.2V277.2Z" fill="#FF6363"/>
<path d="M692.068 392.463C688.79 393.296 685.072 389.797 683.764 384.647C683.191 382.393 683.175 380.195 683.613 378.368L682.897 375.396L671.578 335.538C671.578 335.538 657.484 303.732 657.109 298.27C656.735 292.808 657.305 291.248 657.305 291.248L663.465 290.881L686.008 336.697L691.878 371.298L692.769 376.039C694.026 377.436 695.061 379.374 695.633 381.628C696.942 386.778 695.346 391.629 692.068 392.463L692.068 392.463Z" fill="#FFB6B6"/>
<path d="M645.326 283.935C645.326 283.935 649.69 279.218 656.081 279.878C662.473 280.538 687.221 335.284 687.221 335.284L674.567 347.079L645.326 283.935V283.935Z" fill="#FF6363"/>
<path d="M353.345 373.35H285.739C281.613 373.35 278.256 369.993 278.256 365.867V359.106C278.256 354.981 281.613 351.625 285.739 351.625H353.345C357.47 351.625 360.827 354.981 360.827 359.106V365.867C360.827 369.993 357.47 373.35 353.345 373.35Z" fill="#1877F2"/>
<path d="M613.153 152.398H545.547C541.421 152.398 538.064 149.041 538.064 144.916V138.155C538.064 134.029 541.421 130.673 545.547 130.673H613.153C617.279 130.673 620.636 134.029 620.636 138.155V144.916C620.636 149.041 617.279 152.398 613.153 152.398Z" fill="#1877F2"/>
<path d="M453.638 373.849H386.032C381.631 373.849 378.05 370.268 378.05 365.868V359.106C378.05 354.706 381.631 351.125 386.032 351.125H453.638C458.04 351.125 461.621 354.706 461.621 359.106V365.868C461.621 370.268 458.04 373.849 453.638 373.849ZM386.032 353.124C382.733 353.124 380.048 355.807 380.048 359.106V365.868C380.048 369.167 382.733 371.851 386.032 371.851H453.638C456.937 371.851 459.622 369.167 459.622 365.868V359.106C459.622 355.807 456.937 353.124 453.638 353.124H386.032Z" fill="#4DA9FF"/>
<path d="M536.565 244.953H180.828C177.521 244.953 174.832 242.263 174.832 238.957C174.832 235.652 177.521 232.962 180.828 232.962H536.565C539.872 232.962 542.561 235.652 542.561 238.957C542.561 242.263 539.872 244.953 536.565 244.953Z" fill="#E6E6E6"/>
<path d="M158.173 147.531H113.206C109.9 147.531 107.21 144.842 107.21 141.536C107.21 138.23 109.9 135.54 113.206 135.54H158.173C161.479 135.54 164.168 138.23 164.168 141.536C164.168 144.842 161.479 147.531 158.173 147.531V147.531Z" fill="#E6E6E6"/>
<path d="M426.975 147.531H382.008C378.702 147.531 376.012 144.842 376.012 141.536C376.012 138.23 378.702 135.54 382.008 135.54H426.975C430.281 135.54 432.97 138.23 432.97 141.536C432.97 144.842 430.281 147.531 426.975 147.531Z" fill="#E6E6E6"/>
<path d="M511.912 147.531H466.945C463.639 147.531 460.95 144.842 460.95 141.536C460.95 138.23 463.639 135.54 466.945 135.54H511.912C515.218 135.54 517.908 138.23 517.908 141.536C517.908 144.842 515.218 147.531 511.912 147.531Z" fill="#E6E6E6"/>
<path d="M457.624 306.903H259.77C256.463 306.903 253.774 304.214 253.774 300.908C253.774 297.602 256.463 294.913 259.77 294.913H457.624C460.93 294.913 463.619 297.602 463.619 300.908C463.619 304.214 460.93 306.903 457.624 306.903Z" fill="#E6E6E6"/>
<path d="M466.249 438.054H251.151C249.152 438.054 247.526 436.428 247.526 434.429C247.526 432.43 249.152 430.804 251.151 430.804H466.249C468.248 430.804 469.874 432.43 469.874 434.429C469.874 436.428 468.248 438.054 466.249 438.054Z" fill="#E6E6E6"/>
<path d="M418.516 456.783H298.884C296.884 456.783 295.258 455.157 295.258 453.158C295.258 451.159 296.884 449.533 298.884 449.533H418.516C420.515 449.533 422.142 451.159 422.142 453.158C422.142 455.157 420.515 456.783 418.516 456.783Z" fill="#E6E6E6"/>
<path d="M468.247 86.3357H253.15C251.151 86.3357 249.525 84.7096 249.525 82.7107C249.525 80.7117 251.151 79.0857 253.15 79.0857H468.247C470.246 79.0857 471.872 80.7117 471.872 82.7107C471.872 84.7096 470.246 86.3357 468.247 86.3357Z" fill="white"/>
<path d="M497.186 74.9113L495.823 76.3749L501.964 82.0833H483.315C482.763 82.0833 482.316 82.5307 482.316 83.0825C482.316 83.6343 482.763 84.0817 483.315 84.0817H501.968L495.823 89.7919L497.186 91.2556L505.976 83.0845L497.186 74.9113V74.9113Z" fill="#1877F2"/>
</g>
<defs>
<linearGradient id="paint0_linear_294_440" x1="139.095" y1="512.284" x2="627.889" y2="-173.46" gradientUnits="userSpaceOnUse">
<stop stop-color="#002231"/>
<stop offset="1" stop-color="#1877F2"/>
</linearGradient>
<clipPath id="clip0_294_440">
<rect width="719" height="455" fill="white" transform="translate(57.3572 64.957)"/>
</clipPath>
</defs>
</svg>
