<svg width="1044" height="157" viewBox="0 0 1044 157" fill="none" xmlns="http://www.w3.org/2000/svg">
<path d="M61.7458 83.5165C72.0322 88.2968 82.6532 90.6779 91.6006 90.2089H91.7635L92.4058 26.6128C92.4123 26.1066 92.2805 25.6082 92.0244 25.1711C91.7682 24.734 91.3975 24.3747 90.952 24.1317C90.5065 23.8888 90.0031 23.7714 89.4958 23.7922C88.9884 23.813 88.4963 23.9712 88.0723 24.2497L34.4152 60.3275C38.7577 68.5983 48.7907 77.4915 61.7458 83.5165Z" fill="#1877F2"/>
<path d="M89.3932 96.3061C80.0296 96.3061 69.4176 93.7445 59.1856 88.9913C45.0724 82.4342 34.4604 73.072 29.3308 63.7368L2.08154 82.0914C1.60986 82.4064 1.24555 82.8571 1.03708 83.3836C0.828616 83.91 0.785871 84.4873 0.914533 85.0386C1.04319 85.5898 1.33716 86.089 1.75734 86.4696C2.17751 86.8503 2.70397 87.0943 3.26668 87.1694L49.0802 93.3838C51.7722 93.7522 54.2398 95.0783 56.0282 97.1178L86.471 131.816C86.8434 132.242 87.3371 132.545 87.8864 132.685C88.4358 132.825 89.0149 132.796 89.5468 132.6C90.0788 132.404 90.5385 132.052 90.8649 131.59C91.1914 131.127 91.3691 130.577 91.3745 130.012L91.7182 96.2519C90.9583 96.288 90.1803 96.3061 89.3932 96.3061Z" fill="#1877F2"/>
<path d="M89.3932 91.4897C80.0296 91.4897 69.4176 88.9282 59.1856 84.1749C35.1208 72.9818 21.1886 53.6621 27.5214 40.1871C33.8542 26.712 57.6023 24.9262 81.6671 36.1103C89.2333 39.5646 96.1993 44.1985 102.303 49.8379C102.592 50.1109 102.825 50.438 102.987 50.8006C103.15 51.1633 103.239 51.5542 103.25 51.9512C103.261 52.3482 103.193 52.7434 103.051 53.1144C102.909 53.4853 102.695 53.8247 102.421 54.1131C102.147 54.4015 101.819 54.6333 101.455 54.7953C101.091 54.9573 100.699 55.0463 100.301 55.0571C99.9027 55.068 99.5063 55.0006 99.1342 54.8588C98.7622 54.7169 98.4218 54.5034 98.1325 54.2303C92.5111 49.0438 86.0982 44.7815 79.134 41.6031C58.8237 32.1598 37.7082 32.6919 33.0038 42.7125C28.2994 52.7331 41.4627 69.2658 61.7458 78.7001C72.0322 83.4804 82.6442 85.8615 91.6006 85.3925C99.8966 84.9596 105.65 82.1726 107.822 77.5456C110.074 72.7202 107.894 67.2184 105.669 63.4482C105.467 63.1059 105.334 62.7273 105.279 62.334C105.224 61.9407 105.247 61.5404 105.347 61.156C105.447 60.7715 105.622 60.4105 105.862 60.0935C106.102 59.7765 106.402 59.5097 106.745 59.3083C107.088 59.1069 107.468 58.975 107.863 58.9199C108.257 58.8649 108.659 58.8879 109.044 58.9875C109.43 59.0872 109.792 59.2616 110.11 59.5008C110.428 59.74 110.696 60.0393 110.898 60.3816C115.095 67.4799 115.955 74.488 113.322 80.1071C110.192 86.8447 102.593 90.8764 91.9444 91.4175C91.106 91.4656 90.2556 91.4897 89.3932 91.4897Z" fill="#1877F2"/>
<path d="M89.3932 91.4897C80.0297 91.4897 69.4177 88.9282 59.1856 84.1749C35.1209 72.9818 21.1886 53.6621 27.5215 40.1871C33.8543 26.712 57.6024 24.9262 81.6672 36.1103C89.2334 39.5646 96.1993 44.1985 102.303 49.8379C102.592 50.1109 102.825 50.438 102.987 50.8006C103.15 51.1633 103.239 51.5542 103.25 51.9512C103.261 52.3482 103.193 52.7434 103.051 53.1144C102.909 53.4853 102.695 53.8247 102.421 54.1131C102.147 54.4015 101.819 54.6333 101.455 54.7953C101.091 54.9573 100.699 55.0463 100.301 55.0571C99.9028 55.068 99.5063 55.0006 99.1343 54.8588C98.7622 54.7169 98.4218 54.5034 98.1325 54.2303C92.5112 49.0438 86.0983 44.7815 79.134 41.6031C58.8237 32.1598 37.7083 32.6919 33.0039 42.7125C28.2995 52.7331 41.4627 69.2658 61.7459 78.7001C72.0322 83.4804 82.6442 85.8615 91.6007 85.3925C99.8967 84.9596 105.65 82.1726 107.822 77.5456C110.074 72.7202 107.894 67.2184 105.669 63.4482C105.467 63.1059 105.334 62.7273 105.279 62.334C105.224 61.9407 105.247 61.5404 105.347 61.156C105.447 60.7715 105.622 60.4105 105.862 60.0935C106.102 59.7765 106.402 59.5097 106.745 59.3083C107.089 59.1069 107.468 58.975 107.863 58.9199C108.257 58.8649 108.659 58.8879 109.044 58.9875C109.43 59.0872 109.792 59.2616 110.11 59.5008C110.428 59.74 110.696 60.0393 110.898 60.3816C115.095 67.4799 115.955 74.488 113.322 80.1071C110.192 86.8447 102.593 90.8764 91.9444 91.4175C91.1061 91.4656 90.2557 91.4897 89.3932 91.4897Z" fill="#1877F2"/>
<path d="M292.359 34.6717L263.047 124.272H240.775L221.063 63.5997L200.711 124.272H178.567L149.127 34.6717H170.631L190.855 97.6477L211.975 34.6717H231.175L251.655 98.1597L272.519 34.6717H292.359ZM373.311 107.632V124.272H303.935V34.6717H371.647V51.3117H324.543V70.7677H366.143V86.8957H324.543V107.632H373.311ZM455.602 77.6797C460.722 79.301 464.733 82.0317 467.634 85.8717C470.535 89.6263 471.986 94.277 471.986 99.8237C471.986 107.674 468.914 113.733 462.77 118C456.711 122.181 447.837 124.272 436.146 124.272H389.81V34.6717H433.586C444.509 34.6717 452.871 36.7623 458.674 40.9437C464.562 45.125 467.506 50.7997 467.506 57.9677C467.506 62.3197 466.439 66.2023 464.306 69.6157C462.258 73.029 459.357 75.717 455.602 77.6797ZM410.418 50.2877V71.4077H431.026C436.146 71.4077 440.029 70.5117 442.674 68.7197C445.319 66.9277 446.642 64.2823 446.642 60.7837C446.642 57.285 445.319 54.6823 442.674 52.9757C440.029 51.1837 436.146 50.2877 431.026 50.2877H410.418ZM434.61 108.656C440.071 108.656 444.167 107.76 446.898 105.968C449.714 104.176 451.122 101.402 451.122 97.6477C451.122 90.2237 445.618 86.5117 434.61 86.5117H410.418V108.656H434.61ZM546.693 105.072H505.093L497.157 124.272H475.909L515.845 34.6717H536.325L576.389 124.272H554.629L546.693 105.072ZM540.165 89.3277L525.957 55.0237L511.749 89.3277H540.165ZM644.979 78.0637H663.923V114.416C659.059 118.085 653.427 120.901 647.027 122.864C640.627 124.826 634.184 125.808 627.699 125.808C618.398 125.808 610.035 123.845 602.611 119.92C595.187 115.909 589.342 110.405 585.075 103.408C580.894 96.325 578.803 88.3463 578.803 79.4717C578.803 70.597 580.894 62.661 585.075 55.6637C589.342 48.581 595.23 43.077 602.739 39.1517C610.248 35.141 618.696 33.1357 628.083 33.1357C635.934 33.1357 643.059 34.4583 649.459 37.1037C655.859 39.749 661.235 43.589 665.587 48.6237L652.275 60.9117C645.875 54.1703 638.152 50.7997 629.107 50.7997C623.39 50.7997 618.312 51.9943 613.875 54.3837C609.438 56.773 605.982 60.1437 603.507 64.4957C601.032 68.8477 599.795 73.8397 599.795 79.4717C599.795 85.0183 601.032 89.9677 603.507 94.3197C605.982 98.6717 609.395 102.085 613.747 104.56C618.184 106.949 623.219 108.144 628.851 108.144C634.824 108.144 640.2 106.864 644.979 104.304V78.0637ZM752.561 107.632V124.272H683.185V34.6717H750.897V51.3117H703.793V70.7677H745.393V86.8957H703.793V107.632H752.561ZM851.236 34.6717V124.272H834.212L789.54 69.8717V124.272H769.06V34.6717H786.212L830.756 89.0717V34.6717H851.236ZM915.315 125.808C906.184 125.808 897.907 123.845 890.483 119.92C883.144 115.909 877.342 110.405 873.075 103.408C868.894 96.325 866.803 88.3463 866.803 79.4717C866.803 70.597 868.894 62.661 873.075 55.6637C877.342 48.581 883.144 43.077 890.483 39.1517C897.907 35.141 906.227 33.1357 915.443 33.1357C923.208 33.1357 930.206 34.501 936.435 37.2317C942.75 39.9623 948.04 43.8877 952.307 49.0077L938.995 61.2957C932.936 54.2983 925.427 50.7997 916.467 50.7997C910.92 50.7997 905.971 52.037 901.619 54.5117C897.267 56.901 893.854 60.2717 891.379 64.6237C888.99 68.9757 887.795 73.925 887.795 79.4717C887.795 85.0183 888.99 89.9677 891.379 94.3197C893.854 98.6717 897.267 102.085 901.619 104.56C905.971 106.949 910.92 108.144 916.467 108.144C925.427 108.144 932.936 104.602 938.995 97.5197L952.307 109.808C948.04 115.013 942.75 118.981 936.435 121.712C930.12 124.442 923.08 125.808 915.315 125.808ZM1008.44 92.5277V124.272H987.707V92.2717L953.019 34.6717H975.035L998.971 74.4797L1022.91 34.6717H1043.26L1008.44 92.5277Z" fill="#1877F2"/>
</svg>
