<?xml version="1.0" standalone="no"?>
<!DOCTYPE svg PUBLIC "-//W3C//DTD SVG 20010904//EN"
 "http://www.w3.org/TR/2001/REC-SVG-20010904/DTD/svg10.dtd">
<svg version="1.0" xmlns="http://www.w3.org/2000/svg"
 width="700.000000pt" height="700.000000pt" viewBox="0 0 700.000000 700.000000"
 preserveAspectRatio="xMidYMid meet">
<metadata>
Created by potrace 1.14, written by Peter Selinger 2001-2017
</metadata>
<g transform="translate(0.000000,700.000000) scale(0.100000,-0.100000)"
fill="#000000" stroke="none">
<path d="M4815 6198 c-189 -128 -359 -242 -378 -252 l-34 -19 -159 51 c-160
52 -411 116 -494 127 -25 3 -52 8 -60 10 -46 13 -214 33 -335 41 -422 27 -756
-27 -1031 -166 -291 -147 -460 -358 -521 -650 -10 -48 -10 -284 0 -340 12 -69
49 -201 64 -230 7 -14 13 -31 13 -38 0 -7 23 -58 51 -113 206 -411 554 -777
1057 -1111 73 -48 135 -88 136 -88 2 0 52 -28 112 -63 97 -56 394 -207 408
-207 3 0 34 -13 69 -29 321 -147 790 -273 1172 -315 116 -13 539 -15 595 -3
14 3 59 11 100 17 360 53 672 226 828 457 101 149 142 280 147 468 7 204 -38
393 -141 599 -85 170 -119 201 -213 194 -89 -6 -142 -57 -149 -143 -4 -46 1
-61 56 -170 94 -188 125 -303 125 -455 -1 -359 -314 -600 -836 -646 l-72 -6 1
113 c1 63 5 440 9 839 4 399 8 782 8 853 1 70 5 127 8 127 7 0 141 -103 170
-130 8 -8 38 -34 65 -56 27 -23 61 -53 76 -67 58 -54 151 -60 212 -13 78 59
86 167 19 241 -57 63 -309 267 -452 365 l-92 64 4 426 c5 490 7 480 -75 533
-16 10 -47 17 -73 17 -42 0 -66 -14 -390 -232z m-1420 -372 c44 -4 87 -8 95
-11 8 -2 37 -6 64 -10 41 -5 112 -18 225 -40 45 -8 276 -67 279 -70 2 -2 -27
-24 -65 -49 -37 -25 -122 -82 -188 -127 -66 -45 -268 -182 -450 -304 -181
-122 -453 -305 -603 -406 -150 -101 -301 -203 -336 -226 l-64 -41 -45 71
c-335 531 -222 970 294 1143 55 19 110 35 122 38 12 2 42 7 67 11 25 4 53 9
64 11 10 2 51 6 90 10 39 3 72 7 73 8 5 5 303 -2 378 -8z"/>
<path d="M1820 4182 c-315 -212 -684 -461 -855 -577 -99 -67 -248 -168 -332
-223 -176 -118 -198 -145 -191 -223 9 -86 62 -132 168 -143 30 -4 66 -8 80
-11 44 -7 92 -13 220 -30 69 -9 136 -18 150 -20 14 -2 63 -9 110 -15 47 -7 94
-13 105 -15 11 -1 47 -6 80 -9 33 -4 67 -9 75 -11 8 -2 38 -7 65 -10 28 -3 61
-8 75 -10 14 -3 48 -7 75 -10 28 -3 65 -8 83 -11 17 -3 49 -7 70 -10 44 -5
108 -14 142 -19 25 -4 154 -21 225 -30 21 -3 50 -7 64 -10 14 -2 64 -9 111
-15 47 -6 101 -13 120 -16 19 -2 100 -13 180 -24 80 -10 161 -22 181 -25 20
-3 51 -7 70 -9 151 -15 275 -47 348 -89 86 -50 134 -96 290 -277 36 -41 70
-79 75 -85 6 -5 26 -28 45 -50 19 -22 62 -71 96 -110 34 -38 127 -144 206
-235 79 -91 146 -167 149 -170 3 -3 34 -39 70 -80 36 -41 67 -77 70 -80 3 -3
34 -39 70 -80 36 -41 67 -77 70 -80 3 -3 100 -113 215 -245 115 -132 222 -253
237 -270 14 -16 36 -41 48 -55 190 -221 201 -230 280 -230 48 0 100 35 123 82
16 33 18 77 22 435 15 1379 15 1443 3 1443 -54 -1 -390 11 -418 15 -19 2 -53
7 -75 10 -22 3 -58 8 -79 10 -39 5 -68 10 -116 20 -14 3 -41 8 -60 11 -105 18
-347 83 -501 135 -778 259 -1495 737 -1902 1266 -58 76 -167 240 -167 251 0 5
-6 14 -13 20 -10 8 -48 -13 -157 -86z"/>
</g>
</svg>
