<svg width="241" height="477" viewBox="0 0 241 477" fill="none" xmlns="http://www.w3.org/2000/svg">
<g filter="url(#filter0_d_241_112)">
<path d="M232.786 74.8383H232.351V28.675C232.351 25.0353 231.634 21.4312 230.241 18.0686C228.848 14.706 226.807 11.6506 224.233 9.07708C221.659 6.50352 218.604 4.46213 215.241 3.06947C211.878 1.67681 208.274 0.960164 204.634 0.960449H36.6411C29.2911 0.961026 22.2424 3.8812 17.0454 9.07862C11.8484 14.276 8.92875 21.325 8.92875 28.675V74.8383H8.49353C8.01793 74.8377 7.54689 74.9309 7.10734 75.1125C6.66778 75.2941 6.26832 75.5606 5.93182 75.8967C5.59532 76.2328 5.32838 76.6319 5.14624 77.0713C4.96411 77.5106 4.87036 77.9815 4.87036 78.4571V110.389C4.87036 111.349 5.25163 112.269 5.93029 112.948C6.60895 113.626 7.52941 114.008 8.48918 114.008H8.9244V121.624H8.48918C7.52941 121.624 6.60895 122.005 5.93029 122.684C5.25163 123.363 4.87036 124.283 4.87036 125.243V157.177C4.87094 158.136 5.25246 159.056 5.93106 159.734C6.60966 160.412 7.52979 160.793 8.48918 160.793H8.9244V440.45C8.9244 444.09 9.64132 447.694 11.0342 451.056C12.4272 454.419 14.4688 457.474 17.0426 460.048C19.6163 462.621 22.6718 464.663 26.0345 466.056C29.3973 467.448 33.0014 468.165 36.6411 468.165H204.634C211.985 468.165 219.034 465.245 224.232 460.047C229.429 454.85 232.349 447.8 232.349 440.45V133.592H232.784C233.26 133.593 233.73 133.499 234.17 133.318C234.609 133.136 235.008 132.869 235.344 132.533C235.681 132.197 235.947 131.798 236.129 131.359C236.311 130.92 236.405 130.449 236.405 129.974V78.4571C236.405 77.4974 236.024 76.5769 235.345 75.8982C234.667 75.2196 233.746 74.8383 232.786 74.8383Z" fill="#BEBEBE"/>
</g>
<path d="M201.773 7.81494H39.503C27.0714 7.81494 16.9937 17.8927 16.9937 30.3243V438.8C16.9937 451.232 27.0714 461.31 39.503 461.31H201.773C214.205 461.31 224.283 451.232 224.283 438.8V30.3243C224.283 17.8927 214.205 7.81494 201.773 7.81494Z" fill="#FCFCFC"/>
<defs>
<filter id="filter0_d_241_112" x="0.870361" y="0.960449" width="239.535" height="475.204" filterUnits="userSpaceOnUse" color-interpolation-filters="sRGB">
<feFlood flood-opacity="0" result="BackgroundImageFix"/>
<feColorMatrix in="SourceAlpha" type="matrix" values="0 0 0 0 0 0 0 0 0 0 0 0 0 0 0 0 0 0 127 0" result="hardAlpha"/>
<feOffset dy="4"/>
<feGaussianBlur stdDeviation="2"/>
<feComposite in2="hardAlpha" operator="out"/>
<feColorMatrix type="matrix" values="0 0 0 0 0 0 0 0 0 0 0 0 0 0 0 0 0 0 0.05 0"/>
<feBlend mode="normal" in2="BackgroundImageFix" result="effect1_dropShadow_241_112"/>
<feBlend mode="normal" in="SourceGraphic" in2="effect1_dropShadow_241_112" result="shape"/>
</filter>
</defs>
</svg>
