<svg width="89" height="97" viewBox="0 0 89 97" fill="none" xmlns="http://www.w3.org/2000/svg">
<path d="M75.0131 42.4712C75.0131 27.0544 61.5667 14.5596 44.9758 14.5596C28.3849 14.5596 14.9385 27.0544 14.9385 42.4712C14.9385 56.4041 25.9162 67.9515 40.2825 70.0459V50.546H32.6652V42.4712H40.2825V36.323C40.2825 29.3331 44.7623 25.4626 51.6251 25.4626C54.9163 25.4626 58.3565 26.0077 58.3565 26.0077V32.8766H54.5713C50.8354 32.8766 49.6832 35.0332 49.6832 37.2378V42.4712H58.0139L56.681 50.546H49.6832V70.0459C64.0354 67.9515 75.0131 56.4041 75.0131 42.4712Z" fill="#1877F2"/>
<path d="M56.6611 50.5458L57.9999 42.4711H49.6693V37.2376C49.6693 35.0352 50.8426 32.8764 54.5574 32.8764H58.3402V26.0076C58.3402 26.0076 54.9 25.4624 51.6088 25.4624C44.7459 25.4624 40.2685 29.3319 40.2685 36.3207V42.4711H32.6477V50.5458H40.2685V70.0458C41.8208 70.2744 43.3902 70.3871 44.9618 70.3827C46.5331 70.3794 48.102 70.2668 49.6552 70.0458V50.5458H56.6611Z" fill="white"/>
<path d="M13.4273 80.4034V82.922H16.9952V83.5082H13.4273V86.2282H12.698V79.8173H17.4289V80.4034H13.4273Z" fill="#757575"/>
<path d="M20.3889 81.3742C21.0657 81.3742 21.5848 81.533 21.9462 81.8505C22.3075 82.1619 22.4882 82.6259 22.4882 83.2426V86.2282H21.818V85.4772C21.6603 85.7276 21.4271 85.9229 21.1183 86.0634C20.816 86.2038 20.4546 86.274 20.0341 86.274C19.4559 86.274 18.9959 86.1458 18.6543 85.8894C18.3126 85.6329 18.1417 85.2941 18.1417 84.8728C18.1417 84.4637 18.2994 84.134 18.6148 83.8837C18.9368 83.6333 19.446 83.5082 20.1425 83.5082H21.7885V83.2151C21.7885 82.7999 21.6636 82.4855 21.4139 82.2718C21.1643 82.0519 20.7996 81.942 20.3199 81.942C19.9914 81.942 19.676 81.9939 19.3737 82.0977C19.0715 82.1954 18.812 82.3328 18.5951 82.5099L18.2797 82.0245C18.5426 81.8169 18.8579 81.6581 19.2259 81.5482C19.5939 81.4322 19.9815 81.3742 20.3889 81.3742ZM20.1425 85.7611C20.5368 85.7611 20.8751 85.6787 21.1577 85.5139C21.4402 85.3429 21.6505 85.0987 21.7885 84.7812V83.9936H20.1622C19.2752 83.9936 18.8317 84.2805 18.8317 84.8545C18.8317 85.1353 18.9467 85.3582 19.1766 85.523C19.4066 85.6818 19.7286 85.7611 20.1425 85.7611Z" fill="#757575"/>
<path d="M26.5568 86.274C26.0443 86.274 25.5843 86.1702 25.1769 85.9626C24.7761 85.755 24.4607 85.465 24.2308 85.0926C24.0008 84.714 23.8858 84.2897 23.8858 83.8195C23.8858 83.3494 24.0008 82.9281 24.2308 82.5557C24.4607 82.1832 24.7761 81.8932 25.1769 81.6856C25.5843 81.478 26.0443 81.3742 26.5568 81.3742C27.0036 81.3742 27.4011 81.4566 27.7493 81.6215C28.1042 81.7802 28.3834 82.0153 28.5871 82.3267L28.0647 82.6564C27.8939 82.4183 27.6771 82.2412 27.4142 82.1252C27.1514 82.0031 26.8656 81.942 26.5568 81.942C26.1822 81.942 25.8439 82.0214 25.5416 82.1802C25.2459 82.3328 25.0127 82.5526 24.8418 82.8396C24.6776 83.1265 24.5954 83.4532 24.5954 83.8195C24.5954 84.192 24.6776 84.5217 24.8418 84.8087C25.0127 85.0895 25.2459 85.3093 25.5416 85.4681C25.8439 85.6207 26.1822 85.697 26.5568 85.697C26.8656 85.697 27.1514 85.639 27.4142 85.523C27.6771 85.407 27.8939 85.23 28.0647 84.9918L28.5871 85.3215C28.3834 85.6329 28.1042 85.871 27.7493 86.0359C27.3945 86.1946 26.997 86.274 26.5568 86.274Z" fill="#757575"/>
<path d="M34.3892 84.021H30.0526C30.092 84.5217 30.299 84.9277 30.6735 85.2391C31.048 85.5444 31.5211 85.697 32.0928 85.697C32.4147 85.697 32.7104 85.6451 32.9798 85.5413C33.2492 85.4314 33.4825 85.2727 33.6796 85.0651L34.0738 85.4864C33.8438 85.7428 33.5547 85.9382 33.2065 86.0725C32.8648 86.2069 32.487 86.274 32.073 86.274C31.5408 86.274 31.0677 86.1702 30.6538 85.9626C30.2464 85.7489 29.9277 85.4559 29.6978 85.0834C29.4678 84.711 29.3528 84.2897 29.3528 83.8195C29.3528 83.3494 29.4612 82.9281 29.678 82.5557C29.9014 82.1832 30.2037 81.8932 30.5848 81.6856C30.9725 81.478 31.4061 81.3742 31.8858 81.3742C32.3654 81.3742 32.7958 81.478 33.1769 81.6856C33.558 81.8932 33.857 82.1832 34.0738 82.5557C34.2906 82.922 34.3991 83.3433 34.3991 83.8195L34.3892 84.021ZM31.8858 81.9329C31.3864 81.9329 30.9659 82.0825 30.6242 82.3817C30.2891 82.6747 30.0986 83.0594 30.0526 83.5356H33.7289C33.6829 83.0594 33.489 82.6747 33.1474 82.3817C32.8122 82.0825 32.3917 81.9329 31.8858 81.9329Z" fill="#757575"/>
<path d="M38.4944 81.3742C38.9806 81.3742 39.4209 81.478 39.8151 81.6856C40.2093 81.8871 40.5182 82.1741 40.7416 82.5465C40.965 82.919 41.0767 83.3433 41.0767 83.8195C41.0767 84.2958 40.965 84.7201 40.7416 85.0926C40.5182 85.465 40.2093 85.755 39.8151 85.9626C39.4209 86.1702 38.9806 86.274 38.4944 86.274C38.0607 86.274 37.6698 86.1885 37.3215 86.0176C36.9798 85.8466 36.7039 85.5993 36.4936 85.2757V86.2282H35.8234V79.4326H36.5232V82.3267C36.74 82.0153 37.016 81.7802 37.3511 81.6215C37.6928 81.4566 38.0739 81.3742 38.4944 81.3742ZM38.4451 85.697C38.8065 85.697 39.135 85.6207 39.4307 85.4681C39.7264 85.3093 39.9564 85.0865 40.1206 84.7995C40.2915 84.5125 40.3769 84.1859 40.3769 83.8195C40.3769 83.4532 40.2915 83.1265 40.1206 82.8396C39.9564 82.5526 39.7264 82.3328 39.4307 82.1802C39.135 82.0214 38.8065 81.942 38.4451 81.942C38.0771 81.942 37.7453 82.0214 37.4497 82.1802C37.1605 82.3328 36.9306 82.5526 36.7597 82.8396C36.5955 83.1265 36.5133 83.4532 36.5133 83.8195C36.5133 84.1859 36.5955 84.5125 36.7597 84.7995C36.9306 85.0865 37.1605 85.3093 37.4497 85.4681C37.7453 85.6207 38.0771 85.697 38.4451 85.697Z" fill="#757575"/>
<path d="M44.6222 86.274C44.1228 86.274 43.6727 86.1702 43.2719 85.9626C42.8711 85.7489 42.5557 85.4559 42.3258 85.0834C42.0958 84.711 41.9808 84.2897 41.9808 83.8195C41.9808 83.3494 42.0958 82.9281 42.3258 82.5557C42.5557 82.1832 42.8711 81.8932 43.2719 81.6856C43.6727 81.478 44.1228 81.3742 44.6222 81.3742C45.1216 81.3742 45.5717 81.478 45.9725 81.6856C46.3733 81.8932 46.6854 82.1832 46.9088 82.5557C47.1388 82.9281 47.2538 83.3494 47.2538 83.8195C47.2538 84.2897 47.1388 84.711 46.9088 85.0834C46.6854 85.4559 46.3733 85.7489 45.9725 85.9626C45.5717 86.1702 45.1216 86.274 44.6222 86.274ZM44.6222 85.697C44.9902 85.697 45.3187 85.6207 45.6078 85.4681C45.9035 85.3093 46.1335 85.0865 46.2977 84.7995C46.462 84.5125 46.5441 84.1859 46.5441 83.8195C46.5441 83.4532 46.462 83.1265 46.2977 82.8396C46.1335 82.5526 45.9035 82.3328 45.6078 82.1802C45.3187 82.0214 44.9902 81.942 44.6222 81.942C44.2542 81.942 43.9224 82.0214 43.6267 82.1802C43.3376 82.3328 43.1077 82.5526 42.9368 82.8396C42.7726 83.1265 42.6904 83.4532 42.6904 83.8195C42.6904 84.1859 42.7726 84.5125 42.9368 84.7995C43.1077 85.0865 43.3376 85.3093 43.6267 85.4681C43.9224 85.6207 44.2542 85.697 44.6222 85.697Z" fill="#757575"/>
<path d="M50.8014 86.274C50.3021 86.274 49.852 86.1702 49.4512 85.9626C49.0504 85.7489 48.735 85.4559 48.505 85.0834C48.275 84.711 48.16 84.2897 48.16 83.8195C48.16 83.3494 48.275 82.9281 48.505 82.5557C48.735 82.1832 49.0504 81.8932 49.4512 81.6856C49.852 81.478 50.3021 81.3742 50.8014 81.3742C51.3008 81.3742 51.7509 81.478 52.1517 81.6856C52.5525 81.8932 52.8646 82.1832 53.088 82.5557C53.318 82.9281 53.433 83.3494 53.433 83.8195C53.433 84.2897 53.318 84.711 53.088 85.0834C52.8646 85.4559 52.5525 85.7489 52.1517 85.9626C51.7509 86.1702 51.3008 86.274 50.8014 86.274ZM50.8014 85.697C51.1694 85.697 51.4979 85.6207 51.7871 85.4681C52.0827 85.3093 52.3127 85.0865 52.477 84.7995C52.6412 84.5125 52.7234 84.1859 52.7234 83.8195C52.7234 83.4532 52.6412 83.1265 52.477 82.8396C52.3127 82.5526 52.0827 82.3328 51.7871 82.1802C51.4979 82.0214 51.1694 81.942 50.8014 81.942C50.4335 81.942 50.1017 82.0214 49.806 82.1802C49.5169 82.3328 49.2869 82.5526 49.1161 82.8396C48.9518 83.1265 48.8697 83.4532 48.8697 83.8195C48.8697 84.1859 48.9518 84.5125 49.1161 84.7995C49.2869 85.0865 49.5169 85.3093 49.806 85.4681C50.1017 85.6207 50.4335 85.697 50.8014 85.697Z" fill="#757575"/>
<path d="M56.7836 83.8104L55.5614 84.8545V86.2282H54.8617V79.4326H55.5614V84.0393L58.6562 81.4109H59.5236L57.306 83.3799L59.7305 86.2282H58.8731L56.7836 83.8104Z" fill="#757575"/>
<path d="M67.8352 84.5156H63.9913L63.1634 86.2282H62.4045L65.5584 79.8173H66.2779L69.4318 86.2282H68.6631L67.8352 84.5156ZM67.569 83.9661L65.9132 80.5225L64.2574 83.9661H67.569Z" fill="#757575"/>
<path d="M75.108 79.4326V86.2282H74.4378V85.2757C74.2276 85.5993 73.9483 85.8466 73.6001 86.0176C73.2584 86.1885 72.8707 86.274 72.4371 86.274C71.9508 86.274 71.5106 86.1702 71.1164 85.9626C70.7221 85.755 70.4133 85.465 70.1899 85.0926C69.9665 84.7201 69.8548 84.2958 69.8548 83.8195C69.8548 83.3433 69.9665 82.919 70.1899 82.5465C70.4133 82.1741 70.7221 81.8871 71.1164 81.6856C71.5106 81.478 71.9508 81.3742 72.4371 81.3742C72.8576 81.3742 73.2354 81.4566 73.5705 81.6215C73.9122 81.7802 74.1914 82.0153 74.4083 82.3267V79.4326H75.108ZM72.4962 85.697C72.8576 85.697 73.1828 85.6207 73.472 85.4681C73.7676 85.3093 73.9976 85.0865 74.1619 84.7995C74.3327 84.5125 74.4181 84.1859 74.4181 83.8195C74.4181 83.4532 74.3327 83.1265 74.1619 82.8396C73.9976 82.5526 73.7676 82.3328 73.472 82.1802C73.1828 82.0214 72.8576 81.942 72.4962 81.942C72.1282 81.942 71.7964 82.0214 71.5007 82.1802C71.2116 82.3328 70.9817 82.5526 70.8108 82.8396C70.6466 83.1265 70.5644 83.4532 70.5644 83.8195C70.5644 84.1859 70.6466 84.5125 70.8108 84.7995C70.9817 85.0865 71.2116 85.3093 71.5007 85.4681C71.7964 85.6207 72.1282 85.697 72.4962 85.697Z" fill="#757575"/>
<path d="M78.4466 86.274C78.0261 86.274 77.622 86.2191 77.2343 86.1092C76.8532 85.9932 76.5543 85.8497 76.3374 85.6787L76.6528 85.1658C76.8697 85.3246 77.1423 85.4559 77.4709 85.5597C77.7994 85.6573 78.1411 85.7062 78.4959 85.7062C78.969 85.7062 79.3172 85.639 79.5406 85.5047C79.7706 85.3643 79.8856 85.1689 79.8856 84.9186C79.8856 84.7415 79.8232 84.6041 79.6983 84.5064C79.5735 84.4026 79.4158 84.3263 79.2252 84.2775C79.0347 84.2225 78.7817 84.1706 78.4663 84.1218C78.0458 84.0485 77.7074 83.9752 77.4511 83.902C77.1949 83.8226 76.9748 83.6913 76.7908 83.5082C76.6134 83.325 76.5247 83.0716 76.5247 82.748C76.5247 82.345 76.7054 82.0153 77.0668 81.7589C77.4282 81.5024 77.9308 81.3742 78.5747 81.3742C78.9098 81.3742 79.2449 81.417 79.5801 81.5024C79.9152 81.5818 80.1911 81.6887 80.408 81.823L80.1024 82.345C79.6753 82.0703 79.1661 81.9329 78.5747 81.9329C78.1279 81.9329 77.7895 82.0062 77.5596 82.1527C77.3362 82.2992 77.2245 82.4916 77.2245 82.7297C77.2245 82.9128 77.2869 83.0594 77.4117 83.1693C77.5431 83.2792 77.7041 83.3616 77.8947 83.4166C78.0852 83.4654 78.348 83.5173 78.6832 83.5723C79.0971 83.6455 79.4289 83.7188 79.6786 83.7921C79.9283 83.8653 80.1418 83.9905 80.3193 84.1676C80.4967 84.3446 80.5854 84.5889 80.5854 84.9002C80.5854 85.3215 80.3948 85.6573 80.0137 85.9077C79.6392 86.1519 79.1168 86.274 78.4466 86.274Z" fill="#757575"/>
</svg>
