<svg width="66" height="82" viewBox="0 0 66 82" fill="none" xmlns="http://www.w3.org/2000/svg">
<g clip-path="url(#clip0_62_14)">
<path d="M22.7908 7.72805C23.4128 6.09666 24.268 4.59474 25.538 3.37767C30.6177 -1.56831 39.0148 -0.325339 42.4618 5.88949C45.0535 10.6024 47.8007 15.2117 50.4702 19.8729C54.9279 27.6155 59.4375 35.3582 63.8434 43.1267C67.5495 49.6264 63.5324 57.8351 56.1719 58.9486C51.6624 59.6219 47.4379 57.5503 45.1054 53.5107C41.1919 46.7002 37.2525 39.8898 33.339 33.1053C33.2613 32.9499 33.1576 32.8204 33.0539 32.691C32.6393 32.3543 32.4578 31.8623 32.1987 31.4221C30.4622 28.3665 28.6739 25.3367 26.9375 22.307C25.8231 20.339 24.6568 18.3968 23.5424 16.4288C22.5316 14.6679 22.0651 12.7517 22.1169 10.7319C22.1947 9.69608 22.3243 8.66027 22.7908 7.72805Z" fill="#3C8BD9"/>
<path d="M22.7909 7.72803C22.5576 8.66025 22.3503 9.59248 22.2985 10.5765C22.2207 12.7517 22.765 14.7715 23.8535 16.6619C26.7044 21.556 29.5552 26.4761 32.3802 31.3962C32.6394 31.8364 32.8467 32.2766 33.1059 32.6909C31.5508 35.384 29.9958 38.0512 28.4149 40.7443C26.2378 44.4991 24.0608 48.2798 21.8579 52.0346C21.7542 52.0346 21.7283 51.9828 21.7024 51.9051C21.6764 51.698 21.7542 51.5167 21.806 51.3095C22.8686 47.4253 21.9874 43.9812 19.318 41.0292C17.6852 39.2424 15.6119 38.2325 13.2275 37.8959C10.1174 37.4557 7.37023 38.2584 4.9081 40.2005C4.46751 40.5372 4.18243 41.0292 3.66409 41.2881C3.56042 41.2881 3.50858 41.2363 3.48267 41.1587C4.72669 39.0094 5.94479 36.8601 7.18881 34.7108C12.3204 25.8028 17.452 16.8949 22.6095 8.01287C22.6613 7.90929 22.739 7.83161 22.7909 7.72803Z" fill="#FABC04"/>
<path d="M3.5864 41.2362C4.07883 40.796 4.54533 40.3299 5.06368 39.9156C11.3615 34.9437 20.8213 38.5431 22.1949 46.4153C22.5318 48.3056 22.3504 50.1183 21.7802 51.9309C21.7543 52.0863 21.7283 52.2158 21.6765 52.3712C21.4433 52.7855 21.2359 53.2257 20.9768 53.64C18.6701 57.4466 15.275 59.3369 10.8173 59.0521C5.7116 58.6896 1.69446 54.8571 0.994696 49.7816C0.657774 47.3216 1.1502 45.0169 2.42013 42.8935C2.67931 42.4274 2.99031 42.0131 3.2754 41.547C3.40498 41.4434 3.35315 41.2362 3.5864 41.2362Z" fill="#34A852"/>
<path d="M3.58623 41.2364C3.48257 41.34 3.48257 41.5212 3.30115 41.5471C3.27523 41.3659 3.3789 41.2623 3.48257 41.1328L3.58623 41.2364Z" fill="#FABC04"/>
<path d="M21.6765 52.3714C21.5728 52.1901 21.6765 52.0606 21.7802 51.9312C21.8061 51.957 21.8579 52.0088 21.8838 52.0347L21.6765 52.3714Z" fill="#E1C025"/>
<path d="M5.89291 67.7529C2.96428 67.7529 0.528076 70.1094 0.528076 73.0096C0.528076 75.9099 2.96428 78.2405 5.89291 78.2405C7.47385 78.2405 8.64012 77.7226 9.57313 76.7644C10.5321 75.8063 10.8172 74.4857 10.8172 73.424C10.8172 73.0873 10.7912 72.7766 10.7394 72.5176H5.89291V73.9419H9.33988C9.23621 74.7446 8.97704 75.3402 8.56237 75.7545C8.06994 76.2465 7.26651 76.8162 5.89291 76.8162C3.76771 76.8162 2.10902 75.1072 2.10902 73.0096C2.10902 70.9121 3.76771 69.2031 5.89291 69.2031C7.03326 69.2031 7.88852 69.6433 8.48462 70.2389L9.49538 69.229C8.64012 68.4003 7.49977 67.7529 5.89291 67.7529ZM14.6788 71.5077C12.8387 71.5077 11.3096 72.932 11.3096 74.9259C11.3096 76.8939 12.8128 78.344 14.6788 78.344C16.5448 78.344 18.048 76.8939 18.048 74.9259C18.048 72.9579 16.5189 71.5077 14.6788 71.5077ZM14.6788 76.9975C13.668 76.9975 12.7868 76.143 12.7868 74.9259C12.7868 73.7088 13.668 72.8543 14.6788 72.8543C15.6896 72.8543 16.5707 73.6829 16.5707 74.9259C16.5707 76.143 15.6896 76.9975 14.6788 76.9975ZM21.9874 71.5077C20.1214 71.5077 18.6182 72.932 18.6182 74.9259C18.6182 76.8939 20.1214 78.344 21.9874 78.344C23.8275 78.344 25.3566 76.8939 25.3566 74.9259C25.3566 72.9579 23.8534 71.5077 21.9874 71.5077ZM21.9874 76.9975C20.9766 76.9975 20.0955 76.143 20.0955 74.9259C20.0955 73.7088 20.9766 72.8543 21.9874 72.8543C22.9982 72.8543 23.8794 73.6829 23.8794 74.9259C23.8794 76.143 23.0241 76.9975 21.9874 76.9975ZM29.2701 71.5077C27.5855 71.5077 26.0564 72.9837 26.0564 74.9C26.0564 76.7903 27.5855 78.2664 29.2701 78.2664C30.0735 78.2664 30.6955 77.9038 31.0325 77.4895H31.0843V77.9815C31.0843 79.2763 30.4105 79.9754 29.296 79.9754C28.3889 79.9754 27.8447 79.3281 27.6114 78.7843L26.3156 79.3281C26.6784 80.2344 27.6632 81.322 29.296 81.322C31.0325 81.322 32.4838 80.2862 32.4838 77.8003V71.7408H31.0843V72.2846H31.0325C30.6955 71.8703 30.0735 71.5077 29.2701 71.5077ZM29.3997 76.9457C28.3889 76.9457 27.5337 76.0912 27.5337 74.9C27.5337 73.7088 28.3889 72.8284 29.3997 72.8284C30.4105 72.8284 31.188 73.7088 31.188 74.9C31.188 76.0912 30.4105 76.9457 29.3997 76.9457ZM33.5723 68.1673H35.0496V78.1628H33.5723V68.1673ZM39.0149 71.5077C37.2526 71.5077 35.7753 72.8802 35.7753 74.9259C35.7753 76.8421 37.2266 78.344 39.1704 78.344C40.7514 78.344 41.6585 77.3859 42.0213 76.8421L40.855 76.0653C40.4663 76.635 39.922 76.9975 39.1704 76.9975C38.3929 76.9975 37.8486 76.6609 37.5117 75.9617L42.099 74.0713L41.9435 73.6829C41.6585 72.932 40.7773 71.5077 39.0149 71.5077ZM37.2526 74.8223C37.2007 73.5017 38.2892 72.8284 39.0408 72.8284C39.6369 72.8284 40.1553 73.1132 40.3108 73.5534L37.2526 74.8223Z" fill="#757575"/>
<path d="M44.6907 78.0072L48.1117 68.918H49.4335L52.8545 78.0072H51.5587L50.6775 75.5471H46.8677L45.9865 78.0072H44.6907ZM47.2565 74.4595H50.2888L48.8115 70.3681H48.7597L47.2565 74.4595Z" fill="#757575"/>
<path d="M54.0469 77.2562C53.4767 76.6088 53.1917 75.832 53.1917 74.8997C53.1917 73.9934 53.4767 73.2166 54.0469 72.5433C54.643 71.8959 55.3169 71.5852 56.1462 71.5852C56.6127 71.5852 57.0274 71.6887 57.3902 71.87C57.779 72.0772 58.0641 72.3102 58.2714 72.6469H58.3232L58.2714 71.7923V68.918H59.4377V78.0072H58.3232V77.1526H58.2714C58.0641 77.4634 57.779 77.7223 57.3902 77.9295C57.0015 78.1366 56.5868 78.2143 56.1462 78.2143C55.3169 78.2143 54.6171 77.9036 54.0469 77.2562ZM57.7271 76.5311C58.1159 76.1168 58.2973 75.573 58.2973 74.8997C58.2973 74.2524 58.1159 73.7086 57.7271 73.2942C57.3643 72.8799 56.8978 72.6728 56.3276 72.6728C55.7574 72.6728 55.2909 72.8799 54.9281 73.2942C54.5393 73.7086 54.3579 74.2524 54.3579 74.8997C54.3579 75.5471 54.5393 76.0909 54.9281 76.5053C55.3168 76.9196 55.7834 77.1267 56.3276 77.1267C56.8978 77.1526 57.3643 76.9455 57.7271 76.5311Z" fill="#757575"/>
<path d="M64.8283 77.6449C64.3618 78.0074 63.7657 78.2146 63.0401 78.2146C62.4181 78.2146 61.8738 78.0592 61.3814 77.7226C60.9149 77.386 60.5779 76.9716 60.3706 76.4278L61.4073 75.9876C61.5628 76.3502 61.7701 76.6609 62.0811 76.8681C62.3662 77.0752 62.7031 77.1788 63.0401 77.1788C63.4029 77.1788 63.7139 77.1011 63.9731 76.9457C64.2323 76.7904 64.3359 76.5832 64.3359 76.3761C64.3359 75.9876 64.0249 75.6769 63.4288 75.4956L62.3662 75.2367C61.1481 74.9259 60.552 74.3562 60.552 73.4758C60.552 72.9061 60.7853 72.4659 61.2518 72.1034C61.7183 71.7667 62.3144 71.5854 63.0141 71.5854C63.5584 71.5854 64.0508 71.7149 64.5173 71.9739C64.9579 72.2328 65.2689 72.5954 65.4504 73.0356L64.4137 73.4758C64.2841 73.2168 64.1027 73.0097 63.8435 72.8543C63.5843 72.6989 63.2733 72.6213 62.9364 72.6213C62.6254 72.6213 62.3662 72.6989 62.1071 72.8543C61.8738 73.0097 61.7442 73.1909 61.7442 73.424C61.7442 73.7865 62.0811 74.0455 62.755 74.175L63.688 74.408C64.932 74.7188 65.5281 75.3402 65.5281 76.2725C65.554 76.8163 65.2949 77.2824 64.8283 77.6449Z" fill="#757575"/>
</g>
<defs>
<clipPath id="clip0_62_14">
<rect width="65" height="81" fill="white" transform="translate(0.528076 0.321777)"/>
</clipPath>
</defs>
</svg>
