<svg width="72" height="79" viewBox="0 0 72 79" fill="none" xmlns="http://www.w3.org/2000/svg">
<path d="M35.6735 0.736816C23.8703 0.736816 20.4184 0.748993 19.7474 0.804656C17.3252 1.006 15.8179 1.38738 14.1758 2.20493C12.9104 2.83331 11.9124 3.56172 10.9274 4.58279C9.13355 6.44489 8.04638 8.73578 7.65282 11.4589C7.46148 12.7809 7.40582 13.0505 7.39451 19.8032C7.39016 22.054 7.39451 25.0164 7.39451 28.9897C7.39451 40.7834 7.40756 44.2319 7.46409 44.9016C7.65978 47.2585 8.02942 48.7414 8.81218 50.3635C10.3081 53.4685 13.1652 55.7993 16.5311 56.6691C17.6965 56.9691 18.9837 57.1344 20.6362 57.2127C21.3364 57.2431 28.4725 57.2649 35.6131 57.2649C42.7536 57.2649 49.8941 57.2562 50.5769 57.2214C52.4903 57.1313 53.6014 56.9822 54.8299 56.6647C56.4988 56.2367 58.0542 55.4496 59.3874 54.3582C60.7207 53.2669 61.7996 51.8976 62.5488 50.3461C63.3163 48.7632 63.7055 47.2238 63.8817 44.9898C63.9199 44.5028 63.936 36.7374 63.936 28.9824C63.936 21.226 63.9186 13.475 63.8804 12.9879C63.7021 10.7179 63.3129 9.19152 62.5205 7.57816C61.8704 6.25746 61.1485 5.27118 60.1005 4.26272C58.2306 2.47629 55.9431 1.38912 53.217 0.995998C51.8963 0.805091 51.6332 0.748558 44.8753 0.736816H35.6735Z" fill="url(#paint0_radial_65_39)"/>
<path d="M35.6735 0.736816C23.8703 0.736816 20.4184 0.748993 19.7474 0.804656C17.3252 1.006 15.8179 1.38738 14.1758 2.20493C12.9104 2.83331 11.9124 3.56172 10.9274 4.58279C9.13355 6.44489 8.04638 8.73578 7.65282 11.4589C7.46148 12.7809 7.40582 13.0505 7.39451 19.8032C7.39016 22.054 7.39451 25.0164 7.39451 28.9897C7.39451 40.7834 7.40756 44.2319 7.46409 44.9016C7.65978 47.2585 8.02942 48.7414 8.81218 50.3635C10.3081 53.4685 13.1652 55.7993 16.5311 56.6691C17.6965 56.9691 18.9837 57.1344 20.6362 57.2127C21.3364 57.2431 28.4725 57.2649 35.6131 57.2649C42.7536 57.2649 49.8941 57.2562 50.5769 57.2214C52.4903 57.1313 53.6014 56.9822 54.8299 56.6647C56.4988 56.2367 58.0542 55.4496 59.3874 54.3582C60.7207 53.2669 61.7996 51.8976 62.5488 50.3461C63.3163 48.7632 63.7055 47.2238 63.8817 44.9898C63.9199 44.5028 63.936 36.7374 63.936 28.9824C63.936 21.226 63.9186 13.475 63.8804 12.9879C63.7021 10.7179 63.3129 9.19152 62.5205 7.57816C61.8704 6.25746 61.1485 5.27118 60.1005 4.26272C58.2306 2.47629 55.9431 1.38912 53.217 0.995998C51.8963 0.805091 51.6332 0.748558 44.8753 0.736816H35.6735Z" fill="url(#paint1_radial_65_39)"/>
<path d="M35.6604 8.12939C29.9914 8.12939 29.28 8.15418 27.0535 8.25551C24.8313 8.35727 23.3145 8.70907 21.9872 9.22526C20.6144 9.75841 19.4498 10.4716 18.2896 11.6323C17.1285 12.7925 16.4153 13.9571 15.8804 15.3295C15.3629 16.6572 15.0107 18.1744 14.9106 20.3957C14.8115 22.6222 14.7854 23.3341 14.7854 29.0031C14.7854 34.672 14.8106 35.3813 14.9115 37.6078C15.0137 39.83 15.3655 41.3468 15.8813 42.674C16.4149 44.0469 17.128 45.2114 18.2887 46.3717C19.4485 47.5328 20.6131 48.2477 21.9851 48.7808C23.3132 49.297 24.8304 49.6488 27.0522 49.7506C29.2787 49.8519 29.9897 49.8767 35.6582 49.8767C41.3276 49.8767 42.0368 49.8519 44.2633 49.7506C46.4855 49.6488 48.0041 49.297 49.3322 48.7808C50.7046 48.2477 51.8674 47.5328 53.0272 46.3717C54.1883 45.2114 54.9015 44.0469 55.4364 42.6744C55.9495 41.3468 56.3018 39.8295 56.4062 37.6082C56.5062 35.3817 56.5323 34.672 56.5323 29.0031C56.5323 23.3341 56.5062 22.6227 56.4062 20.3961C56.3018 18.174 55.9495 16.6572 55.4364 15.3299C54.9015 13.9571 54.1883 12.7925 53.0272 11.6323C51.8661 10.4712 50.705 9.75797 49.3309 9.22526C48.0002 8.70907 46.4825 8.35727 44.2603 8.25551C42.0338 8.15418 41.3249 8.12939 35.6543 8.12939H35.6604ZM33.7878 11.891C34.3436 11.8901 34.9637 11.891 35.6604 11.891C41.2336 11.891 41.8942 11.911 44.0951 12.011C46.1302 12.1041 47.2348 12.4442 47.9706 12.7299C48.9447 13.1082 49.6392 13.5605 50.3693 14.291C51.0999 15.0216 51.5522 15.7174 51.9314 16.6915C52.2171 17.4264 52.5576 18.531 52.6502 20.5662C52.7502 22.7666 52.772 23.4276 52.772 28.9983C52.772 34.5689 52.7502 35.2299 52.6502 37.4304C52.5571 39.4655 52.2171 40.5701 51.9314 41.305C51.553 42.2791 51.0999 42.9727 50.3693 43.7029C49.6387 44.4335 48.9451 44.8857 47.9706 45.2641C47.2357 45.5511 46.1302 45.8903 44.0951 45.9833C41.8946 46.0834 41.2336 46.1051 35.6604 46.1051C30.0867 46.1051 29.4261 46.0834 27.2257 45.9833C25.1905 45.8894 24.0859 45.5493 23.3497 45.2636C22.3756 44.8853 21.6798 44.433 20.9492 43.7025C20.2186 42.9719 19.7664 42.2778 19.3872 41.3033C19.1015 40.5684 18.761 39.4638 18.6683 37.4286C18.5683 35.2282 18.5483 34.5672 18.5483 28.993C18.5483 23.4189 18.5683 22.7614 18.6683 20.561C18.7614 18.5258 19.1015 17.4212 19.3872 16.6854C19.7655 15.7113 20.2186 15.0155 20.9492 14.2849C21.6798 13.5544 22.3756 13.1021 23.3497 12.7229C24.0855 12.4359 25.1905 12.0967 27.2257 12.0032C29.1513 11.9162 29.8975 11.8901 33.7878 11.8858V11.891ZM46.8025 15.3569C46.3071 15.3569 45.8228 15.5038 45.4108 15.7791C44.9989 16.0544 44.6778 16.4456 44.4883 16.9034C44.2987 17.3611 44.2492 17.8648 44.3459 18.3507C44.4426 18.8366 44.6813 19.283 45.0317 19.6332C45.3821 19.9835 45.8285 20.222 46.3144 20.3186C46.8004 20.4151 47.304 20.3654 47.7617 20.1757C48.2194 19.9859 48.6105 19.6648 48.8857 19.2527C49.1608 18.8407 49.3076 18.3563 49.3074 17.8609C49.3074 16.478 48.1854 15.356 46.8025 15.356V15.3569ZM35.6604 18.2836C29.7405 18.2836 24.9409 23.0832 24.9409 29.0031C24.9409 34.9229 29.7405 39.7204 35.6604 39.7204C41.5802 39.7204 46.3785 34.9229 46.3785 29.0031C46.3785 23.0832 41.5798 18.2836 35.6599 18.2836H35.6604ZM35.6604 22.0452C39.5028 22.0452 42.6182 25.1601 42.6182 29.0031C42.6182 32.8455 39.5028 35.9609 35.6604 35.9609C31.8174 35.9609 28.7025 32.8455 28.7025 29.0031C28.7025 25.1601 31.8174 22.0452 35.6604 22.0452Z" fill="white"/>
<path d="M0.528076 70.0692H1.25557V76.9508H0.528076V70.0692Z" fill="#757575"/>
<path d="M5.98188 71.7404C6.63072 71.7404 7.14521 71.9305 7.52534 72.3106C7.91202 72.6842 8.10537 73.2314 8.10537 73.9524V76.9508H7.40737V74.0212C7.40737 73.4838 7.27301 73.0741 7.0043 72.7923C6.73559 72.5105 6.35218 72.3696 5.85408 72.3696C5.29699 72.3696 4.8546 72.5367 4.5269 72.871C4.20575 73.1987 4.04518 73.6542 4.04518 74.2375V76.9508H3.34718V71.7797H4.01569V72.7333C4.20575 72.4188 4.46791 72.1763 4.80216 72.0059C5.14297 71.8289 5.53621 71.7404 5.98188 71.7404Z" fill="#757575"/>
<path d="M11.3865 77C10.9671 77 10.564 76.941 10.1773 76.823C9.79719 76.6985 9.49898 76.5445 9.2827 76.361L9.59729 75.8104C9.81357 75.9808 10.0856 76.1217 10.4133 76.2332C10.741 76.338 11.0818 76.3905 11.4357 76.3905C11.9076 76.3905 12.2549 76.3184 12.4778 76.1742C12.7072 76.0234 12.8218 75.8137 12.8218 75.545C12.8218 75.3549 12.7596 75.2075 12.6351 75.1026C12.5105 74.9912 12.3532 74.9093 12.1632 74.8568C11.9731 74.7978 11.7208 74.7421 11.4062 74.6897C10.9867 74.6111 10.6492 74.5324 10.3936 74.4538C10.138 74.3686 9.91844 74.2276 9.73493 74.031C9.55797 73.8344 9.46949 73.5624 9.46949 73.2151C9.46949 72.7825 9.64972 72.4286 10.0102 72.1533C10.3707 71.878 10.872 71.7404 11.5143 71.7404C11.8486 71.7404 12.1828 71.7863 12.5171 71.878C12.8513 71.9632 13.1266 72.0779 13.3429 72.2221L13.0381 72.7825C12.6121 72.4876 12.1042 72.3401 11.5143 72.3401C11.0687 72.3401 10.7311 72.4188 10.5017 72.576C10.2789 72.7333 10.1675 72.9398 10.1675 73.1954C10.1675 73.392 10.2298 73.5493 10.3543 73.6673C10.4854 73.7853 10.6459 73.8737 10.836 73.9327C11.0261 73.9852 11.2882 74.0409 11.6225 74.0998C12.0354 74.1785 12.3663 74.2571 12.6154 74.3358C12.8644 74.4144 13.0775 74.5488 13.2544 74.7389C13.4314 74.9289 13.5198 75.1911 13.5198 75.5253C13.5198 75.9776 13.3298 76.338 12.9496 76.6067C12.5761 76.8689 12.055 77 11.3865 77Z" fill="#757575"/>
<path d="M17.5334 76.6362C17.4023 76.7542 17.2385 76.846 17.0419 76.9115C16.8518 76.9705 16.6519 77 16.4422 77C15.9572 77 15.5836 76.8689 15.3214 76.6067C15.0593 76.3446 14.9282 75.9743 14.9282 75.4958V72.3696H14.0041V71.7797H14.9282V70.6492H15.6262V71.7797H17.1992V72.3696H15.6262V75.4565C15.6262 75.7646 15.7016 76.0005 15.8523 76.1643C16.0096 76.3216 16.2324 76.4003 16.5208 76.4003C16.665 76.4003 16.8026 76.3774 16.9337 76.3315C17.0714 76.2856 17.1893 76.2201 17.2876 76.1349L17.5334 76.6362Z" fill="#757575"/>
<path d="M20.613 71.7404C21.288 71.7404 21.8058 71.9108 22.1663 72.2516C22.5267 72.5859 22.707 73.084 22.707 73.7459V76.9508H22.0385V76.1447C21.8812 76.4134 21.6485 76.6231 21.3405 76.7739C21.039 76.9246 20.6785 77 20.259 77C19.6823 77 19.2235 76.8623 18.8827 76.5871C18.5419 76.3118 18.3715 75.9481 18.3715 75.4958C18.3715 75.0567 18.5288 74.7028 18.8434 74.4341C19.1645 74.1654 19.6725 74.031 20.3672 74.031H22.009V73.7164C22.009 73.2708 21.8844 72.9332 21.6354 72.7038C21.3863 72.4679 21.0226 72.3499 20.5441 72.3499C20.2164 72.3499 19.9019 72.4056 19.6004 72.5171C19.2989 72.6219 19.04 72.7694 18.8237 72.9595L18.5091 72.4384C18.7713 72.2156 19.0859 72.0452 19.4529 71.9272C19.8199 71.8027 20.2066 71.7404 20.613 71.7404ZM20.3672 76.4494C20.7604 76.4494 21.098 76.361 21.3798 76.184C21.6616 76.0005 21.8713 75.7383 22.009 75.3975V74.5521H20.3868C19.5021 74.5521 19.0597 74.8601 19.0597 75.4762C19.0597 75.7777 19.1744 76.0169 19.4038 76.1938C19.6331 76.3642 19.9543 76.4494 20.3672 76.4494Z" fill="#757575"/>
<path d="M29.4097 71.7797V76.3216C29.4097 77.1999 29.1934 77.8487 28.7608 78.2682C28.3348 78.6942 27.6893 78.9072 26.8241 78.9072C26.3457 78.9072 25.8902 78.8351 25.4576 78.6909C25.0316 78.5533 24.6843 78.3599 24.4155 78.1109L24.7695 77.58C25.0185 77.8028 25.32 77.9765 25.6739 78.101C26.0344 78.2256 26.4112 78.2878 26.8045 78.2878C27.4599 78.2878 27.9416 78.1338 28.2496 77.8258C28.5577 77.5243 28.7117 77.0524 28.7117 76.4101V75.7514C28.4954 76.0791 28.2103 76.3282 27.8564 76.4986C27.509 76.669 27.1223 76.7542 26.6963 76.7542C26.2113 76.7542 25.7689 76.6493 25.3692 76.4396C24.9759 76.2233 24.6646 75.9251 24.4352 75.545C24.2124 75.1583 24.101 74.7225 24.101 74.2375C24.101 73.7525 24.2124 73.3199 24.4352 72.9398C24.6646 72.5597 24.9759 72.2647 25.3692 72.055C25.7624 71.8453 26.2048 71.7404 26.6963 71.7404C27.1354 71.7404 27.532 71.8289 27.8859 72.0059C28.2398 72.1828 28.5249 72.4384 28.7412 72.7727V71.7797H29.4097ZM26.7651 76.1349C27.1387 76.1349 27.4763 76.0562 27.7777 75.8989C28.0792 75.7351 28.3119 75.509 28.4757 75.2206C28.6461 74.9322 28.7313 74.6045 28.7313 74.2375C28.7313 73.8705 28.6461 73.546 28.4757 73.2642C28.3119 72.9758 28.0792 72.753 27.7777 72.5957C27.4828 72.4319 27.1453 72.3499 26.7651 72.3499C26.3916 72.3499 26.054 72.4286 25.7526 72.5859C25.4576 72.7432 25.225 72.966 25.0546 73.2544C24.8907 73.5428 24.8088 73.8705 24.8088 74.2375C24.8088 74.6045 24.8907 74.9322 25.0546 75.2206C25.225 75.509 25.4576 75.7351 25.7526 75.8989C26.054 76.0562 26.3916 76.1349 26.7651 76.1349Z" fill="#757575"/>
<path d="M32.0301 72.7923C32.1939 72.445 32.4364 72.1828 32.7576 72.0059C33.0853 71.8289 33.4883 71.7404 33.9668 71.7404V72.4188L33.7997 72.4089C33.2557 72.4089 32.8297 72.576 32.5216 72.9103C32.2136 73.2446 32.0596 73.7132 32.0596 74.3161V76.9508H31.3616V71.7797H32.0301V72.7923Z" fill="#757575"/>
<path d="M37.0299 71.7404C37.705 71.7404 38.2227 71.9108 38.5832 72.2516C38.9437 72.5859 39.1239 73.084 39.1239 73.7459V76.9508H38.4554V76.1447C38.2981 76.4134 38.0654 76.6231 37.7574 76.7739C37.4559 76.9246 37.0954 77 36.676 77C36.0992 77 35.6405 76.8623 35.2996 76.5871C34.9588 76.3118 34.7884 75.9481 34.7884 75.4958C34.7884 75.0567 34.9457 74.7028 35.2603 74.4341C35.5815 74.1654 36.0894 74.031 36.7841 74.031H38.4259V73.7164C38.4259 73.2708 38.3014 72.9332 38.0523 72.7038C37.8033 72.4679 37.4395 72.3499 36.9611 72.3499C36.6334 72.3499 36.3188 72.4056 36.0173 72.5171C35.7158 72.6219 35.4569 72.7694 35.2407 72.9595L34.9261 72.4384C35.1882 72.2156 35.5028 72.0452 35.8698 71.9272C36.2369 71.8027 36.6236 71.7404 37.0299 71.7404ZM36.7841 76.4494C37.1774 76.4494 37.5149 76.361 37.7967 76.184C38.0785 76.0005 38.2883 75.7383 38.4259 75.3975V74.5521H36.8038C35.919 74.5521 35.4766 74.8601 35.4766 75.4762C35.4766 75.7777 35.5913 76.0169 35.8207 76.1938C36.0501 76.3642 36.3712 76.4494 36.7841 76.4494Z" fill="#757575"/>
<path d="M47.4688 71.7404C48.1177 71.7404 48.6256 71.9272 48.9926 72.3008C49.3662 72.6744 49.553 73.2249 49.553 73.9524V76.9508H48.855V74.0212C48.855 73.4838 48.7239 73.0741 48.4618 72.7923C48.2062 72.5105 47.8424 72.3696 47.3705 72.3696C46.8331 72.3696 46.4104 72.5367 46.1023 72.871C45.7943 73.1987 45.6403 73.6542 45.6403 74.2375V76.9508H44.9423V74.0212C44.9423 73.4838 44.8112 73.0741 44.549 72.7923C44.2934 72.5105 43.9264 72.3696 43.448 72.3696C42.9171 72.3696 42.4944 72.5367 42.1798 72.871C41.8717 73.1987 41.7177 73.6542 41.7177 74.2375V76.9508H41.0197V71.7797H41.6882V72.7235C41.8717 72.4089 42.1274 72.1664 42.4551 71.996C42.7828 71.8256 43.1596 71.7404 43.5856 71.7404C44.0182 71.7404 44.3918 71.8322 44.7063 72.0157C45.0275 72.1992 45.2667 72.4712 45.424 72.8317C45.6141 72.4908 45.8861 72.2254 46.24 72.0353C46.6004 71.8387 47.0101 71.7404 47.4688 71.7404Z" fill="#757575"/>
<path d="M58.4821 75.1124H54.6481L53.8223 76.9508H53.0653L56.2112 70.0692H56.9288L60.0747 76.9508H59.3079L58.4821 75.1124ZM58.2167 74.5226L56.5651 70.8261L54.9135 74.5226H58.2167Z" fill="#757575"/>
<path d="M65.7365 69.6562V76.9508H65.068V75.9284C64.8583 76.2758 64.5798 76.5412 64.2324 76.7247C63.8916 76.9082 63.5049 77 63.0723 77C62.5874 77 62.1482 76.8886 61.755 76.6657C61.3618 76.4429 61.0537 76.1316 60.8309 75.7318C60.6081 75.332 60.4966 74.8765 60.4966 74.3653C60.4966 73.8541 60.6081 73.3986 60.8309 72.9988C61.0537 72.599 61.3618 72.2909 61.755 72.0747C62.1482 71.8518 62.5874 71.7404 63.0723 71.7404C63.4918 71.7404 63.8687 71.8289 64.2029 72.0059C64.5437 72.1763 64.8223 72.4286 65.0385 72.7628V69.6562H65.7365ZM63.1313 76.3806C63.4918 76.3806 63.8162 76.2987 64.1046 76.1349C64.3995 75.9645 64.6289 75.7252 64.7928 75.4172C64.9632 75.1092 65.0484 74.7585 65.0484 74.3653C65.0484 73.972 64.9632 73.6214 64.7928 73.3134C64.6289 73.0053 64.3995 72.7694 64.1046 72.6055C63.8162 72.4351 63.4918 72.3499 63.1313 72.3499C62.7643 72.3499 62.4333 72.4351 62.1384 72.6055C61.85 72.7694 61.6206 73.0053 61.4502 73.3134C61.2864 73.6214 61.2045 73.972 61.2045 74.3653C61.2045 74.7585 61.2864 75.1092 61.4502 75.4172C61.6206 75.7252 61.85 75.9645 62.1384 76.1349C62.4333 76.2987 62.7643 76.3806 63.1313 76.3806Z" fill="#757575"/>
<path d="M69.0666 77C68.6472 77 68.2441 76.941 67.8574 76.823C67.4773 76.6985 67.1791 76.5445 66.9628 76.361L67.2774 75.8104C67.4937 75.9808 67.7657 76.1217 68.0934 76.2332C68.4211 76.338 68.7619 76.3905 69.1158 76.3905C69.5877 76.3905 69.935 76.3184 70.1579 76.1742C70.3872 76.0234 70.5019 75.8137 70.5019 75.545C70.5019 75.3549 70.4397 75.2075 70.3151 75.1026C70.1906 74.9912 70.0333 74.9093 69.8433 74.8568C69.6532 74.7978 69.4009 74.7421 69.0863 74.6897C68.6668 74.6111 68.3293 74.5324 68.0737 74.4538C67.8181 74.3686 67.5985 74.2276 67.415 74.031C67.2381 73.8344 67.1496 73.5624 67.1496 73.2151C67.1496 72.7825 67.3298 72.4286 67.6903 72.1533C68.0508 71.878 68.5521 71.7404 69.1944 71.7404C69.5287 71.7404 69.8629 71.7863 70.1972 71.878C70.5314 71.9632 70.8067 72.0779 71.023 72.2221L70.7182 72.7825C70.2922 72.4876 69.7843 72.3401 69.1944 72.3401C68.7487 72.3401 68.4112 72.4188 68.1818 72.576C67.959 72.7333 67.8476 72.9398 67.8476 73.1954C67.8476 73.392 67.9098 73.5493 68.0344 73.6673C68.1654 73.7853 68.326 73.8737 68.5161 73.9327C68.7062 73.9852 68.9683 74.0409 69.3026 74.0998C69.7155 74.1785 70.0464 74.2571 70.2955 74.3358C70.5445 74.4144 70.7575 74.5488 70.9345 74.7389C71.1115 74.9289 71.1999 75.1911 71.1999 75.5253C71.1999 75.9776 71.0099 76.338 70.6297 76.6067C70.2562 76.8689 69.7351 77 69.0666 77Z" fill="#757575"/>
<defs>
<radialGradient id="paint0_radial_65_39" cx="0" cy="0" r="1" gradientUnits="userSpaceOnUse" gradientTransform="translate(22.412 61.6187) rotate(-90) scale(56.0235 52.1204)">
<stop stop-color="#FFDD55"/>
<stop offset="0.1" stop-color="#FFDD55"/>
<stop offset="0.5" stop-color="#FF543E"/>
<stop offset="1" stop-color="#C837AB"/>
</radialGradient>
<radialGradient id="paint1_radial_65_39" cx="0" cy="0" r="1" gradientUnits="userSpaceOnUse" gradientTransform="translate(-2.07875 4.809) rotate(78.6776) scale(25.043 103.254)">
<stop stop-color="#3771C8"/>
<stop offset="0.128" stop-color="#3771C8"/>
<stop offset="1" stop-color="#6600FF" stop-opacity="0"/>
</radialGradient>
</defs>
</svg>
