<svg width="422" height="355" viewBox="0 0 422 355" fill="none" xmlns="http://www.w3.org/2000/svg">
<path d="M210.035 7.79884C292.269 -26.0619 373.301 64.7194 408.565 143.682C443.828 222.645 405.757 314.111 323.517 347.971C241.276 381.832 41.2465 282.785 5.9766 203.822C-29.2932 124.859 127.794 41.6596 210.035 7.79884Z" fill="url(#paint0_linear_303_235)"/>
<g clip-path="url(#clip0_303_235)">
<path d="M339.541 293.794C339.518 293.885 339.497 293.957 339.478 294.013H67.2075C67.189 293.957 67.168 293.885 67.1453 293.794C67.0551 293.432 66.9626 292.873 66.8715 292.117C66.69 290.611 66.522 288.385 66.379 285.523C66.0931 279.801 65.9321 272.038 65.9316 263.936V84.07C65.9321 75.9683 66.0931 68.2048 66.379 62.4832C66.522 59.6209 66.69 57.3953 66.8715 55.8888C66.9626 55.1326 67.0551 54.5742 67.1453 54.2117C67.168 54.1207 67.189 54.0484 67.2075 53.9924H339.478C339.497 54.0484 339.518 54.1207 339.541 54.2117C339.631 54.5742 339.723 55.1326 339.814 55.8888C339.996 57.3953 340.164 59.6209 340.307 62.4832C340.593 68.2048 340.754 75.9683 340.754 84.0701V263.936C340.754 272.038 340.593 279.801 340.307 285.523C340.164 288.385 339.996 290.611 339.814 292.117C339.723 292.873 339.631 293.432 339.541 293.794ZM67.2638 53.8539C67.2638 53.8539 67.2635 53.8543 67.263 53.8551L67.2638 53.8539ZM339.422 53.8539C339.422 53.8539 339.422 53.8543 339.423 53.8551L339.422 53.8539Z" fill="white" stroke="#E4E4E4"/>
<path d="M306.457 279.636L318.375 286.559L306.626 283.722C306.717 284.693 306.84 285.646 307.004 286.58C307.049 286.839 307.099 287.093 307.152 287.348C307.554 289.491 308.281 291.56 309.31 293.482C309.507 293.836 309.704 294.181 309.91 294.514C310.107 294.851 310.312 295.176 310.522 295.492H342.111C342.374 295.176 342.625 294.847 342.855 294.514C345.107 291.342 346.02 287.41 345.394 283.57C345.28 282.789 345.115 282.016 344.901 281.256C344.694 280.479 344.443 279.714 344.149 278.966C343.636 277.643 343.031 276.359 342.337 275.122C340.89 272.515 338.634 270.164 335.976 268.075C334.688 267.07 333.347 266.137 331.957 265.28C331.694 265.111 331.426 264.947 331.155 264.787C330.74 264.54 330.325 264.297 329.906 264.063C329.072 263.586 328.229 263.134 327.387 262.706C327.165 262.591 326.947 262.48 326.729 262.373C324.901 261.461 323.08 260.643 321.346 259.923C321.128 259.833 320.906 259.742 320.689 259.656C317.239 258.244 313.71 257.035 310.119 256.034C310.119 256.034 310.107 256.067 310.086 256.137C310.033 256.326 309.897 256.782 309.712 257.456C309.199 259.327 308.294 262.895 307.567 267.204C307.526 267.438 307.489 267.677 307.448 267.915C306.84 271.559 306.504 275.243 306.441 278.937C306.437 279.167 306.437 279.393 306.437 279.624L306.457 279.636Z" fill="#F2F2F2"/>
<path d="M309.248 255.615C309.252 255.627 309.293 255.828 309.388 256.199C309.466 256.507 309.572 256.93 309.712 257.457C310.193 259.294 311.048 262.373 312.264 266.082C312.334 266.295 312.408 266.517 312.482 266.739C313.329 269.276 314.335 272.08 315.498 274.962C315.79 275.685 316.082 276.396 316.382 277.091C316.472 277.309 316.563 277.523 316.657 277.732C317.931 280.684 319.242 283.385 320.59 285.835L320.931 286.448C322.498 289.291 324.311 291.99 326.351 294.514C326.627 294.851 326.906 295.176 327.19 295.492H328.143C327.855 295.176 327.568 294.847 327.288 294.514C325.131 291.902 323.223 289.095 321.589 286.127C321.473 285.926 321.358 285.724 321.247 285.519C319.797 282.884 318.478 280.129 317.298 277.399C317.204 277.19 317.113 276.976 317.023 276.758C315.482 273.149 314.187 269.601 313.144 266.476C313.07 266.254 312.996 266.032 312.926 265.814C311.405 261.202 310.452 257.584 310.086 256.137C310.037 255.923 309.996 255.755 309.967 255.639C309.938 255.533 309.926 255.471 309.922 255.459L309.589 255.537H309.585L309.248 255.615Z" fill="white"/>
<path d="M306.827 267.964C307.033 267.952 307.242 267.936 307.448 267.915C309.171 267.751 310.864 267.356 312.482 266.739C312.704 266.657 312.926 266.567 313.144 266.476C313.785 266.203 314.412 265.895 315.022 265.555C317.522 264.172 319.683 262.248 321.346 259.923C321.399 259.853 321.449 259.783 321.498 259.713C321.276 259.623 321.058 259.533 320.845 259.442C320.795 259.512 320.742 259.586 320.689 259.656C319.094 261.834 317.046 263.64 314.685 264.947C314.114 265.266 313.527 265.556 312.926 265.814C312.704 265.909 312.482 265.995 312.264 266.082C310.754 266.66 309.175 267.037 307.567 267.204C307.358 267.224 307.148 267.245 306.938 267.257C306.901 267.488 306.864 267.722 306.827 267.964Z" fill="white"/>
<path d="M305.898 278.879C305.898 279.114 305.903 279.344 305.903 279.578C306.087 279.599 306.272 279.619 306.457 279.636C309.967 279.943 313.494 279.285 316.657 277.732C316.871 277.626 317.084 277.515 317.298 277.399C317.384 277.358 317.471 277.309 317.553 277.264C320.221 275.782 322.501 273.691 324.21 271.162C325.919 268.632 327.007 265.735 327.387 262.706C327.399 262.636 327.407 262.571 327.415 262.501C327.198 262.386 326.976 262.275 326.754 262.16C326.746 262.23 326.737 262.304 326.729 262.373C326.395 265.34 325.358 268.184 323.703 270.668C322.048 273.152 319.824 275.205 317.216 276.655C317.154 276.694 317.089 276.728 317.023 276.758C316.813 276.877 316.599 276.988 316.382 277.091C313.301 278.611 309.861 279.249 306.441 278.937C306.26 278.921 306.079 278.9 305.898 278.879Z" fill="white"/>
<path d="M306.531 286.419C306.581 286.682 306.634 286.945 306.696 287.209C306.848 287.258 307 287.307 307.152 287.348C311.7 288.75 316.604 288.43 320.931 286.448C321.149 286.345 321.371 286.238 321.589 286.127C321.819 286.012 322.049 285.889 322.279 285.761C325.228 284.122 327.699 281.742 329.448 278.856C331.198 275.97 332.166 272.679 332.257 269.305C332.298 267.956 332.197 266.607 331.957 265.28C331.948 265.218 331.936 265.161 331.924 265.099C331.657 264.926 331.385 264.758 331.114 264.589C331.131 264.655 331.143 264.721 331.155 264.787C331.368 265.755 331.5 266.74 331.55 267.73C331.741 271.244 330.941 274.741 329.242 277.822C327.542 280.904 325.011 283.445 321.938 285.157C321.712 285.28 321.482 285.404 321.247 285.519C321.03 285.63 320.812 285.737 320.59 285.835C319.881 286.158 319.152 286.436 318.408 286.666C314.69 287.824 310.704 287.794 307.004 286.58C306.844 286.53 306.688 286.477 306.531 286.419Z" fill="white"/>
<path d="M332.456 171.818H355.469V148.796H332.456V171.818Z" fill="#FFB8B8"/>
<path d="M369.821 286.392L365.286 286.392L363.13 268.896L369.821 268.896L369.821 286.392Z" fill="#FFB8B8"/>
<path d="M356.546 293.087C356.548 293.595 356.751 294.082 357.11 294.441C357.47 294.8 357.957 295.002 358.465 295.003H366.996L367.164 294.653L368.467 291.965L368.977 294.653L369.042 295.003H372.26L372.231 294.653L371.356 284.154L369.819 284.063L364.962 283.771L364.189 283.726V286.797L357.376 291.504C357.119 291.681 356.91 291.918 356.765 292.193C356.621 292.469 356.545 292.776 356.546 293.087Z" fill="#2F2E41"/>
<path d="M343.304 283.512L338.946 284.766L332.039 268.548L338.47 266.698L343.304 283.512Z" fill="#FFB8B8"/>
<path d="M332.394 293.617C332.538 294.105 332.867 294.516 333.312 294.762C333.757 295.008 334.281 295.068 334.769 294.929L335.727 294.653L341.024 293.128L342.972 292.569L343.543 289.243L344.936 292.006L348.027 291.114L344.16 280.939L342.66 281.276L342.121 281.395L337.909 282.341L337.153 282.509L338.004 285.461L332.756 291.87C332.559 292.111 332.423 292.395 332.361 292.699C332.298 293.004 332.309 293.319 332.394 293.617Z" fill="#2F2E41"/>
<path d="M316.845 241.27C316.461 240.258 316.319 239.169 316.431 238.092C316.543 237.015 316.906 235.979 317.49 235.068L327.936 180.862L332.045 160.307H356.702C356.702 160.307 372.112 177.368 368.825 199.157L369.745 229.842C370.618 231.947 370.833 234.267 370.363 236.496L369.996 238.232L370.138 238.493C370.81 239.739 371.172 241.129 371.191 242.544C371.21 243.96 370.887 245.359 370.248 246.622L370.174 271.14L362.777 270.729L353.003 240.473L345.812 204.09L333.689 232.251L333.278 238.829L333.477 244.627L339.232 267.964L331.218 271.048L316.845 241.27Z" fill="#2F2E41"/>
<path d="M412.942 295.492H293.861C293.731 295.492 293.607 295.441 293.515 295.349C293.423 295.257 293.372 295.133 293.372 295.003C293.372 294.873 293.423 294.749 293.515 294.657C293.607 294.565 293.731 294.513 293.861 294.513H412.942C413.072 294.514 413.196 294.566 413.287 294.657C413.379 294.749 413.43 294.873 413.43 295.003C413.43 295.133 413.379 295.257 413.287 295.349C413.196 295.44 413.072 295.492 412.942 295.492V295.492Z" fill="#CCCCCC"/>
<path d="M287.545 95.1513C294.33 95.1513 299.831 89.6484 299.831 82.8601C299.831 76.0718 294.33 70.5689 287.545 70.5689C280.759 70.5689 275.258 76.0718 275.258 82.8601C275.258 89.6484 280.759 95.1513 287.545 95.1513Z" fill="#1877F2"/>
<path d="M293.851 77.7375C293.667 77.5611 293.421 77.4627 293.165 77.4627C292.91 77.4627 292.664 77.5611 292.48 77.7375C289.873 79.8175 287.531 82.2102 285.508 84.8618C285.011 83.9002 284.514 82.9387 284.017 81.9771C283.444 80.8672 281.769 81.8476 282.342 82.9566C283.069 84.3631 283.795 85.7695 284.522 87.1759C284.883 87.8739 285.805 87.7314 286.197 87.1759C288.353 84.1378 290.931 81.4219 293.851 79.1098C294.032 78.9271 294.133 78.6805 294.133 78.4237C294.133 78.1668 294.032 77.9202 293.851 77.7375Z" fill="white"/>
<path d="M298.962 91.6038C298.848 91.8226 298.714 92.0308 298.563 92.2258L319.419 107.547L343.136 115.246C344.628 115.731 345.881 116.763 346.643 118.135C347.404 119.507 347.616 121.117 347.238 122.64C346.859 124.163 345.917 125.485 344.602 126.341C343.287 127.196 341.697 127.521 340.152 127.249H340.152C335.145 126.37 330.306 124.715 325.81 122.344L310.965 114.515L293.007 93.1185C292.351 92.674 291.838 92.0495 291.529 91.3202C291.22 90.5909 291.129 89.7878 291.265 89.0076C291.402 88.2274 291.761 87.5034 292.3 86.9225C292.838 86.3417 293.532 85.9289 294.3 85.7337C295.067 85.5385 295.874 85.5693 296.625 85.8224C297.375 86.0755 298.036 86.54 298.529 87.1602C299.021 87.7804 299.324 88.5297 299.401 89.318C299.478 90.1064 299.325 90.9001 298.962 91.6038V91.6038Z" fill="#FFB8B8"/>
<path d="M316.343 117.455L320.905 107.425L343.667 112.052C344.804 112.64 345.815 113.446 346.64 114.424C347.466 115.402 348.092 116.533 348.48 117.753C348.869 118.973 349.014 120.258 348.907 121.533C348.799 122.809 348.442 124.051 347.854 125.189C347.267 126.327 346.462 127.337 345.484 128.164C344.506 128.99 343.375 129.615 342.156 130.004C339.693 130.79 337.02 130.565 334.723 129.378L316.343 117.455Z" fill="#2F2E41"/>
<path d="M339.726 65.5403H66.9595C66.5544 65.5398 66.1661 65.3786 65.8796 65.0921C65.5932 64.8055 65.4321 64.417 65.4316 64.0118V55.0209C65.4321 54.6157 65.5932 54.2272 65.8796 53.9406C66.1661 53.6541 66.5544 53.4929 66.9595 53.4924H339.726C340.131 53.4929 340.52 53.6541 340.806 53.9406C341.093 54.2272 341.254 54.6157 341.254 55.0209V64.0118C341.254 64.4171 341.093 64.8056 340.806 65.0921C340.52 65.3786 340.131 65.5398 339.726 65.5403Z" fill="#E4E4E4"/>
<path d="M74.2983 61.2479C75.4963 61.2479 76.4675 60.2763 76.4675 59.0778C76.4675 57.8793 75.4963 56.9078 74.2983 56.9078C73.1003 56.9078 72.1292 57.8793 72.1292 59.0778C72.1292 60.2763 73.1003 61.2479 74.2983 61.2479Z" fill="white"/>
<path d="M82.532 61.2479C83.73 61.2479 84.7011 60.2763 84.7011 59.0778C84.7011 57.8793 83.73 56.9078 82.532 56.9078C81.334 56.9078 80.3628 57.8793 80.3628 59.0778C80.3628 60.2763 81.334 61.2479 82.532 61.2479Z" fill="white"/>
<path d="M90.7656 61.2479C91.9636 61.2479 92.9348 60.2763 92.9348 59.0778C92.9348 57.8793 91.9636 56.9078 90.7656 56.9078C89.5676 56.9078 88.5964 57.8793 88.5964 59.0778C88.5964 60.2763 89.5676 61.2479 90.7656 61.2479Z" fill="white"/>
<path d="M331.659 57.5842H322.178C321.992 57.5842 321.813 57.5102 321.682 57.3784C321.55 57.2466 321.476 57.0679 321.476 56.8816C321.476 56.6953 321.55 56.5166 321.682 56.3848C321.813 56.253 321.992 56.179 322.178 56.179H331.659C331.846 56.179 332.024 56.253 332.156 56.3848C332.288 56.5166 332.362 56.6953 332.362 56.8816C332.362 57.0679 332.288 57.2466 332.156 57.3784C332.024 57.5102 331.846 57.5842 331.659 57.5842Z" fill="white"/>
<path d="M331.659 60.2189H322.178C321.992 60.2189 321.813 60.1449 321.682 60.0131C321.55 59.8814 321.476 59.7027 321.476 59.5163C321.476 59.33 321.55 59.1513 321.682 59.0195C321.813 58.8878 321.992 58.8137 322.178 58.8137H331.659C331.846 58.8137 332.024 58.8878 332.156 59.0195C332.288 59.1513 332.362 59.33 332.362 59.5163C332.362 59.7027 332.288 59.8814 332.156 60.0131C332.024 60.1449 331.846 60.2189 331.659 60.2189Z" fill="white"/>
<path d="M331.659 62.8536H322.178C321.992 62.8536 321.813 62.7796 321.682 62.6479C321.55 62.5161 321.476 62.3374 321.476 62.151C321.476 61.9647 321.55 61.786 321.682 61.6542C321.813 61.5225 321.992 61.4485 322.178 61.4485H331.659C331.846 61.4485 332.024 61.5225 332.156 61.6542C332.288 61.786 332.362 61.9647 332.362 62.151C332.362 62.3374 332.288 62.5161 332.156 62.6479C332.024 62.7796 331.846 62.8536 331.659 62.8536Z" fill="white"/>
<path d="M261.522 178.104H145.164C141.569 178.1 138.121 176.669 135.579 174.125C133.036 171.581 131.606 168.133 131.602 164.536V101.136C131.606 97.5389 133.036 94.0903 135.579 91.5468C138.121 89.0033 141.569 87.5727 145.164 87.5688H261.522C265.117 87.5727 268.565 89.0033 271.107 91.5468C273.65 94.0903 275.08 97.5389 275.084 101.136V164.536C275.08 168.133 273.65 171.581 271.107 174.125C268.565 176.669 265.117 178.1 261.522 178.104V178.104Z" fill="#F2F2F2"/>
<path d="M231.583 119.806C232.52 119.398 230.62 119.16 228.466 119.082C226.311 119.004 223.704 119.008 222.327 118.786C220.996 118.571 221.094 118.188 220.982 117.842C220.87 117.495 220.358 117.14 218.28 117.063C215.69 116.967 211.42 117.336 209.465 117.115C207.641 116.908 208.725 116.258 206.065 116.234C204.546 116.219 202.59 116.433 200.9 116.485C199.701 116.537 198.501 116.475 197.315 116.298C196.491 116.163 195.918 115.992 194.99 115.873C192.556 115.56 187.794 115.665 183.544 116.066C179.293 116.467 175.65 117.125 173.595 117.776C171.54 118.428 170.972 119.069 171.451 119.613C171.757 119.96 172.539 120.285 174.436 120.425C177.985 120.686 184.303 120.236 187.97 120.474C190.013 120.606 190.92 120.934 192.713 121.114C194.64 121.307 197.46 121.317 200.231 121.312C206 121.303 211.916 121.244 217.95 121.135C220.47 121.089 223.11 121.03 225.791 120.814C228.473 120.597 231.208 120.18 231.774 119.788" fill="#E6E7E8"/>
<path d="M251.835 112.577C251.791 112.462 251.742 112.349 251.691 112.238C251.773 112.27 251.855 112.305 251.935 112.343L251.835 112.577Z" fill="#CCCCCC"/>
<path d="M208.077 126.427C207.332 125.194 206.45 123.878 205.067 123.476C203.466 123.01 201.822 123.936 200.427 124.849C196.256 127.582 192.238 130.543 188.394 133.719L188.398 133.767L197.377 133.147C199.54 132.998 201.777 132.828 203.688 131.805C204.413 131.417 205.12 130.898 205.942 130.862C206.963 130.817 207.853 131.53 208.553 132.275C212.691 136.684 213.889 143.426 218.531 147.299C215.604 140.076 212.108 133.097 208.077 126.427V126.427Z" fill="#E6E7E8"/>
<path d="M233.515 163.82C233.058 163.241 232.871 163.106 232.419 162.523C228.744 157.767 225.289 152.85 222.055 147.773C219.858 144.325 217.771 140.811 215.792 137.23C214.85 135.528 213.934 133.812 213.043 132.083C212.352 130.743 211.677 129.394 211.017 128.038C210.828 127.65 210.644 127.261 210.462 126.871C210.032 125.953 209.61 125.031 209.157 124.126C208.64 123.095 208.011 122.013 207.063 121.32C206.632 120.992 206.116 120.793 205.575 120.748C204.814 120.752 204.069 120.965 203.421 121.365C198.518 123.944 193.94 127.102 189.788 130.77C185.629 134.425 181.911 138.553 178.711 143.071C178.613 143.211 178.382 143.077 178.48 142.936C178.869 142.386 179.266 141.841 179.671 141.303C184.701 134.61 190.869 128.855 197.892 124.3C199.074 123.534 200.277 122.804 201.504 122.11C202.121 121.759 202.742 121.414 203.373 121.09C203.978 120.735 204.657 120.524 205.356 120.475C207.762 120.438 209.008 123.163 209.864 124.997C210.132 125.575 210.405 126.15 210.68 126.724C211.721 128.902 212.802 131.06 213.923 133.198C214.615 134.518 215.322 135.83 216.044 137.135C218.291 141.198 220.68 145.178 223.21 149.077C226.561 154.24 229.886 158.802 233.704 163.631C233.809 163.764 233.621 163.955 233.515 163.82Z" fill="#E4E4E4"/>
<path d="M189.55 129.424C189.41 129.269 189.271 129.113 189.131 128.957C188.021 127.729 186.831 126.516 185.307 125.812C184.581 125.466 183.788 125.282 182.983 125.273C182.153 125.296 181.335 125.475 180.57 125.8C180.207 125.945 179.852 126.11 179.502 126.285C179.102 126.487 178.709 126.701 178.318 126.918C177.585 127.324 176.861 127.748 176.146 128.19C174.724 129.069 173.346 130.015 172.013 131.029C171.322 131.554 170.646 132.097 169.983 132.657C169.367 133.177 168.763 133.711 168.172 134.26C168.046 134.376 167.857 134.187 167.983 134.071C168.139 133.925 168.297 133.781 168.454 133.639C168.9 133.236 169.352 132.841 169.811 132.454C170.649 131.747 171.509 131.067 172.39 130.414C173.76 129.399 175.178 128.452 176.643 127.574C177.375 127.136 178.117 126.716 178.869 126.315C179.096 126.194 179.325 126.075 179.558 125.963C180.085 125.697 180.633 125.474 181.196 125.296C181.994 125.038 182.838 124.955 183.671 125.053C184.475 125.17 185.249 125.438 185.954 125.843C187.449 126.679 188.61 127.972 189.739 129.235C189.853 129.363 189.665 129.553 189.55 129.424Z" fill="#E4E4E4"/>
<path d="M220.2 142.144L223.784 140.833L225.564 140.182C226.139 139.95 226.725 139.748 227.321 139.576C227.842 139.427 228.394 139.434 228.911 139.596C229.372 139.767 229.794 140.029 230.152 140.366C230.517 140.702 230.857 141.066 231.169 141.453C231.557 141.919 231.938 142.389 232.322 142.858C233.904 144.795 235.477 146.739 237.039 148.692C238.6 150.646 240.152 152.607 241.693 154.577C243.238 156.551 244.772 158.534 246.295 160.525C246.482 160.769 246.669 161.013 246.855 161.257C246.958 161.392 247.19 161.259 247.085 161.122C245.551 159.111 244.005 157.108 242.449 155.114C240.889 153.114 239.318 151.123 237.737 149.141C236.155 147.159 234.563 145.185 232.96 143.22C232.561 142.73 232.161 142.241 231.76 141.753C231.422 141.341 231.088 140.924 230.717 140.541C230.037 139.837 229.187 139.215 228.169 139.198C227.573 139.219 226.986 139.348 226.436 139.579C225.837 139.796 225.239 140.017 224.641 140.236L221.031 141.557L220.129 141.887C219.969 141.945 220.038 142.204 220.2 142.144L220.2 142.144Z" fill="#E4E4E4"/>
<path d="M184.836 127.357C183.914 126.903 182.889 126.702 181.865 126.775C180.841 126.849 179.854 127.193 179.007 127.774C182.2 128.325 185.358 129.062 188.465 129.982C187.175 129.226 186.165 128.041 184.836 127.357Z" fill="#E6E7E8"/>
<path d="M178.989 127.771L178.639 128.056C178.757 127.956 178.881 127.862 179.007 127.774L178.989 127.771Z" fill="#F2F2F2"/>
<path d="M230.017 142.157C229.703 141.695 229.266 141.33 228.755 141.103L228.262 141.123C232.013 147.753 237.079 153.547 243.149 158.149C238.771 152.818 234.394 147.488 230.017 142.157Z" fill="#E6E7E8"/>
<path d="M165.09 110.58C167.826 110.58 170.044 108.361 170.044 105.625C170.044 102.888 167.826 100.669 165.09 100.669C162.354 100.669 160.136 102.888 160.136 105.625C160.136 108.361 162.354 110.58 165.09 110.58Z" fill="#CCCCCC"/>
<path d="M180.256 105.366C178.946 103.991 177.423 102.735 175.621 102.072C175.119 101.887 174.598 101.756 174.068 101.682C174.064 101.681 174.06 101.682 174.055 101.682C174.047 101.68 174.038 101.678 174.029 101.677C173.288 101.582 172.535 101.628 171.811 101.811C171.456 101.9 171.111 102.02 170.778 102.171C170.444 102.334 170.12 102.517 169.808 102.72C169.149 103.115 168.423 103.386 167.666 103.52C167.287 103.588 166.902 103.626 166.516 103.632C166.188 103.621 165.86 103.669 165.548 103.772C165.209 103.899 164.905 104.104 164.659 104.37C164.414 104.636 164.234 104.956 164.134 105.304C164.126 105.335 164.128 105.368 164.14 105.397C164.152 105.427 164.173 105.452 164.201 105.469C164.286 105.53 164.37 105.6 164.46 105.655C164.54 105.692 164.626 105.715 164.714 105.724C164.857 105.754 165.001 105.784 165.144 105.812C165.674 105.917 166.205 106.01 166.739 106.091C167.819 106.254 168.905 106.37 169.997 106.437C173.417 106.643 176.85 106.365 180.192 105.61C180.216 105.603 180.239 105.589 180.256 105.571C180.274 105.553 180.287 105.531 180.293 105.506C180.3 105.482 180.3 105.456 180.293 105.431C180.287 105.407 180.274 105.384 180.256 105.366V105.366Z" fill="#F0F0F0"/>
<path d="M165.325 108.68C164.823 108.494 164.302 108.363 163.772 108.289C163.768 108.289 163.764 108.29 163.76 108.289C163.751 108.287 163.742 108.285 163.733 108.284C162.992 108.19 162.24 108.235 161.515 108.418C161.161 108.507 160.815 108.627 160.482 108.778C160.148 108.941 159.824 109.125 159.513 109.328C158.853 109.722 158.127 109.993 157.371 110.127C156.991 110.195 156.606 110.233 156.22 110.24C155.892 110.229 155.564 110.276 155.253 110.379C154.914 110.507 154.609 110.712 154.364 110.978C154.118 111.244 153.938 111.564 153.838 111.912C153.83 111.943 153.833 111.975 153.845 112.005C153.857 112.034 153.878 112.059 153.905 112.076C153.991 112.138 154.074 112.207 154.165 112.262C154.245 112.299 154.33 112.322 154.418 112.331C154.561 112.362 154.705 112.391 154.849 112.42C155.378 112.525 155.91 112.617 156.443 112.698C157.524 112.862 158.61 112.977 159.701 113.044C163.122 113.251 166.554 112.972 169.896 112.217C169.921 112.21 169.943 112.197 169.961 112.179C169.978 112.161 169.991 112.138 169.997 112.114C170.004 112.089 170.004 112.063 169.997 112.039C169.991 112.014 169.978 111.992 169.961 111.974C168.65 110.598 167.127 109.343 165.325 108.68Z" fill="#F0F0F0"/>
<path d="M249.406 157.817L252.044 155.813L253.331 157.1L249.032 160.042L249.406 157.817Z" fill="#CCCCCC"/>
<path d="M246.945 163.335H237.92L238.236 162.309C240.198 161.599 239.096 160.071 240.963 159.138C245.527 156.855 247.295 150.041 246.626 147.348L249.617 147.221C249.617 147.221 253.749 158.958 246.945 163.335Z" fill="#CCCCCC"/>
<path d="M254.651 158.512C254.381 158.749 254.036 158.883 253.677 158.89C253.318 158.896 252.969 158.776 252.69 158.549L252.684 158.544L252.684 158.536C252.681 158.411 252.661 158.286 252.626 158.165C252.624 158.252 252.611 158.338 252.588 158.422L252.581 158.45L252.56 158.429C252.543 158.411 252.526 158.393 252.51 158.375C252.416 158.268 252.338 158.15 252.277 158.022C251.985 157.421 251.562 156.894 251.04 156.479C250.946 156.403 250.859 156.319 250.78 156.229C250.444 155.847 250.256 155.358 250.248 154.849C250.24 154.341 250.413 153.846 250.736 153.454C251.059 153.061 251.512 152.797 252.012 152.708C252.513 152.618 253.029 152.71 253.467 152.967L253.481 152.975L253.474 152.989C253.423 153.094 253.356 153.191 253.275 153.276C253.386 153.216 253.489 153.141 253.581 153.054L253.591 153.045L253.602 153.053C253.746 153.152 253.878 153.27 253.993 153.401L254.006 153.416C254.094 153.517 254.203 153.598 254.325 153.654C254.447 153.711 254.579 153.74 254.713 153.742C254.932 153.746 255.148 153.797 255.345 153.892C255.543 153.987 255.717 154.124 255.857 154.293C255.996 154.461 256.098 154.659 256.154 154.87C256.21 155.082 256.22 155.304 256.182 155.52L256.18 155.53L256.17 155.533C256 155.591 255.82 155.614 255.64 155.599C255.79 155.664 255.95 155.704 256.113 155.717L256.134 155.719L256.127 155.739C256.042 155.994 255.891 156.221 255.689 156.399L255.684 156.404L255.678 156.409C255.527 156.538 255.404 156.696 255.316 156.874C255.228 157.052 255.176 157.245 255.163 157.443C255.153 157.646 255.103 157.846 255.015 158.029C254.927 158.213 254.803 158.377 254.651 158.512V158.512Z" fill="#CCCCCC"/>
<path opacity="0.15" d="M254.927 158.024C254.924 158.079 254.918 158.133 254.91 158.187C255.057 157.96 255.143 157.698 255.156 157.427C255.158 157.386 255.163 157.345 255.168 157.304C255.025 157.518 254.941 157.767 254.927 158.024V158.024Z" fill="black"/>
<path opacity="0.15" d="M255.404 156.18C255.524 156.232 255.651 156.268 255.781 156.287C255.831 156.234 255.877 156.177 255.919 156.118C255.753 156.173 255.578 156.194 255.404 156.18V156.18Z" fill="black"/>
<path opacity="0.15" d="M255.96 155.682C255.973 155.813 255.97 155.945 255.949 156.075C256.021 155.966 256.079 155.847 256.12 155.723L256.127 155.703L256.106 155.701C256.057 155.697 256.008 155.691 255.96 155.682Z" fill="black"/>
<path opacity="0.15" d="M255.82 154.241C255.68 154.083 255.509 153.955 255.317 153.867C255.125 153.778 254.917 153.73 254.706 153.727C254.572 153.725 254.44 153.695 254.318 153.639C254.196 153.582 254.087 153.501 253.999 153.4L253.986 153.386C253.871 153.254 253.739 153.137 253.595 153.037L253.584 153.03L253.574 153.039C253.482 153.125 253.379 153.2 253.268 153.26C253.349 153.175 253.416 153.079 253.467 152.973L253.474 152.959L253.46 152.951C253.169 152.781 252.842 152.682 252.506 152.662C252.169 152.642 251.833 152.702 251.524 152.837C251.215 152.972 250.942 153.179 250.728 153.439C250.514 153.7 250.365 154.007 250.292 154.336C250.432 154.09 250.619 153.875 250.843 153.701C251.067 153.528 251.324 153.402 251.597 153.328C251.87 153.255 252.155 153.237 252.436 153.274C252.716 153.312 252.987 153.405 253.231 153.548L253.244 153.556L253.237 153.57C253.187 153.675 253.119 153.772 253.039 153.857C253.15 153.797 253.253 153.722 253.345 153.635L253.355 153.626L253.366 153.634C253.51 153.734 253.641 153.851 253.757 153.982L253.769 153.997C253.858 154.098 253.966 154.179 254.088 154.235C254.21 154.292 254.343 154.322 254.477 154.323C254.828 154.329 255.166 154.457 255.433 154.684C255.701 154.912 255.881 155.225 255.944 155.57C256.018 155.557 256.091 155.539 256.163 155.517L256.173 155.514L256.175 155.504C256.214 155.28 256.203 155.051 256.141 154.832C256.08 154.614 255.97 154.412 255.82 154.241V154.241Z" fill="black"/>
<path d="M259.013 147.994C259.013 149.15 258.603 150.269 257.856 151.151C257.109 152.034 256.073 152.623 254.933 152.813L254.909 152.817L254.89 152.802C254.579 152.542 254.236 152.324 253.869 152.153C254.075 152.342 254.257 152.556 254.41 152.791L254.462 152.869L254.368 152.873C254.287 152.877 254.207 152.879 254.129 152.879C253.673 152.88 253.219 152.817 252.781 152.692C250.709 152.121 248.535 152.023 246.42 152.404C246.038 152.468 245.651 152.501 245.264 152.5C243.627 152.5 242.044 151.916 240.798 150.855C239.552 149.793 238.724 148.322 238.464 146.705C238.203 145.089 238.526 143.432 239.374 142.032C240.223 140.632 241.543 139.579 243.096 139.064L243.144 139.048L243.162 139.094C243.309 139.442 243.401 139.81 243.433 140.186C243.524 139.789 243.563 139.381 243.549 138.974L243.548 138.931L243.59 138.92C244.137 138.784 244.7 138.715 245.264 138.715L245.325 138.715C245.757 138.717 246.185 138.627 246.58 138.451C246.976 138.276 247.33 138.02 247.619 137.699C248.094 137.177 248.676 136.764 249.325 136.488C249.974 136.213 250.676 136.082 251.381 136.103C252.086 136.125 252.778 136.299 253.409 136.614C254.04 136.929 254.596 137.377 255.038 137.927L255.058 137.952L255.045 137.982C254.824 138.518 254.495 139.002 254.077 139.405C254.554 139.181 254.989 138.88 255.367 138.514L255.416 138.467L255.45 138.526C255.886 139.273 256.115 140.122 256.115 140.987L256.114 141.011L256.114 141.038C256.108 141.676 256.229 142.31 256.47 142.901C256.711 143.492 257.068 144.03 257.52 144.481C257.99 144.938 258.364 145.484 258.62 146.087C258.877 146.69 259.01 147.338 259.013 147.994V147.994Z" fill="#CCCCCC"/>
<g opacity="0.15">
<path d="M253.042 136.448C252.874 136.727 252.667 136.982 252.427 137.203C252.77 137.042 253.093 136.84 253.388 136.602C253.275 136.546 253.16 136.495 253.042 136.448Z" fill="black"/>
<path d="M255.869 142.28C256.135 142.537 256.371 142.824 256.572 143.135C256.269 142.477 256.113 141.762 256.115 141.037L256.115 141.011L256.115 140.987C256.115 140.122 255.886 139.273 255.45 138.526L255.416 138.467L255.367 138.514C255.098 138.775 254.799 139.002 254.477 139.193C254.547 140.358 255.043 141.456 255.869 142.28V142.28Z" fill="black"/>
<path d="M254.464 138.785L254.464 138.81L254.464 138.836C254.464 138.884 254.465 138.932 254.466 138.98C254.696 138.67 254.89 138.335 255.045 137.982L255.058 137.952L255.038 137.927C254.78 137.606 254.483 137.319 254.154 137.072C254.359 137.62 254.464 138.2 254.464 138.785V138.785Z" fill="black"/>
<path d="M257.52 144.481C257.285 144.252 257.076 143.998 256.897 143.723C257.217 144.406 257.375 145.153 257.358 145.906C257.342 146.66 257.151 147.399 256.8 148.066C256.45 148.733 255.95 149.31 255.34 149.752C254.73 150.194 254.025 150.488 253.282 150.612L253.258 150.616L253.24 150.6C252.929 150.341 252.586 150.123 252.219 149.952C252.425 150.141 252.607 150.355 252.759 150.589L252.811 150.667L252.718 150.672C252.637 150.676 252.556 150.678 252.479 150.678C252.023 150.678 251.569 150.615 251.13 150.491C249.058 149.92 246.885 149.821 244.77 150.203C244.388 150.267 244.001 150.299 243.614 150.299C241.925 150.3 240.296 149.679 239.037 148.553C239.595 149.733 240.477 150.73 241.579 151.429C242.682 152.128 243.959 152.499 245.264 152.5C245.652 152.501 246.038 152.468 246.42 152.404C248.535 152.023 250.709 152.121 252.781 152.692C253.219 152.817 253.673 152.88 254.129 152.879C254.207 152.879 254.287 152.877 254.368 152.873L254.462 152.869L254.41 152.791C254.257 152.556 254.075 152.342 253.869 152.153C254.236 152.324 254.579 152.542 254.89 152.802L254.909 152.817L254.933 152.813C255.825 152.665 256.659 152.271 257.34 151.676C258.022 151.081 258.525 150.309 258.793 149.445C259.062 148.581 259.085 147.659 258.86 146.782C258.635 145.906 258.171 145.109 257.52 144.481L257.52 144.481Z" fill="black"/>
</g>
<path d="M160.692 155.177L157.116 152.462L155.373 154.205L161.198 158.193L160.692 155.177Z" fill="#CCCCCC"/>
<path d="M164.026 162.655H176.258L175.829 161.265C173.17 160.302 174.663 158.232 172.134 156.967C165.948 153.873 163.553 144.639 164.459 140.989L160.405 140.818C160.405 140.818 154.807 156.723 164.026 162.655Z" fill="#CCCCCC"/>
<path d="M152.89 154.67C152.873 154.402 152.803 154.14 152.683 153.899C152.563 153.659 152.397 153.444 152.193 153.269L152.185 153.262L152.177 153.255C151.904 153.014 151.699 152.706 151.584 152.361L151.575 152.334L151.604 152.331C151.824 152.314 152.04 152.259 152.243 152.171C152 152.191 151.756 152.161 151.525 152.081L151.512 152.077L151.51 152.064C151.459 151.771 151.472 151.471 151.548 151.184C151.624 150.897 151.761 150.63 151.95 150.401C152.139 150.172 152.376 149.987 152.643 149.858C152.911 149.729 153.203 149.66 153.5 149.655C153.682 149.653 153.861 149.612 154.026 149.536C154.191 149.46 154.339 149.349 154.458 149.212L154.475 149.193C154.632 149.014 154.81 148.856 155.006 148.721L155.021 148.71L155.034 148.723C155.158 148.84 155.298 148.941 155.449 149.023C155.339 148.908 155.248 148.777 155.179 148.634L155.17 148.615L155.188 148.605C155.783 148.257 156.482 148.132 157.16 148.253C157.838 148.374 158.451 148.732 158.89 149.264C159.328 149.796 159.562 150.466 159.551 151.155C159.541 151.844 159.285 152.507 158.83 153.025C158.722 153.147 158.605 153.261 158.478 153.363C157.77 153.926 157.197 154.641 156.801 155.454C156.719 155.628 156.612 155.789 156.486 155.933C156.464 155.957 156.441 155.982 156.417 156.007L156.39 156.035L156.38 155.997C156.348 155.883 156.331 155.766 156.328 155.649C156.281 155.812 156.254 155.981 156.25 156.152L156.249 156.162L156.241 156.168C155.946 156.409 155.59 156.563 155.213 156.614C154.836 156.664 154.452 156.608 154.104 156.453C153.757 156.297 153.459 156.048 153.245 155.734C153.03 155.419 152.908 155.051 152.89 154.67L152.89 154.67Z" fill="#CCCCCC"/>
<path opacity="0.15" d="M153.21 155.458C153.214 155.532 153.222 155.606 153.234 155.679C153.033 155.371 152.918 155.016 152.9 154.649C152.897 154.593 152.891 154.537 152.883 154.481C153.078 154.772 153.191 155.109 153.21 155.458Z" fill="black"/>
<path opacity="0.15" d="M152.564 152.958C152.4 153.029 152.228 153.078 152.052 153.103C151.984 153.031 151.922 152.955 151.865 152.874C152.09 152.95 152.327 152.978 152.564 152.958V152.958Z" fill="black"/>
<path opacity="0.15" d="M151.81 152.283C151.792 152.461 151.797 152.64 151.825 152.817C151.727 152.668 151.65 152.508 151.594 152.339L151.584 152.312L151.613 152.31C151.679 152.304 151.745 152.295 151.81 152.283V152.283Z" fill="black"/>
<path opacity="0.15" d="M152.001 150.332C152.19 150.117 152.422 149.944 152.681 149.824C152.941 149.704 153.223 149.639 153.509 149.634C153.691 149.631 153.87 149.591 154.036 149.515C154.201 149.438 154.348 149.328 154.468 149.191L154.485 149.172C154.642 148.993 154.82 148.835 155.015 148.699L155.03 148.689L155.043 148.702C155.168 148.819 155.308 148.92 155.458 149.002C155.349 148.887 155.258 148.756 155.189 148.613L155.179 148.594L155.198 148.583C155.592 148.352 156.035 148.218 156.491 148.191C156.947 148.164 157.403 148.246 157.822 148.429C158.24 148.612 158.61 148.891 158.9 149.244C159.19 149.597 159.393 150.014 159.491 150.46C159.302 150.127 159.048 149.834 158.744 149.6C158.44 149.365 158.093 149.193 157.723 149.094C157.352 148.995 156.966 148.97 156.586 149.021C156.206 149.072 155.84 149.198 155.508 149.392L155.49 149.403L155.5 149.421C155.569 149.564 155.66 149.696 155.769 149.81C155.618 149.729 155.479 149.628 155.354 149.51L155.341 149.498L155.326 149.508C155.131 149.643 154.953 149.802 154.796 149.98L154.779 150C154.659 150.137 154.512 150.247 154.347 150.323C154.181 150.4 154.002 150.44 153.82 150.442C153.344 150.45 152.886 150.623 152.524 150.932C152.161 151.24 151.917 151.664 151.832 152.132C151.732 152.114 151.632 152.09 151.535 152.06L151.521 152.056L151.519 152.042C151.466 151.739 151.481 151.428 151.565 151.132C151.648 150.836 151.797 150.562 152.001 150.332V150.332Z" fill="black"/>
<path d="M149.697 137.105C150.309 136.493 150.792 135.765 151.119 134.963C151.446 134.162 151.61 133.304 151.601 132.438C151.601 132.426 151.601 132.414 151.601 132.403L151.601 132.369C151.6 131.197 151.911 130.046 152.501 129.034L152.547 128.954L152.613 129.019C153.125 129.515 153.716 129.922 154.361 130.225C153.796 129.68 153.35 129.024 153.051 128.297L153.032 128.257L153.06 128.222C153.659 127.477 154.412 126.87 155.267 126.443C156.123 126.017 157.06 125.781 158.016 125.751C158.971 125.722 159.921 125.9 160.801 126.273C161.681 126.647 162.47 127.206 163.113 127.913C163.506 128.349 163.985 128.696 164.521 128.934C165.057 129.171 165.636 129.293 166.222 129.291L166.305 129.291C167.07 129.29 167.832 129.384 168.574 129.569L168.631 129.583L168.629 129.642C168.61 130.193 168.663 130.746 168.786 131.284C168.83 130.774 168.954 130.275 169.153 129.805L169.178 129.742L169.243 129.763C171.348 130.462 173.136 131.888 174.286 133.785C175.436 135.683 175.874 137.928 175.521 140.119C175.167 142.309 174.046 144.303 172.357 145.742C170.668 147.181 168.523 147.971 166.305 147.972C165.78 147.972 165.256 147.929 164.738 147.841C161.872 147.325 158.926 147.458 156.119 148.232C155.524 148.401 154.909 148.486 154.291 148.486C154.186 148.486 154.077 148.483 153.967 148.478L153.841 148.472L153.911 148.366C154.118 148.048 154.364 147.758 154.644 147.502C154.146 147.733 153.681 148.029 153.26 148.38L153.235 148.401L153.202 148.396C151.993 148.195 150.864 147.661 149.94 146.855C149.016 146.049 148.334 145.002 147.971 143.831C147.607 142.66 147.576 141.411 147.881 140.223C148.186 139.035 148.814 137.956 149.697 137.105L149.697 137.105Z" fill="#CCCCCC"/>
<g opacity="0.15">
<path d="M155.764 126.218C155.992 126.597 156.273 126.942 156.598 127.242C156.133 127.023 155.695 126.75 155.295 126.427C155.449 126.351 155.605 126.282 155.764 126.218Z" fill="black"/>
<path d="M151.933 134.121C151.573 134.471 151.254 134.86 150.982 135.281C151.392 134.389 151.603 133.419 151.601 132.438C151.601 132.426 151.601 132.414 151.601 132.403L151.601 132.369C151.6 131.197 151.911 130.046 152.501 129.034L152.547 128.954L152.613 129.019C152.978 129.371 153.383 129.68 153.82 129.938C153.725 131.517 153.054 133.006 151.933 134.121V134.121Z" fill="black"/>
<path d="M153.837 129.386L153.837 129.419L153.838 129.455C153.838 129.52 153.836 129.584 153.835 129.649C153.523 129.23 153.26 128.776 153.051 128.297L153.032 128.257L153.06 128.222C153.409 127.788 153.811 127.398 154.257 127.064C153.98 127.806 153.837 128.593 153.837 129.386V129.386Z" fill="black"/>
<path d="M149.697 137.105C150.015 136.795 150.298 136.45 150.54 136.078C150.106 137.002 149.892 138.015 149.915 139.036C149.938 140.057 150.197 141.059 150.671 141.963C151.146 142.867 151.823 143.649 152.65 144.248C153.477 144.846 154.432 145.245 155.439 145.413L155.472 145.418L155.497 145.397C155.918 145.045 156.383 144.75 156.88 144.518C156.601 144.774 156.355 145.065 156.148 145.382L156.077 145.488L156.204 145.494C156.314 145.5 156.423 145.502 156.528 145.502C157.146 145.503 157.761 145.417 158.355 145.249C161.163 144.475 164.109 144.341 166.975 144.858C167.493 144.945 168.016 144.989 168.541 144.989C170.829 144.991 173.038 144.148 174.744 142.623C173.987 144.222 172.792 145.573 171.299 146.52C169.805 147.467 168.073 147.97 166.305 147.972C165.78 147.972 165.256 147.929 164.738 147.841C161.872 147.325 158.926 147.458 156.119 148.232C155.524 148.401 154.909 148.486 154.291 148.486C154.186 148.486 154.077 148.483 153.967 148.478L153.84 148.472L153.911 148.366C154.118 148.048 154.364 147.758 154.644 147.502C154.146 147.733 153.681 148.029 153.26 148.38L153.235 148.401L153.202 148.396C151.993 148.195 150.864 147.661 149.94 146.855C149.016 146.049 148.334 145.002 147.971 143.831C147.607 142.66 147.576 141.411 147.881 140.223C148.186 139.035 148.814 137.956 149.697 137.105V137.105Z" fill="black"/>
</g>
<path d="M192.383 119.131C192.651 119.131 192.868 118.913 192.868 118.645C192.868 118.377 192.651 118.159 192.383 118.159C192.115 118.159 191.897 118.377 191.897 118.645C191.897 118.913 192.115 119.131 192.383 119.131Z" fill="white"/>
<path d="M228.709 130.597C228.87 130.597 229 130.466 229 130.305C229 130.144 228.87 130.014 228.709 130.014C228.548 130.014 228.417 130.144 228.417 130.305C228.417 130.466 228.548 130.597 228.709 130.597Z" fill="white"/>
<path d="M234.342 117.479C234.503 117.479 234.634 117.348 234.634 117.187C234.634 117.026 234.503 116.896 234.342 116.896C234.181 116.896 234.051 117.026 234.051 117.187C234.051 117.348 234.181 117.479 234.342 117.479Z" fill="white"/>
<path d="M182.184 108.734C182.345 108.734 182.476 108.603 182.476 108.442C182.476 108.281 182.345 108.151 182.184 108.151C182.024 108.151 181.893 108.281 181.893 108.442C181.893 108.603 182.024 108.734 182.184 108.734Z" fill="#CCCCCC"/>
<path d="M179.271 120.491C179.432 120.491 179.562 120.361 179.562 120.2C179.562 120.039 179.432 119.908 179.271 119.908C179.11 119.908 178.979 120.039 178.979 120.2C178.979 120.361 179.11 120.491 179.271 120.491Z" fill="white"/>
<path d="M165.09 117.479C165.251 117.479 165.381 117.348 165.381 117.187C165.381 117.026 165.251 116.896 165.09 116.896C164.929 116.896 164.799 117.026 164.799 117.187C164.799 117.348 164.929 117.479 165.09 117.479Z" fill="#CCCCCC"/>
<path d="M215.305 119.908C215.466 119.908 215.596 119.778 215.596 119.617C215.596 119.456 215.466 119.325 215.305 119.325C215.144 119.325 215.014 119.456 215.014 119.617C215.014 119.778 215.144 119.908 215.305 119.908Z" fill="white"/>
<path d="M245.123 110.483C245.284 110.483 245.415 110.352 245.415 110.191C245.415 110.03 245.284 109.9 245.123 109.9C244.962 109.9 244.832 110.03 244.832 110.191C244.832 110.352 244.962 110.483 245.123 110.483Z" fill="#CCCCCC"/>
<path d="M233.546 155.381C233.349 155.044 233.248 154.661 233.254 154.271C233.259 153.881 233.372 153.501 233.579 153.17C233.803 153.985 234.308 154.694 235.004 155.172C235.273 155.355 235.592 155.531 235.684 155.844C235.732 156.043 235.702 156.253 235.6 156.431C235.499 156.607 235.375 156.768 235.232 156.912L235.219 156.961C234.529 156.595 233.951 156.049 233.546 155.381V155.381Z" fill="#E6E7E8"/>
<path d="M202.562 139.542C202.365 139.206 202.264 138.822 202.27 138.433C202.276 138.043 202.388 137.662 202.595 137.332C202.819 138.146 203.324 138.855 204.02 139.333C204.289 139.517 204.608 139.693 204.7 140.005C204.748 140.205 204.718 140.415 204.616 140.593C204.515 140.768 204.391 140.93 204.248 141.074L204.235 141.123C203.545 140.756 202.967 140.21 202.562 139.542V139.542Z" fill="#E6E7E8"/>
<path d="M173.035 150.814C172.838 150.478 172.737 150.094 172.743 149.704C172.748 149.314 172.861 148.934 173.068 148.603C173.292 149.418 173.797 150.127 174.493 150.605C174.762 150.788 175.081 150.964 175.173 151.277C175.221 151.476 175.191 151.686 175.089 151.864C174.988 152.04 174.864 152.201 174.721 152.346L174.708 152.394C174.018 152.028 173.44 151.482 173.035 150.814V150.814Z" fill="#E6E7E8"/>
<path d="M230.651 107.276H229.583V164.508H230.651V107.276Z" fill="#CCCCCC"/>
<path d="M233.662 106.11C233.662 104.178 232.097 102.612 230.166 102.612C228.235 102.612 226.669 104.178 226.669 106.11V106.11C226.669 108.042 228.235 109.608 230.166 109.608C232.097 109.608 233.662 108.042 233.662 106.11Z" fill="#CCCCCC"/>
<path d="M216.231 157.746L213.49 156.536V155.496L214.467 155.491C214.618 155.49 214.766 155.442 214.889 155.353C215.011 155.264 215.103 155.138 215.151 154.994L215.837 152.935C215.874 152.826 215.883 152.71 215.866 152.596C215.849 152.483 215.805 152.375 215.737 152.281C215.67 152.188 215.582 152.112 215.48 152.06C215.377 152.007 215.264 151.98 215.149 151.98H213.49V151.012H215.573C215.737 151.012 215.896 150.957 216.025 150.854C216.153 150.752 216.243 150.609 216.28 150.449L216.752 148.393C216.777 148.286 216.777 148.176 216.753 148.069C216.728 147.963 216.681 147.863 216.613 147.778C216.545 147.693 216.458 147.624 216.36 147.576C216.262 147.529 216.154 147.504 216.045 147.504H213.49V147.262C213.49 147.134 213.439 147.011 213.349 146.92C213.258 146.83 213.135 146.779 213.007 146.779C212.878 146.779 212.755 146.83 212.665 146.92C212.574 147.011 212.523 147.134 212.523 147.262V147.504H195.394V147.262C195.394 147.134 195.343 147.011 195.252 146.92C195.161 146.83 195.038 146.779 194.91 146.779C194.782 146.779 194.659 146.83 194.568 146.92C194.477 147.011 194.426 147.134 194.426 147.262V147.504H192.395C192.286 147.504 192.179 147.529 192.08 147.576C191.982 147.624 191.896 147.693 191.828 147.778C191.76 147.863 191.712 147.963 191.688 148.069C191.664 148.176 191.664 148.286 191.688 148.393L192.161 150.449C192.198 150.609 192.288 150.752 192.416 150.854C192.544 150.957 192.704 151.012 192.868 151.012H194.426V151.98H193.291C193.177 151.98 193.064 152.007 192.962 152.059C192.861 152.111 192.772 152.186 192.705 152.278C192.638 152.371 192.593 152.478 192.575 152.591C192.557 152.704 192.566 152.819 192.601 152.928L193.301 155.103C193.349 155.249 193.441 155.377 193.566 155.468C193.691 155.558 193.842 155.607 193.996 155.606L194.426 155.603V156.536L192.21 157.746C192.017 157.746 191.833 157.822 191.697 157.958C191.561 158.094 191.484 158.279 191.484 158.471V158.471C191.484 158.664 191.561 158.849 191.697 158.985C191.833 159.121 192.017 159.197 192.21 159.197H194.426V164.52C194.426 164.583 194.439 164.646 194.463 164.705C194.487 164.764 194.523 164.818 194.567 164.863C194.612 164.908 194.666 164.943 194.725 164.968C194.783 164.992 194.846 165.005 194.91 165.005C194.974 165.005 195.037 164.992 195.095 164.968C195.154 164.943 195.208 164.908 195.252 164.863C195.297 164.818 195.333 164.764 195.357 164.705C195.381 164.646 195.394 164.583 195.394 164.52V159.197H212.523V164.52C212.523 164.648 212.574 164.771 212.665 164.862C212.755 164.952 212.878 165.003 213.007 165.003C213.135 165.003 213.258 164.952 213.349 164.862C213.439 164.771 213.49 164.648 213.49 164.52V159.197H216.231C216.423 159.197 216.608 159.121 216.744 158.985C216.88 158.849 216.956 158.664 216.956 158.471C216.956 158.376 216.938 158.282 216.901 158.194C216.865 158.106 216.811 158.026 216.744 157.958C216.676 157.891 216.596 157.837 216.508 157.801C216.42 157.764 216.326 157.746 216.231 157.746V157.746ZM195.394 151.012H212.523V151.98H195.394V151.012ZM195.394 156.536V155.598L212.523 155.502V156.536H195.394Z" fill="#CCCCCC"/>
<path d="M255.665 195.998H151.021C150.694 195.998 150.37 195.934 150.068 195.809C149.766 195.684 149.491 195.501 149.26 195.27C149.028 195.039 148.845 194.764 148.72 194.462C148.594 194.16 148.53 193.836 148.53 193.509C148.53 193.182 148.594 192.858 148.72 192.556C148.845 192.254 149.028 191.98 149.26 191.748C149.491 191.517 149.766 191.334 150.068 191.209C150.37 191.084 150.694 191.02 151.021 191.021H255.665C255.992 191.02 256.316 191.084 256.618 191.209C256.92 191.334 257.195 191.517 257.426 191.748C257.658 191.98 257.841 192.254 257.966 192.556C258.092 192.858 258.156 193.182 258.156 193.509C258.156 193.836 258.092 194.16 257.966 194.462C257.841 194.764 257.658 195.039 257.426 195.27C257.195 195.501 256.92 195.684 256.618 195.809C256.316 195.934 255.992 195.998 255.665 195.998Z" fill="#E6E6E6"/>
<path d="M220.553 207.231H186.133C185.473 207.231 184.84 206.968 184.374 206.502C183.907 206.035 183.645 205.402 183.645 204.742C183.645 204.082 183.907 203.449 184.374 202.982C184.84 202.516 185.473 202.254 186.133 202.254H220.553C221.213 202.254 221.846 202.516 222.312 202.982C222.779 203.449 223.041 204.082 223.041 204.742C223.041 205.402 222.779 206.035 222.312 206.502C221.846 206.968 221.213 207.231 220.553 207.231V207.231Z" fill="#E6E6E6"/>
<path d="M220.553 230.016H186.133C185.474 230.015 184.842 229.752 184.376 229.286C183.91 228.819 183.648 228.187 183.648 227.527C183.648 226.868 183.91 226.235 184.376 225.769C184.842 225.302 185.474 225.04 186.133 225.039H220.553C221.213 225.039 221.846 225.301 222.312 225.768C222.779 226.234 223.041 226.867 223.041 227.527C223.041 228.187 222.779 228.82 222.312 229.287C221.846 229.754 221.213 230.016 220.553 230.016V230.016Z" fill="#E6E6E6"/>
<path d="M220.553 241.686H186.133C185.806 241.687 185.482 241.622 185.18 241.498C184.878 241.373 184.603 241.19 184.372 240.958C184.14 240.727 183.957 240.453 183.832 240.151C183.707 239.849 183.642 239.525 183.642 239.198C183.642 238.871 183.707 238.547 183.832 238.245C183.957 237.943 184.14 237.668 184.372 237.437C184.603 237.206 184.878 237.023 185.18 236.898C185.482 236.773 185.806 236.709 186.133 236.709H220.553C220.88 236.709 221.204 236.773 221.506 236.898C221.808 237.023 222.083 237.206 222.314 237.437C222.545 237.668 222.729 237.943 222.854 238.245C222.979 238.547 223.044 238.871 223.044 239.198C223.044 239.525 222.979 239.849 222.854 240.151C222.729 240.453 222.545 240.727 222.314 240.958C222.083 241.19 221.808 241.373 221.506 241.498C221.204 241.622 220.88 241.687 220.553 241.686V241.686Z" fill="#E6E6E6"/>
<path d="M239.857 218.463H166.828C166.169 218.463 165.536 218.201 165.07 217.734C164.603 217.268 164.341 216.635 164.341 215.975C164.341 215.315 164.603 214.682 165.07 214.215C165.536 213.749 166.169 213.487 166.828 213.487H239.857C240.517 213.487 241.15 213.749 241.616 214.215C242.083 214.682 242.345 215.315 242.345 215.975C242.345 216.635 242.083 217.268 241.616 217.734C241.15 218.201 240.517 218.463 239.857 218.463Z" fill="#E6E6E6"/>
<path d="M348.578 106.535C354.498 103.297 356.674 95.8711 353.438 89.9484C350.201 84.0256 342.778 81.849 336.858 85.0866C330.938 88.3243 328.762 95.7502 331.998 101.673C335.234 107.596 342.657 109.772 348.578 106.535Z" fill="#FFB8B8"/>
<path d="M341.497 111.384L346.129 105.428L352.736 105.141L353.396 110.744L356.67 112.254C359.939 124.678 360.444 137.669 358.149 150.31V150.31C357.71 150.724 357.389 151.247 357.22 151.825C357.051 152.404 357.039 153.017 357.185 153.602L357.398 154.448L357.378 154.479C356.681 155.579 356.445 156.909 356.72 158.181V158.181L362.705 168.821C349.995 174.003 340.677 164.339 332.045 151.673L326.703 133.173L341.497 111.384Z" fill="#1877F2"/>
<path d="M340.675 80.9623H348.567C353.74 80.9623 357.934 85.6827 357.934 91.5055C361.838 95.4271 360.667 100.34 357.569 105.629C351.979 106.325 346.511 107.788 341.32 109.977L340.584 106.83L339.131 110.974C337.838 111.601 336.557 112.285 335.287 113.029C336.769 106.06 337.38 99.1076 336.362 93.7067H333.689V90.7804L332.781 93.7067H327.936V93.7067C327.936 92.0331 328.265 90.3759 328.905 88.8296C329.545 87.2834 330.484 85.8785 331.667 84.695C332.85 83.5116 334.254 82.5729 335.8 81.9324C337.345 81.2919 339.002 80.9623 340.675 80.9623V80.9623Z" fill="#2F2E41"/>
<path d="M327.572 145.634L326.324 133.153L342.885 108.627L343.566 109.087L327.171 133.367L328.389 145.552L327.572 145.634Z" fill="#2F2E41"/>
<path d="M327.98 146.827C328.661 146.827 329.213 146.274 329.213 145.593C329.213 144.912 328.661 144.36 327.98 144.36C327.3 144.36 326.748 144.912 326.748 145.593C326.748 146.274 327.3 146.827 327.98 146.827Z" fill="#2F2E41"/>
<path d="M351.199 85.7767C354.376 85.7767 356.952 83.1999 356.952 80.0212C356.952 76.8425 354.376 74.2656 351.199 74.2656C348.021 74.2656 345.446 76.8425 345.446 80.0212C345.446 83.1999 348.021 85.7767 351.199 85.7767Z" fill="#2F2E41"/>
<path d="M338.735 175.561C338.982 175.562 339.228 175.585 339.471 175.63L343.508 150.061L339.463 125.447C339.209 123.898 339.551 122.311 340.42 121.005C341.289 119.698 342.622 118.771 344.148 118.408C345.674 118.046 347.281 118.277 348.644 119.053C350.007 119.829 351.025 121.094 351.493 122.592V122.592C353.009 127.446 353.76 132.506 353.717 137.591L353.576 154.378L342.813 180.159C342.719 180.946 342.399 181.688 341.893 182.297C341.387 182.906 340.716 183.356 339.961 183.593C339.205 183.83 338.397 183.843 337.634 183.631C336.871 183.419 336.186 182.991 335.661 182.398C335.135 181.806 334.792 181.074 334.673 180.291C334.553 179.508 334.662 178.707 334.987 177.985C335.312 177.262 335.838 176.649 336.503 176.219C337.168 175.789 337.943 175.56 338.735 175.561V175.561Z" fill="#FFB8B8"/>
<path d="M353.719 148.249L342.718 148.796L336.383 126.44C336.382 125.159 336.633 123.891 337.123 122.707C337.612 121.524 338.33 120.448 339.235 119.542C340.14 118.636 341.215 117.917 342.398 117.427C343.581 116.937 344.848 116.684 346.129 116.684C347.409 116.684 348.677 116.937 349.86 117.427C351.043 117.917 352.117 118.636 353.022 119.542C353.928 120.448 354.645 121.524 355.135 122.707C355.624 123.891 355.876 125.159 355.875 126.44L353.719 148.249Z" fill="#2F2E41"/>
</g>
<defs>
<linearGradient id="paint0_linear_303_235" x1="343.562" y1="44.068" x2="39.8836" y2="439.018" gradientUnits="userSpaceOnUse">
<stop stop-color="#1877F2"/>
<stop offset="0.875812" stop-color="#002231"/>
</linearGradient>
<clipPath id="clip0_303_235">
<rect width="348" height="242" fill="white" transform="translate(65.4316 53.4924)"/>
</clipPath>
</defs>
</svg>
