<svg width="1206" height="578" viewBox="0 0 1206 578" fill="none" xmlns="http://www.w3.org/2000/svg">
<g clip-path="url(#clip0_308_236)">
<rect width="1206" height="578" fill="white"/>
<path d="M276.328 505.117C279.311 481.133 294.176 457.501 317.051 449.696C308.029 474.383 308.031 501.464 317.056 526.149C320.571 535.657 325.471 545.865 322.164 555.447C320.107 561.41 315.075 565.971 309.449 568.824C303.823 571.676 297.58 573.035 291.415 574.367L290.201 575.371C280.414 553.272 273.345 529.101 276.328 505.117Z" fill="#F0F0F0"/>
<path d="M317.277 450.15C303.956 465.075 295.677 483.818 293.615 503.716C293.095 507.992 293.252 512.323 294.081 516.55C295.021 520.641 297.04 524.406 299.928 527.454C302.563 530.349 305.595 533.005 307.48 536.491C308.419 538.29 308.967 540.266 309.088 542.291C309.209 544.316 308.901 546.344 308.183 548.242C306.519 553.017 303.237 556.908 299.896 560.603C296.186 564.705 292.268 568.907 290.691 574.345C290.5 575.004 289.489 574.669 289.68 574.011C292.423 564.549 301.608 559.175 305.989 550.654C308.033 546.677 308.89 542.061 306.974 537.863C305.299 534.193 302.175 531.451 299.482 528.542C296.621 525.611 294.522 522.023 293.367 518.094C292.326 513.923 292.002 509.605 292.409 505.325C293.173 495.676 295.449 486.206 299.154 477.264C303.326 467.034 309.217 457.594 316.573 449.351C317.028 448.841 317.73 449.643 317.277 450.15L317.277 450.15Z" fill="white"/>
<path d="M293.902 497.27C290.61 496.471 287.709 494.528 285.718 491.788C283.727 489.047 282.774 485.689 283.031 482.311C283.085 481.628 284.15 481.68 284.095 482.364C283.85 485.509 284.738 488.638 286.597 491.185C288.457 493.733 291.166 495.533 294.235 496.258C294.902 496.417 294.565 497.428 293.902 497.27Z" fill="white"/>
<path d="M298.399 526.162C304.344 522.612 308.733 516.952 310.69 510.31C310.883 509.652 311.895 509.987 311.702 510.644C309.652 517.552 305.073 523.433 298.878 527.113C298.287 527.463 297.811 526.51 298.399 526.162Z" fill="white"/>
<path d="M304.314 468.043C305.523 468.618 306.856 468.883 308.193 468.815C309.53 468.747 310.83 468.348 311.974 467.654C312.56 467.297 313.036 468.25 312.454 468.606C311.185 469.367 309.75 469.805 308.273 469.884C306.795 469.962 305.322 469.677 303.98 469.055C303.849 469.007 303.74 468.91 303.677 468.785C303.615 468.66 303.602 468.516 303.641 468.382C303.686 468.248 303.782 468.138 303.908 468.074C304.034 468.011 304.18 468 304.314 468.043V468.043Z" fill="white"/>
<path d="M386.777 492.535C386.417 492.768 386.058 493.002 385.698 493.245C380.88 496.413 376.328 499.967 372.086 503.872C371.753 504.168 371.42 504.474 371.097 504.78C360.977 514.296 352.713 525.609 346.723 538.142C344.344 543.132 342.349 548.295 340.753 553.588C338.55 560.897 336.743 568.997 332.383 574.975C331.935 575.604 331.448 576.205 330.926 576.773H291.52C291.43 576.728 291.34 576.692 291.25 576.647L289.677 576.719C289.74 576.441 289.812 576.153 289.875 575.874C289.911 575.712 289.956 575.551 289.992 575.389C290.018 575.281 290.046 575.173 290.064 575.074C290.072 575.038 290.082 575.002 290.09 574.975C290.108 574.876 290.135 574.786 290.153 574.697C290.549 573.087 290.957 571.478 291.376 569.869C291.376 569.86 291.376 569.86 291.385 569.851C294.464 557.558 298.991 545.674 304.871 534.447C305.051 534.115 305.231 533.773 305.429 533.44C308.151 528.471 311.275 523.732 314.77 519.272C316.691 516.836 318.735 514.498 320.893 512.268C326.479 506.518 332.935 501.682 340.025 497.938C354.158 490.476 370.521 487.617 385.626 492.175C386.012 492.292 386.39 492.409 386.777 492.535Z" fill="#F0F0F0"/>
<path d="M386.688 493.035C367.065 496.932 349.169 506.913 335.542 521.559C332.552 524.66 330.07 528.213 328.187 532.087C326.474 535.92 325.82 540.141 326.29 544.313C326.651 548.211 327.472 552.157 326.879 556.075C326.546 558.077 325.793 559.985 324.67 561.675C323.548 563.365 322.081 564.798 320.365 565.881C316.161 568.691 311.198 569.823 306.306 570.762C300.874 571.803 295.216 572.799 290.682 576.192C290.133 576.603 289.527 575.727 290.076 575.316C297.963 569.414 308.532 570.652 317.161 566.485C321.187 564.541 324.651 561.372 325.649 556.867C326.521 552.927 325.678 548.857 325.279 544.913C324.76 540.851 325.243 536.723 326.688 532.89C328.368 528.933 330.709 525.29 333.611 522.118C340.03 514.873 347.549 508.682 355.892 503.773C365.382 498.117 375.77 494.126 386.606 491.973C387.277 491.84 387.354 492.903 386.688 493.035V493.035Z" fill="white"/>
<path d="M339.652 516.585C337.505 513.965 336.359 510.667 336.419 507.281C336.479 503.894 337.741 500.639 339.98 498.097C340.434 497.584 341.253 498.266 340.797 498.78C338.708 501.143 337.533 504.176 337.484 507.329C337.435 510.483 338.514 513.551 340.528 515.978C340.965 516.506 340.087 517.11 339.652 516.585V516.585Z" fill="white"/>
<path d="M325.847 542.36C332.731 543.105 339.644 541.229 345.206 537.104C345.756 536.695 346.362 537.571 345.812 537.979C340.016 542.261 332.819 544.2 325.657 543.409C324.974 543.333 325.168 542.285 325.847 542.36V542.36Z" fill="white"/>
<path d="M365.564 499.518C366.183 500.704 367.088 501.719 368.196 502.469C369.305 503.22 370.582 503.684 371.914 503.819C372.598 503.886 372.403 504.934 371.724 504.867C370.253 504.711 368.843 504.197 367.616 503.37C366.39 502.544 365.384 501.429 364.688 500.124C364.612 500.007 364.584 499.865 364.609 499.727C364.634 499.589 364.71 499.466 364.823 499.383C364.939 499.303 365.082 499.273 365.221 499.298C365.36 499.323 365.483 499.402 365.564 499.518V499.518Z" fill="white"/>
<path d="M985.583 513.599C983.004 492.864 970.153 472.434 950.378 465.687C958.177 487.028 958.175 510.441 950.373 531.781C947.334 540.001 943.098 548.826 945.957 557.11C947.735 562.264 952.086 566.208 956.949 568.674C961.813 571.14 967.21 572.315 972.54 573.467L973.589 574.334C982.05 555.229 988.162 534.333 985.583 513.599Z" fill="#F0F0F0"/>
<path d="M950.181 466.079C961.698 478.982 968.856 495.185 970.638 512.388C971.088 516.084 970.952 519.829 970.235 523.483C969.422 527.02 967.676 530.275 965.18 532.909C962.902 535.412 960.281 537.709 958.651 540.722C957.84 542.277 957.366 543.986 957.261 545.736C957.156 547.487 957.423 549.24 958.043 550.881C959.482 555.009 962.319 558.373 965.208 561.567C968.415 565.113 971.802 568.746 973.165 573.447C973.33 574.017 974.205 573.727 974.04 573.158C971.668 564.979 963.727 560.333 959.941 552.966C958.174 549.528 957.432 545.537 959.089 541.908C960.537 538.735 963.237 536.365 965.566 533.85C968.039 531.316 969.854 528.215 970.852 524.817C971.752 521.211 972.032 517.479 971.68 513.779C971.02 505.437 969.053 497.25 965.849 489.519C962.243 480.676 957.15 472.514 950.791 465.388C950.397 464.947 949.79 465.641 950.181 466.079H950.181Z" fill="white"/>
<path d="M970.39 506.815C973.236 506.124 975.743 504.444 977.465 502.075C979.186 499.706 980.01 496.803 979.788 493.883C979.741 493.292 978.821 493.338 978.868 493.929C979.079 496.648 978.312 499.352 976.705 501.555C975.097 503.757 972.755 505.313 970.101 505.941C969.525 506.078 969.817 506.951 970.39 506.815Z" fill="white"/>
<path d="M966.502 531.792C961.362 528.723 957.568 523.83 955.876 518.088C955.709 517.519 954.835 517.809 955.002 518.377C956.774 524.349 960.733 529.433 966.088 532.614C966.599 532.917 967.01 532.093 966.502 531.792V531.792Z" fill="white"/>
<path d="M961.388 481.548C960.343 482.045 959.191 482.274 958.035 482.215C956.879 482.157 955.756 481.812 954.766 481.212C954.259 480.903 953.848 481.727 954.352 482.034C955.448 482.692 956.689 483.072 957.966 483.139C959.243 483.207 960.517 482.961 961.677 482.423C961.791 482.381 961.884 482.298 961.939 482.19C961.993 482.082 962.004 481.957 961.97 481.841C961.931 481.725 961.848 481.63 961.74 481.575C961.631 481.52 961.504 481.511 961.389 481.548L961.388 481.548Z" fill="white"/>
<path d="M890.098 502.721C890.409 502.923 890.72 503.125 891.031 503.335C895.196 506.074 899.132 509.146 902.799 512.522C903.086 512.778 903.374 513.043 903.654 513.307C912.402 521.534 919.547 531.314 924.725 542.149C926.782 546.463 928.507 550.927 929.886 555.502C931.791 561.821 933.353 568.823 937.123 573.992C937.51 574.536 937.93 575.055 938.382 575.546H972.449C972.527 575.508 972.604 575.476 972.682 575.438L974.042 575.5C973.988 575.259 973.926 575.01 973.871 574.769C973.84 574.629 973.801 574.489 973.77 574.349C973.747 574.256 973.724 574.163 973.708 574.077C973.701 574.046 973.693 574.015 973.685 573.992C973.669 573.906 973.646 573.829 973.63 573.751C973.288 572.36 972.936 570.969 972.573 569.577C972.573 569.57 972.573 569.57 972.566 569.562C969.903 558.934 965.99 548.66 960.907 538.955C960.751 538.667 960.596 538.372 960.425 538.085C958.071 533.788 955.37 529.692 952.349 525.836C950.688 523.729 948.921 521.709 947.056 519.781C942.226 514.81 936.645 510.629 930.516 507.392C918.297 500.941 904.151 498.47 891.093 502.41C890.759 502.511 890.432 502.612 890.098 502.721Z" fill="#F0F0F0"/>
<path d="M890.175 503.154C907.139 506.523 922.611 515.151 934.392 527.813C936.976 530.494 939.122 533.566 940.75 536.915C942.23 540.228 942.797 543.878 942.389 547.484C942.077 550.854 941.368 554.266 941.881 557.653C942.169 559.383 942.82 561.033 943.79 562.493C944.761 563.954 946.029 565.194 947.512 566.13C951.146 568.559 955.437 569.538 959.667 570.349C964.362 571.25 969.254 572.111 973.173 575.044C973.648 575.399 974.172 574.642 973.698 574.287C966.879 569.184 957.741 570.255 950.282 566.653C946.802 564.972 943.806 562.232 942.944 558.337C942.19 554.931 942.919 551.413 943.264 548.003C943.713 544.491 943.295 540.922 942.046 537.609C940.594 534.188 938.57 531.039 936.061 528.296C930.511 522.033 924.011 516.681 916.799 512.437C908.594 507.547 899.614 504.097 890.246 502.235C889.666 502.12 889.599 503.039 890.175 503.154V503.154Z" fill="white"/>
<path d="M930.838 523.513C932.694 521.248 933.685 518.397 933.633 515.469C933.581 512.541 932.49 509.727 930.555 507.53C930.162 507.086 929.454 507.676 929.848 508.12C931.654 510.163 932.67 512.785 932.713 515.511C932.755 518.238 931.822 520.89 930.081 522.988C929.703 523.445 930.462 523.967 930.838 523.513V523.513Z" fill="white"/>
<path d="M942.773 545.796C936.821 546.44 930.845 544.818 926.037 541.252C925.561 540.898 925.037 541.656 925.513 542.009C930.523 545.71 936.745 547.386 942.937 546.702C943.527 546.637 943.36 545.731 942.773 545.796H942.773Z" fill="white"/>
<path d="M908.437 508.758C907.902 509.784 907.12 510.661 906.161 511.31C905.203 511.959 904.099 512.36 902.947 512.477C902.356 512.535 902.525 513.441 903.112 513.383C904.383 513.248 905.603 512.804 906.663 512.089C907.723 511.374 908.592 510.411 909.194 509.282C909.26 509.181 909.285 509.058 909.263 508.939C909.241 508.82 909.175 508.714 909.078 508.642C908.977 508.573 908.854 508.546 908.734 508.568C908.614 508.59 908.507 508.658 908.437 508.758H908.437Z" fill="white"/>
<path d="M1056.69 41.888H254.955C254.647 41.888 254.351 41.7654 254.133 41.5472C253.914 41.329 253.792 41.0331 253.792 40.7245C253.792 40.4159 253.914 40.1199 254.133 39.9017C254.351 39.6835 254.647 39.5609 254.955 39.5609H1056.69C1057 39.5609 1057.3 39.6835 1057.51 39.9017C1057.73 40.1199 1057.85 40.4159 1057.85 40.7245C1057.85 41.0331 1057.73 41.329 1057.51 41.5472C1057.3 41.7654 1057 41.888 1056.69 41.888V41.888Z" fill="#CACACA"/>
<path d="M281.146 25.5982C288.215 25.5982 293.946 19.8679 293.946 12.7991C293.946 5.73036 288.215 0 281.146 0C274.077 0 268.346 5.73036 268.346 12.7991C268.346 19.8679 274.077 25.5982 281.146 25.5982Z" fill="#3F3D56"/>
<path d="M325.364 25.5982C332.433 25.5982 338.163 19.8679 338.163 12.7991C338.163 5.73036 332.433 0 325.364 0C318.294 0 312.564 5.73036 312.564 12.7991C312.564 19.8679 318.294 25.5982 325.364 25.5982Z" fill="#3F3D56"/>
<path d="M369.581 25.5982C376.651 25.5982 382.381 19.8679 382.381 12.7991C382.381 5.73036 376.651 0 369.581 0C362.512 0 356.781 5.73036 356.781 12.7991C356.781 19.8679 362.512 25.5982 369.581 25.5982Z" fill="#3F3D56"/>
<path d="M1030.2 7.82878H998.78C998.163 7.82878 997.571 7.58361 997.135 7.14719C996.698 6.71077 996.453 6.11886 996.453 5.50167C996.453 4.88449 996.698 4.29257 997.135 3.85615C997.571 3.41974 998.163 3.17457 998.78 3.17457H1030.2C1030.5 3.17386 1030.81 3.23354 1031.09 3.35017C1031.37 3.46681 1031.63 3.6381 1031.85 3.85426C1032.06 4.07043 1032.24 4.3272 1032.35 4.60989C1032.47 4.89257 1032.53 5.19562 1032.53 5.50167C1032.53 5.80772 1032.47 6.11077 1032.35 6.39346C1032.24 6.67615 1032.06 6.93292 1031.85 7.14908C1031.63 7.36525 1031.37 7.53654 1031.09 7.65317C1030.81 7.76981 1030.5 7.82948 1030.2 7.82878H1030.2Z" fill="#3F3D56"/>
<path d="M1030.2 16.5555H998.78C998.163 16.5555 997.571 16.3103 997.135 15.8739C996.698 15.4375 996.453 14.8456 996.453 14.2284C996.453 13.6112 996.698 13.0193 997.135 12.5829C997.571 12.1464 998.163 11.9012 998.78 11.9012H1030.2C1030.82 11.9012 1031.41 12.1464 1031.84 12.5829C1032.28 13.0193 1032.53 13.6112 1032.53 14.2284C1032.53 14.8456 1032.28 15.4375 1031.84 15.8739C1031.41 16.3103 1030.82 16.5555 1030.2 16.5555H1030.2Z" fill="#3F3D56"/>
<path d="M1030.2 25.2821H998.78C998.163 25.2821 997.571 25.037 997.135 24.6006C996.698 24.1641 996.453 23.5722 996.453 22.955C996.453 22.3379 996.698 21.7459 997.135 21.3095C997.571 20.8731 998.163 20.6279 998.78 20.6279H1030.2C1030.5 20.6272 1030.81 20.6869 1031.09 20.8035C1031.37 20.9202 1031.63 21.0915 1031.85 21.3076C1032.06 21.5238 1032.24 21.7806 1032.35 22.0633C1032.47 22.3459 1032.53 22.649 1032.53 22.955C1032.53 23.2611 1032.47 23.5641 1032.35 23.8468C1032.24 24.1295 1032.06 24.3863 1031.85 24.6025C1031.63 24.8186 1031.37 24.9899 1031.09 25.1065C1030.81 25.2232 1030.5 25.2829 1030.2 25.2821H1030.2Z" fill="#3F3D56"/>
<path d="M1032.53 91.7836H864.964V192.242H1032.53V91.7836Z" fill="#1877F2"/>
<path d="M999.096 238.392H899.397C898.153 238.39 896.96 237.894 896.081 237.014C895.202 236.133 894.708 234.94 894.708 233.696C894.708 232.452 895.202 231.259 896.081 230.378C896.96 229.498 898.153 229.002 899.397 229H999.096C1000.34 229 1001.54 229.495 1002.42 230.376C1003.3 231.256 1003.79 232.451 1003.79 233.696C1003.79 234.941 1003.3 236.136 1002.42 237.016C1001.54 237.897 1000.34 238.392 999.096 238.392Z" fill="#E4E4E4"/>
<path d="M983.021 222.318H915.472C914.854 222.319 914.243 222.198 913.672 221.963C913.102 221.727 912.583 221.381 912.146 220.945C911.709 220.509 911.363 219.991 911.126 219.421C910.89 218.851 910.768 218.24 910.768 217.622C910.768 217.005 910.89 216.394 911.126 215.824C911.363 215.253 911.709 214.735 912.146 214.299C912.583 213.863 913.102 213.517 913.672 213.282C914.243 213.046 914.854 212.926 915.472 212.927H983.021C983.638 212.926 984.25 213.046 984.821 213.282C985.391 213.517 985.91 213.863 986.347 214.299C986.783 214.735 987.13 215.253 987.366 215.824C987.603 216.394 987.725 217.005 987.725 217.622C987.725 218.24 987.603 218.851 987.366 219.421C987.13 219.991 986.783 220.509 986.347 220.945C985.91 221.381 985.391 221.727 984.821 221.963C984.25 222.198 983.638 222.319 983.021 222.318Z" fill="#E4E4E4"/>
<path d="M1032.53 274.462H864.964V374.92H1032.53V274.462Z" fill="#F0F0F0"/>
<path d="M999.096 421.07H899.397C898.152 421.07 896.957 420.575 896.077 419.695C895.196 418.814 894.701 417.62 894.701 416.374C894.701 415.129 895.196 413.935 896.077 413.054C896.957 412.173 898.152 411.679 899.397 411.679H999.096C1000.34 411.679 1001.54 412.173 1002.42 413.054C1003.3 413.935 1003.79 415.129 1003.79 416.374C1003.79 417.62 1003.3 418.814 1002.42 419.695C1001.54 420.575 1000.34 421.07 999.096 421.07V421.07Z" fill="#E4E4E4"/>
<path d="M983.021 404.996H915.472C914.226 404.996 913.032 404.502 912.151 403.621C911.27 402.74 910.776 401.546 910.776 400.301C910.776 399.055 911.27 397.861 912.151 396.98C913.032 396.1 914.226 395.605 915.472 395.605H983.021C984.267 395.605 985.461 396.1 986.342 396.98C987.222 397.861 987.717 399.055 987.717 400.301C987.717 401.546 987.222 402.74 986.342 403.621C985.461 404.502 984.267 404.996 983.021 404.996Z" fill="#E4E4E4"/>
<path d="M779.04 162.218H273.251C272.006 162.218 270.812 161.723 269.931 160.843C269.05 159.962 268.555 158.768 268.555 157.522C268.555 156.277 269.05 155.082 269.931 154.202C270.812 153.321 272.006 152.827 273.251 152.827H779.04C780.285 152.827 781.479 153.321 782.36 154.202C783.241 155.082 783.736 156.277 783.736 157.522C783.736 158.768 783.241 159.962 782.36 160.843C781.479 161.723 780.285 162.218 779.04 162.218V162.218Z" fill="#E4E4E4"/>
<path d="M779.04 197.795H273.251C272.006 197.795 270.812 197.3 269.931 196.419C269.05 195.539 268.555 194.344 268.555 193.099C268.555 191.854 269.05 190.659 269.931 189.779C270.812 188.898 272.006 188.403 273.251 188.403H779.04C780.285 188.403 781.479 188.898 782.36 189.779C783.241 190.659 783.736 191.854 783.736 193.099C783.736 194.344 783.241 195.539 782.36 196.419C781.479 197.3 780.285 197.795 779.04 197.795V197.795Z" fill="#E4E4E4"/>
<path d="M779.04 233.372H273.251C272.006 233.372 270.812 232.877 269.931 231.996C269.05 231.116 268.555 229.921 268.555 228.676C268.555 227.431 269.05 226.236 269.931 225.356C270.812 224.475 272.006 223.98 273.251 223.98H779.04C780.285 223.98 781.479 224.475 782.36 225.356C783.241 226.236 783.736 227.431 783.736 228.676C783.736 229.921 783.241 231.116 782.36 231.996C781.479 232.877 780.285 233.372 779.04 233.372V233.372Z" fill="#E4E4E4"/>
<path d="M779.04 268.948H273.251C272.006 268.948 270.812 268.454 269.931 267.573C269.05 266.692 268.555 265.498 268.555 264.253C268.555 263.007 269.05 261.813 269.931 260.932C270.812 260.052 272.006 259.557 273.251 259.557H779.04C780.285 259.557 781.479 260.052 782.36 260.932C783.241 261.813 783.736 263.007 783.736 264.253C783.736 265.498 783.241 266.692 782.36 267.573C781.479 268.454 780.285 268.948 779.04 268.948V268.948Z" fill="#E4E4E4"/>
<path d="M779.04 340.102H273.251C272.006 340.102 270.812 339.607 269.931 338.727C269.05 337.846 268.555 336.652 268.555 335.406C268.555 334.161 269.05 332.967 269.931 332.086C270.812 331.205 272.006 330.711 273.251 330.711H779.04C780.285 330.711 781.479 331.205 782.36 332.086C783.241 332.967 783.736 334.161 783.736 335.406C783.736 336.652 783.241 337.846 782.36 338.727C781.479 339.607 780.285 340.102 779.04 340.102V340.102Z" fill="#E4E4E4"/>
<path d="M779.04 375.679H273.251C272.006 375.679 270.812 375.184 269.931 374.304C269.05 373.423 268.555 372.229 268.555 370.983C268.555 369.738 269.05 368.543 269.931 367.663C270.812 366.782 272.006 366.287 273.251 366.287H779.04C780.285 366.287 781.479 366.782 782.36 367.663C783.241 368.543 783.736 369.738 783.736 370.983C783.736 372.229 783.241 373.423 782.36 374.304C781.479 375.184 780.285 375.679 779.04 375.679V375.679Z" fill="#E4E4E4"/>
<path d="M695.488 126.516H356.803C356.186 126.517 355.574 126.396 355.004 126.16C354.433 125.925 353.915 125.579 353.478 125.143C353.041 124.707 352.694 124.189 352.458 123.619C352.221 123.049 352.1 122.437 352.1 121.82C352.1 121.203 352.221 120.591 352.458 120.021C352.694 119.451 353.041 118.933 353.478 118.497C353.915 118.061 354.433 117.715 355.004 117.48C355.574 117.244 356.186 117.123 356.803 117.124H695.488C696.105 117.123 696.717 117.244 697.287 117.48C697.858 117.715 698.376 118.061 698.813 118.497C699.25 118.933 699.597 119.451 699.833 120.021C700.07 120.591 700.191 121.203 700.191 121.82C700.191 122.437 700.07 123.049 699.833 123.619C699.597 124.189 699.25 124.707 698.813 125.143C698.376 125.579 697.858 125.925 697.287 126.16C696.717 126.396 696.105 126.517 695.488 126.516V126.516Z" fill="#E4E4E4"/>
<path d="M825.261 567.746H835.039L839.691 530.03L825.26 530.031L825.261 567.746Z" fill="#FFB6B6"/>
<path d="M822.767 564.554L842.024 564.553H842.025C845.28 564.553 848.401 565.846 850.703 568.147C853.004 570.449 854.297 573.57 854.298 576.824V577.223L822.767 577.224L822.767 564.554Z" fill="#2F2E41"/>
<path d="M775.281 567.746H785.059L789.712 530.03L775.279 530.031L775.281 567.746Z" fill="#FFB6B6"/>
<path d="M772.787 564.554L792.044 564.553H792.045C795.3 564.553 798.421 565.846 800.723 568.147C803.024 570.449 804.317 573.57 804.318 576.824V577.223L772.787 577.224L772.787 564.554Z" fill="#2F2E41"/>
<path d="M889.469 147.463C889.469 145.822 889.106 144.201 888.406 142.717C887.705 141.232 886.684 139.922 885.416 138.88C884.149 137.837 882.666 137.089 881.074 136.688C879.483 136.287 877.822 136.244 876.212 136.562C874.602 136.88 873.082 137.55 871.762 138.526C870.442 139.501 869.354 140.757 868.578 142.202C867.801 143.648 867.354 145.248 867.27 146.887C867.186 148.526 867.466 150.163 868.09 151.681L845.618 187.233L831.629 215.424L843.173 225.669L852.057 216.32L881.113 158.212C883.501 157.602 885.619 156.215 887.132 154.269C888.645 152.322 889.467 149.928 889.469 147.463V147.463Z" fill="#FFB6B6"/>
<path d="M772.848 264.076L750.821 260.663L745.574 300.51L716.985 362.027C715.12 363.189 713.642 364.878 712.737 366.88C711.832 368.882 711.541 371.108 711.9 373.275C712.26 375.443 713.254 377.455 714.757 379.058C716.26 380.661 718.205 381.782 720.345 382.28C722.485 382.777 724.724 382.63 726.781 381.855C728.837 381.08 730.617 379.714 731.897 377.927C733.176 376.141 733.897 374.016 733.969 371.82C734.041 369.624 733.46 367.456 732.3 365.59L762.191 311.617L772.848 264.076Z" fill="#FFB6B6"/>
<path d="M785.055 330.458C785.055 330.458 765.685 348.369 768.146 393.405L773.572 462.978L772.204 559.961L792.1 558.398L809.481 395.868L826.141 462.504L820.16 551.271L839.325 551.716L859.461 451.398L854.688 377.036L846.671 330.458H785.055Z" fill="#2F2E41"/>
<path d="M805.779 225.575L759.501 238.532L783.032 309.03L779.514 335.999L850.869 336.461L834.344 284.333C834.344 284.333 843.617 265.264 833.028 251.898L805.779 225.575Z" fill="#1877F2"/>
<path d="M800.225 236.681L805.779 225.575C805.779 225.575 805.599 222.784 818.647 221.403L833.956 206.188L847.969 220.153L824.29 255.191L800.225 236.681Z" fill="#1877F2"/>
<path d="M778.012 247.787C778.012 247.787 761.352 229.277 752.097 238.532C742.841 247.787 747.587 277.216 747.587 277.216L776.414 281.689L778.012 247.787Z" fill="#1877F2"/>
<path d="M786.462 176.635C814.835 176.763 814.832 219.9 786.461 220.023C758.09 219.896 758.092 176.759 786.462 176.635Z" fill="#FFB6B6"/>
<path d="M789.621 196.895C793.456 199.154 797.441 201.463 801.865 201.948C806.29 202.432 811.299 200.57 813.074 196.489C813.629 195.075 813.923 193.572 813.943 192.053C814.332 184.302 811.65 176.71 806.478 170.923C803.883 168.087 800.706 165.843 797.164 164.346C793.623 162.849 789.8 162.133 785.957 162.247C778.626 162.566 771.851 166.036 765.346 169.431C759.364 172.552 753.047 175.992 749.797 181.906C744.98 190.668 748.491 201.396 749.427 211.351C750.083 218.774 749.237 226.253 746.94 233.341C744.642 240.43 740.939 246.983 736.053 252.61L776.421 256.434C781.334 256.9 786.343 257.36 791.159 256.284C795.314 255.356 799.14 253.32 802.23 250.392C805.319 247.463 807.558 243.752 808.707 239.654C809.856 235.555 809.873 231.221 808.756 227.113C807.639 223.006 805.43 219.277 802.363 216.325C796.633 210.809 787.418 206.904 787.192 198.953" fill="#2F2E41"/>
<path d="M1090.46 566.843H1079.75L1074.66 525.535H1090.46L1090.46 566.843Z" fill="#9F616A"/>
<path d="M1093.19 577.224L1058.66 577.223V576.786C1058.66 573.222 1060.08 569.803 1062.6 567.283C1065.12 564.762 1068.54 563.346 1072.1 563.346H1072.1L1093.2 563.347L1093.19 577.224Z" fill="#2F2E41"/>
<path d="M1190.05 566.843H1179.34L1174.25 525.535H1190.05L1190.05 566.843Z" fill="#9F616A"/>
<path d="M1192.78 577.224L1158.25 577.223V576.786C1158.25 573.222 1159.67 569.803 1162.19 567.283C1164.71 564.762 1168.13 563.346 1171.69 563.346H1171.69L1192.78 563.347L1192.78 577.224Z" fill="#2F2E41"/>
<path d="M1086.19 357.214C1086.19 357.214 1077.2 381.614 1078.49 391.887C1079.77 402.16 1069.5 474.075 1070.78 480.496C1072.07 486.917 1069.5 519.021 1070.78 524.158C1072.07 529.294 1067.18 535.43 1069.75 540.567C1072.32 545.703 1075.92 556.262 1075.92 556.262L1092.62 554.978L1095.18 540.852C1095.18 540.852 1102.89 539.568 1101.61 531.863C1100.32 524.158 1108.03 472.791 1108.03 472.791L1129.86 400.876L1160.68 466.37C1160.68 466.37 1161.97 512.6 1165.82 517.737C1169.67 522.874 1161.97 537 1165.82 542.136C1169.67 547.273 1173.52 556.262 1173.52 556.262H1192.79V545.989C1192.79 545.989 1204.35 539.568 1192.79 520.305L1184.98 404.624L1177.27 351.973L1086.19 357.214Z" fill="#2F2E41"/>
<path d="M1134.07 195.741C1147.32 195.741 1158.06 185.002 1158.06 171.755C1158.06 158.509 1147.32 147.77 1134.07 147.77C1120.82 147.77 1110.08 158.509 1110.08 171.755C1110.08 185.002 1120.82 195.741 1134.07 195.741Z" fill="#A0616A"/>
<path d="M1113.66 170.101C1115.35 174.425 1117.04 178.749 1118.73 183.073C1120.82 188.389 1123.2 194.077 1128.08 197.043C1134.1 200.706 1142.14 198.92 1147.97 194.952C1153.21 191.384 1157.23 186.297 1159.49 180.376C1161.76 174.455 1162.15 167.983 1160.63 161.829C1159.11 155.675 1155.74 150.134 1150.98 145.951C1146.21 141.767 1140.28 139.141 1133.99 138.426L1133.74 142.768L1128.42 138.302C1128.02 138.978 1127.48 139.556 1126.83 139.993C1126.18 140.429 1125.44 140.713 1124.67 140.823C1123.89 140.932 1123.1 140.865 1122.36 140.625C1121.61 140.386 1120.93 139.981 1120.36 139.441C1121.76 142.342 1120.15 145.88 1117.82 148.103C1114.95 150.833 1106.75 154.114 1107.09 158.994C1107.32 162.251 1112.34 166.725 1113.66 170.101Z" fill="#2F2E41"/>
<path d="M1200.1 392.694C1200.92 391.461 1201.47 390.061 1201.7 388.594C1201.92 387.127 1201.83 385.628 1201.41 384.202C1201 382.776 1200.27 381.459 1199.29 380.343C1198.32 379.227 1197.1 378.339 1195.74 377.742L1196.22 354.539L1182.19 350.808L1181.98 383.585C1181.12 385.935 1181.16 388.516 1182.09 390.839C1183.01 393.162 1184.76 395.065 1186.99 396.188C1189.22 397.31 1191.79 397.575 1194.21 396.931C1196.62 396.287 1198.72 394.78 1200.1 392.694V392.694Z" fill="#9F616A"/>
<path d="M1151.89 210.565C1151.89 210.565 1133.3 201.271 1115.74 207.467C1098.19 213.662 1088.9 220.891 1088.9 220.891L1100.25 280.781L1084.76 361.324C1084.76 361.324 1164.28 355.128 1171.51 361.324C1178.74 367.519 1178.74 354.096 1178.74 354.096L1172.54 277.683L1183.9 229.151L1151.89 210.565Z" fill="#3F3D56"/>
<path d="M1073.44 394.068C1074.57 393.117 1075.49 391.927 1076.12 390.582C1076.75 389.238 1077.08 387.772 1077.08 386.287C1077.08 384.802 1076.76 383.335 1076.13 381.989C1075.51 380.643 1074.59 379.45 1073.46 378.495L1080.43 356.36L1068.01 348.841L1058.6 380.239C1057.12 382.255 1056.44 384.743 1056.67 387.232C1056.91 389.721 1058.05 392.037 1059.88 393.742C1061.7 395.446 1064.09 396.421 1066.59 396.481C1069.09 396.542 1071.53 395.683 1073.44 394.068V394.068Z" fill="#9F616A"/>
<path d="M1096.12 220.891H1088.9C1088.9 220.891 1077.54 228.119 1077.54 238.445C1077.54 248.771 1061.01 369.585 1061.01 369.585L1078.57 372.682L1094.06 288.009L1105.42 265.292L1096.12 220.891Z" fill="#3F3D56"/>
<path d="M1164.28 229.151H1183.9C1183.9 229.151 1190.1 235.347 1193.19 249.803C1196.29 264.26 1199.39 321.053 1199.39 321.053L1197.32 372.682H1181.83L1179.77 305.564L1169.44 262.195L1164.28 229.151Z" fill="#3F3D56"/>
<path d="M254.795 297.868C254.3 298.108 253.824 298.387 253.373 298.701L207.437 280.746L205.617 268.905L187.385 269.316L188.571 290.593C188.667 292.312 189.318 293.954 190.426 295.271C191.534 296.589 193.04 297.511 194.717 297.9L249.376 310.58C250.044 312.592 251.308 314.353 253.001 315.629C254.694 316.904 256.735 317.635 258.853 317.722C260.971 317.81 263.066 317.25 264.858 316.118C266.651 314.987 268.056 313.336 268.887 311.386C269.719 309.436 269.937 307.279 269.512 305.202C269.088 303.125 268.041 301.227 266.511 299.759C264.981 298.292 263.041 297.325 260.948 296.987C258.855 296.649 256.709 296.957 254.795 297.868H254.795Z" fill="#9F616A"/>
<path d="M185.826 565.407L198.018 565.405L203.818 518.381H185.823L185.826 565.407Z" fill="#9F616A"/>
<path d="M182.716 561.426L206.727 561.425H206.728C210.786 561.425 214.678 563.037 217.547 565.907C220.417 568.776 222.029 572.668 222.029 576.726V577.223L182.716 577.224L182.716 561.426Z" fill="#2F2E41"/>
<path d="M127.15 565.407L139.343 565.405L145.143 518.381H127.149L127.15 565.407Z" fill="#9F616A"/>
<path d="M124.041 561.426L148.052 561.425H148.053C152.111 561.425 156.003 563.037 158.872 565.907C161.742 568.776 163.354 572.668 163.354 576.726V577.223L124.041 577.224L124.041 561.426Z" fill="#2F2E41"/>
<path d="M134.22 206.878C130.748 192.542 127.806 176.372 134.355 163.168C138.898 154.007 155.707 150.922 165.342 154.222C174.978 157.523 181.944 166.477 185.008 176.24C188.072 186.004 187.716 196.524 186.381 206.674C168.66 206.333 150.939 205.993 134.22 206.878Z" fill="#2F2E41"/>
<path d="M164.125 206.874C175.538 206.874 184.789 197.623 184.789 186.211C184.789 174.799 175.538 165.547 164.125 165.547C152.712 165.547 143.46 174.799 143.46 186.211C143.46 197.623 152.712 206.874 164.125 206.874Z" fill="#9F616A"/>
<path d="M138.863 181.954C138.797 178.477 139.431 175.021 140.727 171.793C142.023 168.565 143.955 165.631 146.408 163.164C148.861 160.698 151.784 158.749 155.005 157.435C158.225 156.12 161.677 155.467 165.156 155.512C168.634 155.558 172.067 156.303 175.252 157.702C178.437 159.101 181.308 161.125 183.695 163.656C186.082 166.186 187.935 169.171 189.146 172.431C190.357 175.692 190.899 179.163 190.742 182.638C173.055 182.676 155.368 182.713 138.863 181.954Z" fill="#2F2E41"/>
<path d="M146.975 283.108L138.333 297.511C138.333 297.511 114.665 341.898 116.072 378.691L121.31 424.518L115.562 435.764L119.41 455.551L112.264 469.725L125.181 538.153L125.731 552.993H146.618L145.518 537.878L154.313 471.215L169.154 400.039L176.849 461.48L174.1 476.87L177.673 489.786L182.62 529.634L183.17 548.871L202.133 551.069L209.278 479.893L213.401 445.932L191.308 295.356L146.975 283.108Z" fill="#2F2E41"/>
<path d="M144.234 213.563L131.367 219.027L124.141 248.932L139.356 287.895L133.668 307.363C150.886 336.814 172.197 341.093 197.275 322.206C191.967 307.305 192.734 291.984 198.023 276.349C198.023 276.349 211.215 264.065 202 248.095L193.209 224.237L182.326 218.795L144.234 213.563Z" fill="#CBCBCB"/>
<path d="M190.674 229.438L193.595 224.014C193.595 224.014 201.298 225.172 204.444 234.445C207.59 243.717 208.408 281.175 208.408 281.175L191.926 282.01L190.674 229.438Z" fill="#CBCBCB"/>
<path d="M593.089 228.999L103.304 355.218C102.1 355.524 100.824 355.34 99.7551 354.706C98.6864 354.073 97.9123 353.042 97.6022 351.839C97.2922 350.636 97.4715 349.359 98.1009 348.288C98.7303 347.217 99.7585 346.439 100.96 346.124L590.745 219.905C591.343 219.749 591.965 219.712 592.577 219.797C593.189 219.883 593.779 220.088 594.311 220.401C594.844 220.714 595.309 221.129 595.681 221.623C596.053 222.116 596.324 222.678 596.478 223.277C596.632 223.875 596.667 224.498 596.58 225.109C596.493 225.721 596.286 226.31 595.971 226.841C595.656 227.373 595.239 227.837 594.745 228.207C594.25 228.578 593.687 228.847 593.089 228.999V228.999Z" fill="#1877F2"/>
<path d="M126.107 356.572C127.505 355.877 128.734 354.883 129.707 353.661C130.679 352.439 131.372 351.018 131.736 349.5C132.1 347.981 132.127 346.401 131.815 344.871C131.502 343.34 130.858 341.897 129.927 340.643L137.916 262.54H120.652L114.303 338.804C112.299 340.507 110.99 342.885 110.623 345.489C110.256 348.093 110.857 350.741 112.312 352.931C113.767 355.121 115.975 356.701 118.518 357.373C121.06 358.044 123.76 357.759 126.107 356.572V356.572Z" fill="#9F616A"/>
<path d="M141.882 227.861L135.832 219.308C135.832 219.308 125.192 212.094 119.768 228.695C114.343 245.296 115.178 276.052 115.178 276.052L135.832 284.605L141.882 227.861Z" fill="#CBCBCB"/>
<path d="M468.659 578H1.22686C0.901474 578 0.589417 577.871 0.359337 577.641C0.129257 577.411 0 577.099 0 576.773C0 576.448 0.129257 576.136 0.359337 575.906C0.589417 575.676 0.901474 575.546 1.22686 575.546H468.659C468.985 575.546 469.297 575.676 469.527 575.906C469.757 576.136 469.886 576.448 469.886 576.773C469.886 577.099 469.757 577.411 469.527 577.641C469.297 577.871 468.985 578 468.659 578Z" fill="#CACACA"/>
<path d="M1204.77 578H737.341C737.015 578 736.703 577.871 736.473 577.641C736.243 577.411 736.114 577.099 736.114 576.773C736.114 576.448 736.243 576.136 736.473 575.906C736.703 575.676 737.015 575.546 737.341 575.546H1204.77C1205.1 575.546 1205.41 575.676 1205.64 575.906C1205.87 576.136 1206 576.448 1206 576.773C1206 577.099 1205.87 577.411 1205.64 577.641C1205.41 577.871 1205.1 578 1204.77 578Z" fill="#CACACA"/>
</g>
<defs>
<clipPath id="clip0_308_236">
<rect width="1206" height="578" fill="white"/>
</clipPath>
</defs>
</svg>
